<svg id="Layer_1" enable-background="new 0 0 512.056 512.056" height="512" viewBox="0 0 512.056 512.056" width="512" xmlns="http://www.w3.org/2000/svg"><path d="m466.733 464.329v-30h-85.519c5.057-2.48 10.118-5.164 15.152-8.07 66.433-38.354 101.74-100.024 103.211-102.63l12.479-22.119-25.395-.25c-1.142-.014-21.172-.123-49.575 5.249 23.767-47.187 30.735-87.583 31.13-89.961l4.162-25.053-23.95 8.45c-1.427.504-28.179 10.082-61.535 31.381 5.662-54.204-1.739-95.283-2.203-97.768l-4.658-24.966-19.615 16.132c-1.227 1.01-24.443 20.282-50.186 53.708-14.498-62.872-39.797-106.318-41.286-108.838l-12.915-21.865-12.915 21.866c-1.489 2.521-26.788 45.966-41.286 108.837-25.742-33.427-48.958-52.698-50.186-53.708l-19.615-16.132-4.658 24.966c-.464 2.484-7.865 43.564-2.203 97.768-33.357-21.299-60.109-30.878-61.535-31.382l-23.95-8.45 4.162 25.054c.395 2.378 7.363 42.775 31.13 89.962-28.403-5.371-48.43-5.261-49.576-5.249l-25.398.248 12.479 22.119c1.471 2.606 36.779 64.276 103.212 102.63 5.034 2.906 10.095 5.591 15.152 8.07h-85.519v30h421.409zm-35.456-223.875c-8.501 27.551-25.546 70.298-56.939 107.713-15.101 17.996-31.993 32.937-48.315 45.062 22.879-31.416 45.75-78.863 54.195-120.676 18.709-14.281 36.924-24.864 51.059-32.099zm-72.977-72.137c4.771 60.894-9.784 143.183-54.691 204.483 13.234-42.057 21.035-103.56 13.943-152.904 14.169-21.71 29.098-39.248 40.748-51.579zm-102.253-57.385c44.85 96.662 44.763 208.496 0 304.77-44.93-97.158-44.815-207.713 0-304.77zm-102.255 57.422c11.646 12.33 26.559 29.855 40.714 51.542-7.052 49.197.628 110.805 13.694 152.555-44.77-61.256-59.119-143.393-54.408-204.097zm-21.953 104.198c8.453 41.846 31.351 89.336 54.241 120.757-54.091-37.782-90.758-102.049-105.31-152.887 14.103 7.217 32.293 17.793 51.069 32.13zm-75.907 61.234c11.321 1.6 25.064 4.212 39.891 8.475 18.644 28.561 47.293 57.02 72.764 75.484-46.018-14.955-90.068-53.661-112.655-83.959zm287.539 83.957c25.466-18.459 54.124-46.927 72.764-75.483 14.826-4.263 28.57-6.875 39.889-8.475-22.621 30.339-66.638 69-112.653 83.958z"/></svg>