<svg id="Capa_1" enable-background="new 0 0 512 512" height="512" viewBox="0 0 512 512" width="512" xmlns="http://www.w3.org/2000/svg"><g><path d="m256 0c-140.958 0-256 115.049-256 256 0 140.958 115.049 256 256 256 140.96 0 256-115.049 256-256 0-140.96-115.049-256-256-256zm181.141 121h-76.141v-30h49.262c9.814 9.181 18.821 19.215 26.879 30zm-196.141-30v30h-60v-30zm30 0h60v30h-60zm99.118-30h-228.236c33.514-19.689 72.517-31 114.118-31s80.604 11.311 114.118 31zm-268.38 30h49.262v30h-76.141c8.058-10.785 17.065-20.819 26.879-30zm154.262 391c-86.736 0-162.201-49.122-200.076-121h35.076v-30h-48.191c-3.428-9.717-6.22-19.73-8.303-30h56.494v-30h-60.49c-.327-4.96-.51-9.959-.51-15 0-37.882 9.383-73.608 25.924-105h185.076v120h30v-120h185.076c16.541 31.392 25.924 67.118 25.924 105 0 5.041-.183 10.04-.51 15h-60.49v30h56.494c-2.083 10.27-4.875 20.283-8.303 30h-48.191v30h35.076c-37.875 71.878-113.34 121-200.076 121z"/><path d="m121 391h61.509c6.968 34.192 37.271 60 73.491 60s66.522-25.808 73.491-60h61.509v-90h-270zm135 30c-24.813 0-45-20.187-45-45v-45h30v60h30v-60h30v45c0 24.813-20.187 45-45 45zm105-60h-30v-30h30zm-210-30h30v30h-30z"/><path d="m211 226c0-25.234-26.355-45-60-45s-60 19.766-60 45 26.355 45 60 45 60-19.766 60-45zm-90 0c0-6.116 11.687-15 30-15s30 8.884 30 15-11.687 15-30 15-30-8.884-30-15z"/><path d="m361 181c-33.645 0-60 19.766-60 45s26.355 45 60 45 60-19.766 60-45-26.355-45-60-45zm0 60c-18.313 0-30-8.884-30-15s11.687-15 30-15 30 8.884 30 15-11.687 15-30 15z"/></g></svg>