<svg id="Capa_1" enable-background="new 0 0 510 510" height="512" viewBox="0 0 510 510" width="512" xmlns="http://www.w3.org/2000/svg"><g><path d="m202.017 127.5v-97.5h30v-30c-22.291 0-157.261 0-180 0v30h30v97.5c0 20.958-6.925 41.734-19.5 58.5-16.443 21.924-25.5 49.092-25.5 76.5v197.5c0 27.57 22.43 50 50 50h110c27.57 0 50-22.43 50-50v-197.5c0-27.408-9.057-54.576-25.5-76.5-12.576-16.766-19.5-37.542-19.5-58.5zm-102.42 232.5c14.148 39.893 70.684 39.916 84.84 0h32.58v60h-150v-60zm27.42-15c0-8.271 6.728-15 15-15 8.271 0 15 6.729 15 15 0 8.272-6.729 15-15 15-8.272 0-15-6.728-15-15zm57.419-15c-6.192-17.459-22.865-30-42.42-30s-36.228 12.541-42.42 30h-32.58v-60h150v60zm-12.419-300v30h-60v-30zm-85.5 174c16.444-21.925 25.5-49.093 25.5-76.5v-37.5h60v37.5c0 27.407 9.056 54.575 25.5 76.5 8.024 10.697 13.734 23.031 16.826 36h-144.654c3.092-12.969 8.803-25.303 16.828-36zm110.5 276h-110c-11.028 0-20-8.972-20-20v-10h150v10c0 11.028-8.972 20-20 20z"/><path d="m291.05 240 16.875 270h148.184l16.875-270zm150 30-4.688 75h-22.575c-33.371 0-38.457 15-63.541 15h-21.638l-5.625-90zm-104.942 210-5.625-90c12.571-.852 33.215 3.43 58.241-9.083 17.239-8.62 30.408-5.091 45.763-5.917l-6.562 105z"/></g></svg>