<svg id="Layer_1" enable-background="new 0 0 509.723 509.723" height="512" viewBox="0 0 509.723 509.723" width="512" xmlns="http://www.w3.org/2000/svg"><g><path d="m164.396 254.723h30v30h-30z"/><path d="m164.396 374.723h30v30h-30z"/><path d="m314.396 239.723h30v30h-30z"/><path d="m314.396 374.723h30v30h-30z"/><path d="m405.325 149.288-.028-.475c-.898-14.78-5.858-22.586-10.234-29.473-2.06-3.24-4.004-6.302-5.747-10.506h-.001c-7.831-18.883-12.772-24.754-26.023-38.006-14.558-14.56-34.841-18.943-50.535-25.032-15.237-61.08-101.503-61.044-116.718-.001-15.669 6.082-35.968 10.467-50.536 25.033-13.251 13.25-18.192 19.121-26.023 38.006-1.735 4.186-3.532 7.222-5.435 10.437-4.087 6.907-8.72 14.735-9.62 29.542v.91h-.028v360h300c-.001-.1.99-384.582.928-360.435zm-265.464-14.738c2.13-3.599 4.781-8.078 7.329-14.225 6.016-14.508 8.316-17.075 19.524-28.284 6.561-6.56 17.156-10.198 28.373-14.05 12.375-4.249 13.43-4.917 15.035-5.525 7.704-3.19 13.24-10.056 14.811-18.364 6.617-32.316 52.319-32.296 58.927-.002 1.569 8.31 7.107 15.176 14.78 18.354l.153.064c16.41 6.802 33.886 10.126 43.283 19.523 11.209 11.21 13.51 13.779 19.526 28.285 2.739 6.606 5.733 11.317 8.139 15.104 3.481 5.479 5.111 8.044 5.581 14.76v.153c-16.586 1.408-32.783 5.284-48.095 11.513-19.422-75.737-126.314-75.662-145.672.033-14.779-6.032-30.62-9.98-47.16-11.477v-.207c.498-7.261 2.179-10.101 5.466-15.655zm69.657 42.029c5.543-55.459 84.154-55.469 89.751-.062-17.67 11.543-32.882 26.282-44.91 43.396-12.063-17.121-27.297-31.85-44.841-43.334zm44.878 138.144v30c0 69.369-52.595 126.686-120 134.172v-298.344c67.405 7.487 120 64.803 120 134.172zm16.652-64.988c21.353-38.955 59.63-64.433 103.348-69.199v298.375c-43.717-4.766-81.995-30.244-103.348-69.199 8.583-19.955 13.348-41.924 13.348-64.988v-30c0-23.065-4.765-45.034-13.348-64.989zm-16.689 189.799c10.941 15.568 24.516 29.17 40.18 40.189h-80.385c15.599-10.982 29.217-24.594 40.205-40.189z"/></g></svg>