<svg id="Capa_1" enable-background="new 0 0 510 510" height="512" viewBox="0 0 510 510" width="512" xmlns="http://www.w3.org/2000/svg"><g><path d="m368.822 182.869c-43.355-31.532-68.166-110.113-69.429-152.869h30.607v-30c-56.864 0-92.898 0-150 0v30h30.607c-1.264 42.756-26.074 121.337-69.43 152.869l-6.177 4.492v322.639h240v-322.639zm-128.257-152.869h28.869c.247 9.124 1.353 19.309 3.204 30h-35.277c1.852-10.691 2.957-20.876 3.204-30zm-16.439 80.045c2.363-6.616 4.493-13.336 6.386-20.045h48.977c1.893 6.709 4.022 13.429 6.386 20.045 1.145 3.205 2.397 6.538 3.752 9.955h-69.252c1.353-3.417 2.606-6.75 3.751-9.955zm120.874 369.955h-180v-45h180zm0-75h-180v-150h180zm0-180h-180v-22.663c17.565-14.512 31.113-33.426 41.407-52.337h97.186c10.293 18.911 23.842 37.825 41.407 52.337z"/><path d="m255 374.978c24.781-.002 45-20.004 45-44.978 0-12.021-4.682-23.321-13.181-31.819-28.171-28.173-76.819-8.16-76.819 31.819 0 25.025 20.273 44.98 45 44.978zm0-59.978c8.287 0 15 6.709 15 15 0 13.304-16.192 20.021-25.606 10.606v-.001c-2.834-2.832-4.394-6.598-4.394-10.605 0-8.289 6.708-15 15-15z"/></g></svg>