<svg id="Capa_1" enable-background="new 0 0 512 512" height="512" viewBox="0 0 512 512" width="512" xmlns="http://www.w3.org/2000/svg"><g><path d="m506.8 204.41c-3.37-16.44-8.39-32.61-14.92-48.06-6.42-15.17-14.36-29.8-23.6-43.48-4.815-7.127-10.012-14.022-15.535-20.648l18.835-13.179c8.07-5.647 13.38-14.177 14.949-24.015 3.195-20.012-10.401-39.419-30.31-43.263-9.793-1.889-19.629.181-27.698 5.832-.3.21-.596.424-.889.642-5.456-8.426-14.164-14.728-24.61-16.745-9.786-1.887-19.626.181-27.696 5.831-1.891 1.324-3.629 2.806-5.204 4.426-8.326-8.683-14.247-11.751-31.122-11.751-6.433 0-14.039 4.16-18.863 8.118-4.161-1.075-8.344-2.056-12.548-2.918-16.864-3.45-34.227-5.2-51.589-5.2-17.363 0-34.725 1.75-51.59 5.2-16.44 3.37-32.61 8.39-48.061 14.92-15.17 6.42-29.8 14.36-43.479 23.6-13.56 9.16-26.31 19.68-37.891 31.26-11.58 11.59-22.1 24.33-31.26 37.89-9.24 13.68-17.18 28.31-23.6 43.48-6.539 15.45-11.55 31.62-14.919 48.06-3.45 16.86-5.2 34.22-5.2 51.59s1.75 34.73 5.2 51.59c3.369 16.44 8.38 32.61 14.92 48.06 6.42 15.17 14.359 29.8 23.6 43.48 9.16 13.56 19.68 26.3 31.26 37.89 11.58 11.58 24.33 22.1 37.891 31.26 13.68 9.24 28.31 17.18 43.479 23.6 15.45 6.53 31.62 11.55 48.061 14.92 16.859 3.45 34.22 5.2 51.59 5.2h.02c26.34 0 52.33-3.99 77.23-11.87 24.109-7.62 46.91-18.77 67.78-33.15 2.199-1.51 3.68-3.8 4.17-6.42.479-2.63-.091-5.29-1.601-7.49-1.87-2.71-4.95-4.33-8.25-4.33-2.02 0-3.979.61-5.66 1.77-39.42 27.14-85.65 41.49-133.69 41.49-63.021 0-122.29-24.55-166.88-69.12-44.57-44.59-69.12-103.85-69.12-166.88 0-63.02 24.55-122.29 69.12-166.88 44.59-44.57 103.85-69.11 166.88-69.12 6.962.001 13.875.318 20.73.912-2.369.993-4.642 2.238-6.786 3.738-7.094 4.964-12.066 12.046-14.427 20.356-116.124.263-210.517 94.81-210.517 210.994 0 116.346 94.654 211 211 211s211-94.654 211-211c0-51.039-18.135-99.552-51.281-137.872l20.587-14.405c36.041 42.548 55.694 95.908 55.694 152.277 0 48.1-14.38 94.37-41.57 133.81-3.13 4.54-1.99 10.78 2.55 13.91 1.681 1.15 3.641 1.77 5.67 1.77 3.29 0 6.37-1.62 8.24-4.33 14.41-20.89 25.59-43.71 33.22-67.84 7.89-24.93 11.89-50.95 11.89-77.32 0-17.37-1.75-34.73-5.2-51.59zm-229.739-122.744c3.204-3.455 3.561-8.678.856-12.538-2.959-4.223-4.394-9.9-3.837-15.188.403-3.829 2.002-9.176 7.329-12.903 8.978-6.283 22.059-1.884 27.755 6.245 2.703 3.858 7.733 5.307 12.076 3.475 4.341-1.831 6.815-6.444 5.938-11.074-.872-4.61.076-9.191 2.672-12.897 2.478-3.537 6.199-5.869 10.48-6.568 9.282-1.515 18.3 5.012 20.105 14.55.895 4.728 5.025 8.141 9.823 8.14.049 0 .098 0 .146-.001 4.859-.07 8.965-3.623 9.731-8.422.709-4.438 3.074-8.267 6.662-10.778 3.592-2.516 8.006-3.432 12.434-2.576 9.425 1.819 15.863 11.004 14.352 20.473-.085.533-.126 1.062-.126 1.585-.002 4.83 3.504 9.081 8.425 9.866 5.45.873 10.581-2.845 11.451-8.299.708-4.438 3.074-8.266 6.661-10.778 3.594-2.516 8.012-3.431 12.435-2.576 9.425 1.819 15.862 11.003 14.351 20.473-.708 4.44-3.076 8.269-6.665 10.781l-219.348 153.476c-3.593 2.514-8.008 3.429-12.43 2.573-9.426-1.82-15.863-11.004-14.352-20.473.709-4.439 3.074-8.267 6.662-10.778 2.715-1.901 5.899-2.888 9.204-2.888 1.067 0 2.148.103 3.229.312 5.423 1.046 10.667-2.5 11.714-7.923.124-.641.184-1.279.184-1.908-.001-4.696-3.324-8.883-8.106-9.807-9.426-1.82-15.863-11.004-14.352-20.473.709-4.438 3.075-8.267 6.662-10.778 3.592-2.516 8.007-3.432 12.434-2.576 4.78.921 9.518-1.723 11.243-6.266 1.727-4.544-.063-9.671-4.243-12.152-8.35-4.956-11.405-15.651-6.81-23.841 2.118-3.777 5.582-6.472 9.751-7.59 4.379-1.175 9.021-.5 13.065 1.902 4.055 2.405 9.234 1.655 12.439-1.8zm34.267 117.299c-1.198 4.709 1.163 9.599 5.597 11.588 4.435 1.991 9.656.504 12.378-3.52 2.521-3.727 6.284-6.198 10.598-6.958 4.319-.761 8.703.277 12.353 2.922 7.776 5.633 9.73 16.676 4.355 24.617-1.164 1.72-1.721 3.671-1.72 5.603.002 3.205 1.542 6.353 4.396 8.284 4.574 3.097 10.792 1.898 13.887-2.676 2.521-3.726 6.287-6.196 10.604-6.957 4.322-.762 8.709.275 12.355 2.917 7.771 5.634 9.726 16.68 4.356 24.622-1.279 1.892-2.881 3.464-4.76 4.674-1.777 1.144-3.74 1.911-5.84 2.279l-263.657 46.401c-4.322.76-8.714-.281-12.361-2.917-7.771-5.634-9.725-16.68-4.354-24.624 3.093-4.576 7.964-7.2 13.364-7.2 3.416 0 6.732 1.095 9.593 3.167h.001c4.47 3.239 10.725 2.241 13.964-2.231 3.24-4.472 2.242-10.725-2.23-13.965 0 0 0 0-.001-.001-7.775-5.633-9.729-16.675-4.35-24.624 2.514-3.721 6.271-6.19 10.579-6.951 4.319-.761 8.713.273 12.367 2.921 3.937 2.852 9.354 2.46 12.837-.928 3.485-3.388 4.03-8.79 1.291-12.805-5.473-8.025-3.726-19.008 3.896-24.486 2.739-1.969 5.941-3.01 9.263-3.01 1.369 0 2.737.188 4.07.537-2.851 19.81 10.667 38.888 30.386 42.696 2.363.456 4.729.682 7.073.682 7.359 0 14.493-2.224 20.612-6.505l59.323-41.508c.501 2.606.445 5.321-.225 7.956zm25.595 103.588c4.436 1.993 9.657.506 12.38-3.52 2.521-3.726 6.284-6.197 10.598-6.957 4.317-.761 8.704.277 12.353 2.922 7.776 5.633 9.73 16.676 4.355 24.617-1.164 1.72-1.721 3.671-1.72 5.603.002 3.205 1.542 6.353 4.396 8.284 4.573 3.097 10.791 1.898 13.887-2.676 2.521-3.726 6.287-6.196 10.604-6.957 4.321-.761 8.709.275 12.355 2.917 7.771 5.634 9.726 16.68 4.356 24.622-1.279 1.892-2.881 3.464-4.76 4.674-1.777 1.144-3.74 1.911-5.84 2.279l-263.657 46.4c-4.323.756-8.713-.281-12.361-2.917-7.771-5.634-9.725-16.68-4.354-24.624 3.093-4.576 7.964-7.2 13.364-7.2 3.408 0 6.719 1.091 9.574 3.154.006.004.014.01.02.014 4.47 3.238 10.724 2.241 13.964-2.231s2.242-10.725-2.23-13.965c0 0 0 0-.001-.001-7.775-5.633-9.729-16.675-4.35-24.624 2.514-3.721 6.271-6.189 10.579-6.951 4.319-.763 8.713.274 12.367 2.921 3.938 2.854 9.359 2.458 12.844-.934 1.973-1.922 3-4.489 3.021-7.084l132.983-23.403c.909 2.439 2.755 4.506 5.273 5.637zm-99.313-236.664c-5.487 3.182-10.05 7.782-13.247 13.48-6.176 11.009-6.012 24.066-.701 34.855-2.065.927-4.057 2.056-5.951 3.382-8.063 5.646-13.37 14.173-14.94 24.008-1.531 9.589.802 19.033 5.829 26.699-1.177 1.81-2.218 3.728-3.111 5.728-1.114 1.019-2.162 2.097-3.131 3.238-3.935-1.417-8.097-2.169-12.267-2.169-7.536 0-14.776 2.341-20.935 6.77-10.248 7.364-15.616 19.266-15.361 31.29-2.283-.029-4.557.149-6.838.552-9.691 1.712-18.098 7.199-23.667 15.443-5.96 8.805-7.66 19.413-5.559 29.227-9.977 1.449-18.996 7.063-24.784 15.627-11.348 16.784-7.228 40.119 9.195 52.025 6.331 4.576 13.708 6.964 21.269 6.964 2.086 0 4.188-.182 6.283-.55l8.919-1.57c-1.994 6.359-2.253 13.099-.882 19.503-9.977 1.449-18.996 7.063-24.784 15.627-2.244 3.32-3.874 6.897-4.933 10.59-26.872-32.908-43.014-74.906-43.014-120.608 0-99.114 75.889-180.827 172.61-190.111zm18.39 381.111c-34.108 0-66.15-8.996-93.896-24.726l238.842-42.032c-35.056 40.84-87.029 66.758-144.946 66.758zm191-191c0 22.095-3.784 43.319-10.716 63.076-2.288-3.195-5.096-6.076-8.417-8.484-8.073-5.849-17.864-8.129-27.562-6.419-.362.064-.724.133-1.083.208-.904-6.488-3.455-12.736-7.507-18.033l1.635-.288c4.732-.831 9.176-2.567 13.205-5.162 4.165-2.682 7.697-6.143 10.5-10.287 11.348-16.784 7.228-40.118-9.188-52.02-8.073-5.849-17.862-8.129-27.562-6.419-.362.064-.724.133-1.083.208-1.385-9.942-6.614-19.334-15.231-25.576-8.071-5.852-17.859-8.132-27.559-6.425-2.265.399-4.46 1.004-6.565 1.803-.358-1.06-.767-2.104-1.217-3.131l70.591-49.392c30.856 34.921 47.759 79.455 47.759 126.341z"/><circle cx="429.9" cy="430" r="10"/></g></svg>