<svg id="Capa_1" enable-background="new 0 0 512 512" height="512" viewBox="0 0 512 512" width="512" xmlns="http://www.w3.org/2000/svg"><g><path d="m502 246h-116.176c-.82-23.608-4.504-48.274-10.779-71.944-.024-.091-.077-.282-.078-.286-16.204-60.858-57.398-137.77-118.967-137.77-61.715 0-102.841 77.21-118.967 137.769-.001.005-.055.198-.079.289-6.274 23.669-9.958 48.335-10.778 71.942h-116.176c-5.523 0-10 4.478-10 10 0 39.917 23.839 75.89 60 91.668v49.598c-17.233 4.452-30 20.13-30 38.734 0 22.056 17.944 40 40 40s40-17.944 40-40c0-18.604-12.767-34.282-30-38.734v-43.282c6.544 1.329 13.229 2.016 20 2.016h83v41.266c-17.233 4.452-30 20.13-30 38.734 0 22.056 17.944 40 40 40s40-17.944 40-40c0-18.604-12.767-34.282-30-38.734v-41.266h106v41.266c-17.233 4.452-30 20.13-30 38.734 0 22.056 17.944 40 40 40s40-17.944 40-40c0-18.604-12.767-34.282-30-38.734v-41.266h83c6.771 0 13.457-.688 20-2.016v43.282c-17.233 4.452-30 20.13-30 38.734 0 22.056 17.944 40 40 40s40-17.944 40-40c0-18.604-12.767-34.282-30-38.734v-49.598c36.163-15.781 60-51.753 60-91.668 0-5.522-4.477-10-10-10zm-289 190c0 11.028-8.972 20-20 20s-20-8.972-20-20 8.972-20 20-20 20 8.972 20 20zm126 0c0 11.028-8.972 20-20 20s-20-8.972-20-20 8.972-20 20-20 20 8.972 20 20zm-157.679-320h149.358c9.489 16.994 17.535 36.722 23.511 57.668l-8.19 8.19-22.929-22.929c-3.905-3.904-10.237-3.904-14.143 0l-22.928 22.928-22.929-22.929c-3.905-3.904-10.237-3.904-14.143 0l-22.928 22.929-22.929-22.929c-3.905-3.904-10.237-3.904-14.143 0l-22.928 22.929-8.19-8.19c5.977-20.945 14.022-40.672 23.511-57.667zm74.679-60c21.413 0 43.015 14.068 61.945 40h-123.89c18.929-25.931 40.531-40 61.945-40zm-166 380c0 11.028-8.972 20-20 20s-20-8.972-20-20 8.972-20 20-20 20 8.972 20 20zm372 0c0 11.028-8.972 20-20 20s-20-8.972-20-20 8.972-20 20-20 20 8.972 20 20zm-50-100h-312c-40.557 0-74.357-30.214-79.373-70h190.373c5.523 0 10-4.478 10-10s-4.477-10-10-10h-64.807c.604-16.248 2.661-33.035 6.062-49.604l6.675 6.675c3.905 3.904 10.237 3.904 14.143 0l22.927-22.928 22.929 22.929c3.905 3.904 10.237 3.904 14.143 0l22.928-22.929 22.929 22.929c3.905 3.904 10.237 3.904 14.143 0l22.928-22.929 22.929 22.929c1.953 1.952 4.512 2.929 7.071 2.929s5.119-.977 7.071-2.929l6.675-6.675c3.4 16.569 5.458 33.357 6.062 49.604h-64.808c-5.523 0-10 4.478-10 10s4.477 10 10 9.99h190.372c-5.007 39.728-38.735 70.009-79.372 70.009z"/><circle cx="256" cy="256" r="10"/></g></svg>