<svg id="Capa_1" enable-background="new 0 0 512 512" height="512" viewBox="0 0 512 512" width="512" xmlns="http://www.w3.org/2000/svg"><g><path d="m497 191h-108.968l-25.209-113.439c-4.18-18.81-14.759-35.808-29.788-47.864-15.03-12.057-33.919-18.697-53.187-18.697h-47.696c-19.268 0-38.157 6.64-53.187 18.696-15.03 12.057-25.609 29.055-29.789 47.864l-25.208 113.44h-108.968c-8.284 0-15 6.716-15 15 0 52.383 42.617 95 95 95h322c52.383 0 95-42.617 95-95 0-8.284-6.716-15-15-15zm-318.539-106.932c5.636-25.358 27.714-43.068 53.691-43.068h47.696c25.977 0 48.055 17.71 53.69 43.068l4.371 19.668-32.484 19.717-41.642-25.276c-4.783-2.903-10.784-2.903-15.566 0l-41.642 25.276-32.484-19.717zm-11.242 50.59 31.573 19.164c4.783 2.903 10.784 2.903 15.566 0l41.642-25.275 41.642 25.276c4.783 2.903 10.784 2.903 15.566 0l31.573-19.164 12.52 56.341h-202.602zm-95.481 132.025c-19.831-7.628-35.016-24.697-39.991-45.683h74.253zm34.262 4.317 30-40 30 40zm60-50h60l-30 40zm60 50 30-40 30 40zm60-50h60l-30 40zm60 50 30-40 30 40zm94.262-4.317-34.262-45.683h74.253c-4.975 20.986-20.159 38.055-39.991 45.683z"/><path d="m443.078 372.775c-4.877-2.611-10.796-2.325-15.398.744l-18.397 12.265c-19.602 13.068-45.434 12.351-64.283-1.784-14.247-10.686-31.191-16.333-49-16.333-14.191 0-27.834 3.587-40 10.45-12.166-6.863-25.809-10.45-40-10.45-17.809 0-34.753 5.647-49 16.333-18.848 14.135-44.681 14.853-64.282 1.784l-18.398-12.264c-4.604-3.069-10.521-3.356-15.398-.744-4.877 2.609-7.922 7.692-7.922 13.224 0 63.411 51.589 115 115 115 29.917 0 58.722-11.873 80-32.413 21.278 20.54 50.083 32.413 80 32.413 63.411 0 115-51.589 115-115 0-5.532-3.045-10.615-7.922-13.225zm-107.078 98.225c-26.612 0-52.032-12.71-68-34-2.833-3.777-7.278-6-12-6s-9.167 2.223-12 6c-15.968 21.29-41.388 34-68 34-36.004 0-66.853-22.504-79.22-54.183 28.419 13.516 62.535 10.447 88.22-8.817 18.252-13.688 43.748-13.688 62 0 5.334 4 12.666 4 18 0 18.252-13.688 43.748-13.688 62 0 25.686 19.264 59.801 22.333 88.22 8.817-12.367 31.679-43.216 54.183-79.22 54.183z"/></g></svg>