<?xml version="1.0" encoding="iso-8859-1"?>
<!-- Generator: Adobe Illustrator 19.0.0, SVG Export Plug-In . SVG Version: 6.00 Build 0)  -->
<svg version="1.1" id="Layer_1" xmlns="http://www.w3.org/2000/svg" xmlns:xlink="http://www.w3.org/1999/xlink" x="0px" y="0px"
	 viewBox="0 0 512 512" style="enable-background:new 0 0 512 512;" xml:space="preserve">
<g>
	<g>
		<path d="M501.801,27.311H10.199C4.567,27.311,0,31.878,0,37.511v436.979c0,5.633,4.567,10.199,10.199,10.199h491.602
			c5.632,0,10.199-4.566,10.199-10.199V37.511C512,31.878,507.433,27.311,501.801,27.311z M211.124,464.29H105.052v0V271.638
			h106.072V464.29z M84.653,251.24v-19.718h146.869v19.718H84.653z M491.602,464.29h-260.08V271.638h10.199
			c5.632,0,10.199-4.566,10.199-10.199v-40.117c0-5.633-4.567-10.199-10.199-10.199H74.454c-5.632,0-10.199,4.566-10.199,10.199
			v40.117c0,5.633,4.567,10.199,10.199,10.199h10.199V464.29H20.398V47.71h471.203V464.29z"/>
	</g>
</g>
<g>
	<g>
		<path d="M424.542,233.562H321.275c-5.632,0-10.199,4.566-10.199,10.199v91.793c0,5.633,4.567,10.199,10.199,10.199h103.267
			c5.632,0,10.199-4.566,10.199-10.199v-91.793C434.741,238.128,430.174,233.562,424.542,233.562z M414.343,325.355h-82.869V253.96
			h82.869V325.355z"/>
	</g>
</g>
<g>
	<g>
		<path d="M92.813,72.414c-19.121,0-34.677,15.556-34.677,34.677c0,19.122,15.556,34.677,34.677,34.677s34.677-15.556,34.677-34.677
			C127.49,87.97,111.934,72.414,92.813,72.414z M92.813,121.371c-7.874,0-14.279-6.405-14.279-14.279s6.405-14.279,14.279-14.279
			s14.279,6.405,14.279,14.279S100.687,121.371,92.813,121.371z"/>
	</g>
</g>
<g>
	<g>
		<path d="M201.944,72.414c-19.121,0-34.677,15.556-34.677,34.677c0,19.122,15.556,34.677,34.677,34.677
			s34.677-15.556,34.677-34.677C236.622,87.97,221.066,72.414,201.944,72.414z M201.944,121.371
			c-7.874,0-14.279-6.405-14.279-14.279s6.405-14.279,14.279-14.279s14.279,6.405,14.279,14.279S209.818,121.371,201.944,121.371z"
			/>
	</g>
</g>
<g>
	<g>
		<path d="M312.096,72.414c-19.121,0-34.677,15.556-34.677,34.677c0,19.122,15.556,34.677,34.677,34.677
			s34.677-15.556,34.677-34.677C346.773,87.97,331.217,72.414,312.096,72.414z M312.096,121.371
			c-7.874,0-14.279-6.405-14.279-14.279s6.405-14.279,14.279-14.279s14.279,6.405,14.279,14.279S319.969,121.371,312.096,121.371z"
			/>
	</g>
</g>
<g>
	<g>
		<path d="M421.227,72.414c-19.121,0-34.677,15.556-34.677,34.677c0,19.122,15.556,34.677,34.677,34.677
			s34.677-15.556,34.677-34.677C455.904,87.97,440.349,72.414,421.227,72.414z M421.227,121.371
			c-7.874,0-14.279-6.405-14.279-14.279s6.405-14.279,14.279-14.279s14.279,6.405,14.279,14.279S429.101,121.371,421.227,121.371z"
			/>
	</g>
</g>
<g>
	<g>
		<path d="M323.315,434.486h-6.12c-5.632,0-10.199,4.566-10.199,10.199c0,5.633,4.567,10.199,10.199,10.199h6.12
			c5.632,0,10.199-4.566,10.199-10.199C333.514,439.052,328.947,434.486,323.315,434.486z"/>
	</g>
</g>
<g>
	<g>
		<path d="M471.203,434.486H360.032c-5.632,0-10.199,4.566-10.199,10.199c0,5.633,4.567,10.199,10.199,10.199h111.171
			c5.632,0,10.199-4.566,10.199-10.199C481.402,439.052,476.835,434.486,471.203,434.486z"/>
	</g>
</g>
<g>
</g>
<g>
</g>
<g>
</g>
<g>
</g>
<g>
</g>
<g>
</g>
<g>
</g>
<g>
</g>
<g>
</g>
<g>
</g>
<g>
</g>
<g>
</g>
<g>
</g>
<g>
</g>
<g>
</g>
</svg>
