<svg id="Capa_1" enable-background="new 0 0 512.002 512.002" height="512" viewBox="0 0 512.002 512.002" width="512" xmlns="http://www.w3.org/2000/svg"><g><g><g><g><g><path d="m381.051 413.707c-4.078 18.852-22 34.875-41.314 34.875h-219.012c-4.142 0-7.5 3.358-7.5 7.5s3.358 7.5 7.5 7.5h24.093c-.039.727-.065 1.456-.065 2.19 0 18.19 12.211 32.99 27.22 32.99 4.661 0 9.186-1.419 13.177-4.075 3.203 1.552 6.646 2.355 10.183 2.355 3.535 0 6.982-.823 10.174-2.368 4.001 10.135 13.886 17.328 25.426 17.328 11.535 0 21.417-7.193 25.416-17.327 3.192 1.544 6.639 2.367 10.174 2.367 3.538 0 6.979-.803 10.183-2.355 3.991 2.656 8.517 4.075 13.177 4.075 15.009 0 27.22-14.799 27.22-32.99 0-.733-.026-1.463-.065-2.19h22.698c24.302 0 45.891-15.896 53.442-38.561 39.296-2.397 70.529-35.128 70.529-75.017 0-18.298-6.528-35.385-17.818-48.663 26.521-17.813 41.001-37.362 48.589-51.087 7.899-14.288 7.013-31.465-2.314-44.831l-13.37-19.159c-2.962-4.245-7.618-6.942-12.773-7.401-5.163-.457-10.229 1.379-13.899 5.041-5.345 5.334-10.9 9.876-16.531 13.753 4.756-9.48 9.458-19.462 14.06-29.892 7.903-17.914.535-39.096-16.773-48.224l-3.516-1.854c1.109-4.09 2.059-7.936 2.852-11.437 4.172-18.408-4.454-37.583-20.977-46.63l-23.612-12.93c-4.553-2.493-9.935-2.836-14.769-.943-4.827 1.892-8.538 5.794-10.181 10.708-2.416 7.222-5.303 14.359-8.632 21.402-4.729-7.724-11.308-14.22-19.302-18.884l-9.036-5.272c-6.55-3.822-14.168-4.771-21.454-2.667-1.076.31-2.118.688-3.132 1.116.087-1.572.151-3.111.195-4.61.613-20.954-14.501-39.453-35.157-43.029l-24.567-4.253c-4.735-.818-9.47.297-13.336 3.145-3.817 2.811-6.358 7.122-6.973 11.828-1.944 14.901-8.701 49.017-30.862 70.562-.205-10.908-.711-22.255-1.525-33.904-1.366-19.528-17.763-34.826-37.33-34.826h-21.554c-4.807 0-9.449 2.011-12.735 5.518-3.297 3.519-5.009 8.302-4.695 13.123.979 15.034.941 31.577-.104 49.401-3.704-7.211-7.283-13.431-10.465-18.582-10.472-16.953-31.681-24.37-50.425-17.633l-27.847 10.008c-4.504 1.618-8.065 4.913-10.027 9.277-1.961 4.363-2.062 9.21-.283 13.649 13.209 32.974 21.346 71.1 24.184 113.319.266 3.962 3.563 6.998 7.476 6.998.169 0 .339-.006.51-.018 4.133-.278 7.258-3.853 6.98-7.986-2.944-43.791-11.431-83.456-25.226-117.892-.337-.843-.12-1.565.041-1.921.16-.357.558-1.002 1.417-1.311l27.849-10.005c12.117-4.351 25.823.441 32.592 11.4 9.128 14.777 21.707 38.812 30.61 70.378-29.994 14.322-50.768 44.952-50.768 80.346 0 25.14 10.483 47.876 27.304 64.073h-45.483c1.876-20.555 2.815-39.68 2.844-58.264.006-4.142-3.347-7.505-7.489-7.511-.004 0-.007 0-.012 0-4.136 0-7.493 3.351-7.5 7.489-.028 18.541-.989 37.661-2.908 58.287h-1.954c-10.185 0-18.47 8.286-18.47 18.471v70.483c0 4.826.886 9.448 2.493 13.719-1.627 2.807-2.493 5.984-2.493 9.25v43.982c0 10.185 8.286 18.47 18.47 18.47h50.538c4.142 0 7.5-3.358 7.5-7.5s-3.358-7.5-7.5-7.5h-50.537c-1.914 0-3.47-1.557-3.47-3.47v-36.213c6.639 5.209 14.992 8.327 24.065 8.327 12.957 0 24.454-6.346 31.565-16.088 7.111 9.742 18.608 16.088 31.565 16.088 12.958 0 24.456-6.347 31.566-16.089 7.111 9.742 18.609 16.089 31.566 16.089s24.455-6.346 31.565-16.088c7.111 9.742 18.608 16.088 31.565 16.088s24.454-6.346 31.565-16.088c7.111 9.742 18.608 16.088 31.565 16.088 21.541 0 39.065-17.525 39.065-39.065v-19.9c0-9.737-7.304-17.783-16.718-18.991.96-5.268 2.627-10.375 4.986-15.24 13.005-26.809 4.514-59.414-19.753-75.842-.468-.317-.748-.807-.748-1.31 0-.537.275-1.033.72-1.297 10.082-5.991 25.36-13.282 40.892-13.991 17.515-.795 31.033 6.852 41.296 23.394 6.425 10.358 9.687 21.232 9.694 32.32.002 3.052 1.854 5.799 4.682 6.945 22.827 9.256 37.576 31.142 37.576 55.756 0 30.63-23.015 55.967-52.657 59.673v-56.802c0-4.134 3.323-4.667 4.752-4.704 1.651-.038 4.417.438 4.609 4.136.215 4.137 3.736 7.302 7.88 7.1 4.137-.215 7.315-3.744 7.1-7.88-.645-12.373-10.552-18.603-19.979-18.35-11.038.287-19.362 8.756-19.362 19.699v60.831zm-185.717 68.335c-1.938 0-3.802-.7-5.55-2.063-1.021-1.235-3.032-4.176-3.508-7.238-.636-4.093-4.471-6.895-8.563-6.26-4.093.636-6.896 4.469-6.26 8.563.492 3.17 1.58 6.02 2.786 8.391-.705.205-1.461.327-2.266.327-6.624 0-12.22-8.238-12.22-17.99 0-.739.042-1.468.104-2.19h43.746v13.559c-1.405 1.918-4.237 4.901-8.269 4.901zm35.6 14.96c-6.799 0-12.33-5.531-12.33-12.33v-21.09h24.65v21.09c-.001 6.799-5.527 12.33-12.32 12.33zm71.17-31.23c0 9.751-5.596 17.99-12.22 17.99-.805 0-1.56-.121-2.265-.327 1.206-2.37 2.294-5.221 2.786-8.391.636-4.093-2.167-7.927-6.26-8.563-4.092-.635-7.926 2.167-8.563 6.26-.475 3.06-2.483 5.997-3.505 7.234-1.75 1.366-3.615 2.067-5.554 2.067-4.032 0-6.864-2.983-8.27-4.9v-13.56h43.747c.062.723.104 1.452.104 2.19zm122.857-333.446c10.37 5.468 15.704 18.649 10.967 29.386-7.767 17.606-15.809 33.923-23.906 48.521-12.873 5.128-29.032 7.119-39.103 8.143 27.243-25.321 43.051-58.859 52.042-86.05zm-188.804-115.151c.121-.923.674-1.456.994-1.69.386-.284 1.027-.592 1.882-.443l24.567 4.253c13.35 2.311 23.118 14.267 22.722 27.81-.622 21.273-5.614 51.22-25.863 73.083-13.439 14.51-24.566 31.549-32.607 49.8-5.538-6.993-12.103-13.134-19.465-18.2 5.978-8.357 18.094-24.498 30.648-36.575 2.985-2.872 3.077-7.619.205-10.604-2.871-2.984-7.619-3.077-10.604-.205-13.936 13.406-26.891 30.788-33.349 39.918-10.582-4.893-22.279-7.768-34.598-8.126 7.578-12.315 17.264-22.514 28.894-30.399 33.421-22.659 43.526-65.25 46.574-88.622zm-111.007 96.17c3.015-28.75 3.894-55.665 2.4-78.611-.063-.956.395-1.596.672-1.893.332-.353.911-.774 1.79-.774h21.554c11.724 0 21.548 9.168 22.366 20.872 1.086 15.527 1.616 30.493 1.592 44.536-13.579 10.48-24.555 23.904-32.703 39.993-3.013.523-5.976 1.195-8.878 2.014-2.683-9.361-5.67-18.088-8.793-26.137zm-41.057 111.788c0-40.792 33.187-73.979 73.979-73.979s73.979 33.187 73.979 73.979-33.187 73.979-73.979 73.979c-40.792.001-73.979-33.186-73.979-73.979zm-50.196 79.074s82.357-.005 82.393-.005c12.224 6.331 27.092 9.912 41.781 9.912 14.693 0 28.563-3.583 40.789-9.915.061.001 126.082.009 126.082.009-.665 4.514-2.009 8.993-4.087 13.277-3.33 6.865-5.548 14.118-6.648 21.612h-27.089c-4.391 0-8.43 1.5-11.665 3.994-3.235-2.493-7.274-3.994-11.665-3.994h-39.801c-4.391 0-8.429 1.5-11.665 3.994-3.235-2.493-7.274-3.994-11.665-3.994h-39.801c-4.392 0-8.43 1.5-11.666 3.994-3.235-2.494-7.274-3.994-11.666-3.994h-39.801c-4.391 0-8.429 1.5-11.665 3.994-3.235-2.493-7.274-3.994-11.665-3.994h-39.801c-1.431 0-2.822.17-4.165.469v-31.887c0-1.915 1.557-3.472 3.47-3.472zm20.596 98.019c-13.27 0-24.065-10.796-24.065-24.065v-19.9c0-2.296 1.868-4.165 4.165-4.165h39.801c2.296 0 4.165 1.869 4.165 4.165v19.9c-.001 13.269-10.797 24.065-24.066 24.065zm87.195-24.065c0 13.27-10.796 24.065-24.065 24.065s-24.065-10.796-24.065-24.065v-19.9c0-2.296 1.868-4.165 4.165-4.165h39.801c2.296 0 4.165 1.869 4.165 4.165v19.9zm39.068 24.065c-13.27 0-24.065-10.796-24.065-24.065 0-.013-.002-.026-.002-.039v-19.823c0-.013.002-.026.002-.039 0-2.296 1.869-4.165 4.165-4.165h39.801c2.296 0 4.165 1.869 4.165 4.165v19.9c-.001 13.27-10.797 24.066-24.066 24.066zm63.13 0c-13.27 0-24.065-10.796-24.065-24.065v-19.9c0-2.296 1.868-4.165 4.165-4.165h39.801c2.296 0 4.165 1.869 4.165 4.165v19.9c0 13.269-10.796 24.065-24.066 24.065zm87.197-43.966v19.9c0 13.27-10.796 24.065-24.065 24.065s-24.065-10.796-24.065-24.065v-19.9c0-2.296 1.869-4.165 4.165-4.165h39.801c2.295 0 4.164 1.869 4.164 4.165zm-85.046-117.993c47.836-14.316 82.101-41.028 102.421-60.916 22.078-21.608 32.786-39.758 33.231-40.52 2.089-3.577.882-8.17-2.694-10.259-3.577-2.088-8.169-.883-10.259 2.694-.393.672-39.392 66.09-121.696 92.962-.05-5.01-.511-9.924-1.361-14.705 13.777-8.031 33.627-20.912 54.059-38.622 3.13-2.713 3.468-7.45.755-10.58-2.713-3.129-7.449-3.467-10.58-.755-17.909 15.524-35.349 27.17-48.297 34.933-1.129-3.07-2.428-6.059-3.877-8.961 5.283-14.384 15.359-35.325 33.726-55.157 14.671-15.841 22.403-34.999 26.303-52.963.994-1.843 2.139-3.96 3.105-5.812 1.577-3.023 4.254-5.21 7.539-6.157 3.307-.953 6.764-.523 9.736 1.211l9.036 5.272c8.642 5.042 15.025 13.01 18.081 22.504-8.204 13.972-18.227 27.511-30.041 40.497-2.788 3.064-2.563 7.808.501 10.595 3.063 2.787 7.807 2.563 10.595-.501 23.664-26.013 40.682-54.211 50.583-83.812.315-.942 1.03-1.344 1.429-1.5.402-.158 1.208-.349 2.091.133l23.612 12.93c10.678 5.847 16.25 18.249 13.552 30.159-6.613 29.185-24.004 82.734-66.186 113.849-13.724 1.252-28.703 6.516-44.494 15.899-4.97 2.953-8.058 8.391-8.058 14.192 0 5.488 2.744 10.621 7.339 13.731 9.984 6.759 16.372 17.209 18.476 28.598h-104.917c13.355-12.859 23.001-29.905 26.29-48.939zm235.316 2.731c-7.027 12.709-20.763 31.067-46.582 47.708-4.138-3.212-8.651-6.021-13.493-8.357-.847-12.181-4.797-24.022-11.775-35.271-3.987-6.427-8.507-11.841-13.493-16.253 20.605-4.626 45.13-14.767 66.71-36.3.715-.713 1.544-.758 1.976-.718.427.038 1.229.224 1.8 1.043l13.37 19.16c6.027 8.637 6.597 19.745 1.487 28.988z"/><path d="m146.642 273.617c25.73 0 46.664-20.933 46.664-46.664s-20.933-46.664-46.664-46.664-46.664 20.934-46.664 46.664 20.933 46.664 46.664 46.664zm0-78.328c17.459 0 31.664 14.205 31.664 31.664s-14.204 31.664-31.664 31.664-31.664-14.204-31.664-31.664 14.204-31.664 31.664-31.664z"/><path d="m146.642 248.264c11.751 0 21.312-9.56 21.312-21.311s-9.561-21.312-21.312-21.312-21.312 9.561-21.312 21.312 9.561 21.311 21.312 21.311zm0-27.622c3.48 0 6.312 2.832 6.312 6.312s-2.832 6.311-6.312 6.311-6.312-2.831-6.312-6.311 2.832-6.312 6.312-6.312z"/></g></g></g></g></g></svg>