<?xml version="1.0" encoding="iso-8859-1"?>
<!-- Generator: Adobe Illustrator 19.0.0, SVG Export Plug-In . SVG Version: 6.00 Build 0)  -->
<svg version="1.1" id="Capa_1" xmlns="http://www.w3.org/2000/svg" xmlns:xlink="http://www.w3.org/1999/xlink" x="0px" y="0px"
	 viewBox="0 0 512 512" style="enable-background:new 0 0 512 512;" xml:space="preserve">
<g>
	<g>
		<path d="M220.21,239.783c-8.991-7.734-24.763-7.734-33.754,0c-3.14,2.701-3.496,7.437-0.795,10.576
			c2.702,3.14,7.436,3.495,10.577,0.795c3.381-2.908,10.534-2.555,14.189,0c4.496,3.142,9.094,0.93,10.577-0.795
			C223.707,247.22,223.351,242.484,220.21,239.783z"/>
	</g>
</g>
<g>
	<g>
		<path d="M325.545,239.783c-8.991-7.734-24.763-7.734-33.754,0c-3.14,2.701-3.496,7.437-0.795,10.576
			c2.702,3.14,7.436,3.495,10.577,0.795c3.381-2.908,10.665-2.733,14.189,0c4.75,3.683,9.094,0.93,10.577-0.795
			C329.042,247.22,328.686,242.484,325.545,239.783z"/>
	</g>
</g>
<g>
	<g>
		<path d="M460.141,146.832c0.002-0.006,0.003-0.012,0.005-0.017c2.293-8.701,0.466-17.77-5.014-24.882
			c-5.453-7.076-13.706-11.135-22.645-11.135h-64.782c-5.47-18.757-12.218-35.47-20.098-49.737
			c-2.002-3.626-6.564-4.942-10.191-2.939c-3.625,2.003-4.941,6.566-2.938,10.191c6.761,12.241,12.653,26.503,17.571,42.485h-192.1
			C174.017,65.087,201.805,15,256.001,15c22.98,0,43.019,8.984,59.559,26.704c2.826,3.027,7.572,3.191,10.6,0.364
			c3.028-2.826,3.191-7.572,0.365-10.601C307.034,10.588,283.306,0,256.001,0c-52.05,0-90.597,38.284-111.707,110.798H79.515
			c-8.938,0-17.192,4.059-22.645,11.135c-5.48,7.112-7.307,16.181-5.013,24.883c0.001,0.005,0.003,0.011,0.005,0.016
			c-5.472,4.204-9.009,10.808-9.009,18.226c0,12.669,10.307,22.976,22.976,22.976c2.015,0,3.969-0.263,5.833-0.752
			c2.104,2.602,4.442,4.975,6.673,7.373c4.042,4.345,9.138,1.404,10.606-0.089c2.904-2.953,2.865-7.701-0.088-10.606
			c-1.622-1.595-3.183-3.304-4.678-5.087c2.905-3.848,6.105-9.959,4.391-17.106h8.861c-0.155,1.075-0.239,2.173-0.239,3.291
			c0,12.669,10.307,22.976,22.976,22.976s22.976-10.307,22.976-22.976c0-1.118-0.084-2.216-0.239-3.291h8.861
			c-0.155,1.075-0.239,2.173-0.239,3.291c0,12.669,10.307,22.976,22.976,22.976c12.669,0,22.976-10.307,22.976-22.976
			c0-1.118-0.084-2.216-0.239-3.291h8.861c-0.155,1.075-0.239,2.173-0.239,3.291c0,12.669,10.307,22.976,22.976,22.976
			s22.976-10.307,22.976-22.976c0-1.118-0.084-2.216-0.239-3.291h8.861c-0.155,1.075-0.239,2.173-0.239,3.291
			c0,12.669,10.307,22.976,22.976,22.976s22.976-10.307,22.976-22.976c0-1.118-0.084-2.216-0.239-3.291h8.861
			c-0.155,1.075-0.239,2.173-0.239,3.291c0,12.669,10.307,22.976,22.976,22.976s22.976-10.307,22.976-22.976
			c0-1.118-0.084-2.216-0.239-3.291h8.861c-0.155,1.075-0.239,2.173-0.239,3.291c0,12.669,10.307,22.976,22.976,22.976
			s22.976-10.307,22.976-22.976c0-1.118-0.084-2.216-0.239-3.291h8.861c-0.155,1.075-0.239,2.173-0.239,3.291
			c0,5.183,1.727,9.969,4.632,13.817c-14.691,17.515-36.024,26.394-63.515,26.394H147.688c-12.777,0-24.352-1.936-34.402-5.752
			c-3.871-1.472-8.204,0.477-9.674,4.35c-1.471,3.872,0.476,8.203,4.349,9.674c3.608,1.37,7.384,2.507,11.284,3.461
			c0.589,6.867,1.823,13.657,3.692,20.324c-9.432,6.968-15.108,17.99-15.108,29.965c0,20.563,19.053,41.575,44.496,36.592
			c5.685,11.105,12.143,21.256,19.26,30.209c0.153,3.175,0.634,11.598,9.691,14.38c-7.801,3.843-15.532,8.992-23.109,15.413
			c-2.262,1.917-3.967,4.286-5.042,6.916l-21.429,10.925c-17.151,8.743-30.819,23.285-38.486,40.947
			c-1.649,3.8,0.094,8.217,3.894,9.866c0.973,0.422,7.236,2.061,9.866-3.894c6.376-14.433,17.483-26.392,31.539-33.557l15.879-8.095
			c1.472,2.461,3.52,4.578,6.012,6.125c2.69,1.669,5.821,3.621,9.367,5.838c3.011,26.595,9.433,63.265,23.133,98.045h-78.438
			c-4.485,0-8.618-1.826-11.638-5.143c-3.02-3.315-4.452-7.601-4.034-12.066l2.25-23.999c0.387-4.124-2.643-7.781-6.767-8.167
			c-4.126-0.382-7.781,2.643-8.167,6.767l-2.25,23.999c-0.806,8.595,2.066,17.185,7.877,23.566
			C97.545,508.34,105.83,512,114.462,512H397.54c8.632,0,16.917-3.66,22.728-10.043c5.812-6.382,8.684-14.972,7.878-23.566
			l-2.85-30.395c-2.672-28.498-19.491-53.272-44.99-66.271l-21.435-10.928c-1.075-2.629-2.779-4.996-5.041-6.913
			c-7.562-6.408-15.291-11.552-23.095-15.398c9.526-3.074,9.527-11.216,9.68-14.387c15.402-19.375,27.747-44.426,35.793-72.575
			c2.987-2.036,5.425-4.853,7.051-8.251c3.165,3.9,4.948,8.795,4.948,14.017c0,7.799-3.97,14.901-10.621,18.998
			c-3.527,2.173-4.625,6.793-2.452,10.319c1.417,2.301,4.452,5.771,10.319,2.452c11.365-6.428,17.753-18.725,17.753-31.77
			c0-11.647-5.282-22.329-14.309-29.364c1.959-6.839,3.244-13.81,3.853-20.86c19.491-4.727,35.424-14.685,47.593-29.784
			c1.862,0.489,3.815,0.751,5.828,0.751c12.669,0,22.976-10.307,22.976-22.976C469.149,157.64,465.613,151.036,460.141,146.832z
			 M122.829,267.29c-0.326-5.532,2.039-10.74,5.572-14.742c0.023,0.052,2.086,6.763,7.395,8.978
			c2.787,9.756,6.083,19.138,9.851,28.036C145.472,289.567,124.109,288.982,122.829,267.29z M152.159,247.907
			c-1.885,2.356-4.381,2.314-5.366,2.187c-0.981-0.127-3.395-0.72-4.61-3.464c-2.778-6.274-6.099-15.665-7.57-27.025
			c4.24,0.424,33.963,0.664,33.963,0.664C165.745,227.173,160.683,237.245,152.159,247.907z M191.504,394.881
			c-9.625-6.049-17.56-10.693-23.195-14.508c-2.732-1.851-1.466-4.18-0.444-5.046c9.454-8.011,19.035-13.695,28.532-16.945
			c9.377,6.937,19.326,12.076,29.795,15.4l8.653,10.224C205.86,386.127,193.162,393.593,191.504,394.881z M256.001,312.975
			c12.894,0,23.383-10.489,23.383-23.383v-7.851c3.618,0.262,7.136,1.424,10.212,3.452c5.743,3.786,16.763,14.629,25.263,26.222
			c11.144,15.198,11.039,21.922,10.4,22.89c-0.638,0.97-6.776,3.718-25.137-0.531c-14.005-3.24-28.314-9.093-34.056-12.877
			c-1.63-1.075-3.11-2.374-4.398-3.859c-1.424-1.644-3.492-2.587-5.667-2.587c-2.175,0-4.243,0.944-5.667,2.588
			c-1.287,1.484-2.766,2.782-4.396,3.857c-5.744,3.785-20.053,9.638-34.058,12.878c-18.363,4.249-24.499,1.502-25.137,0.531
			c-0.639-0.968-0.744-7.691,10.4-22.89c8.5-11.593,19.52-22.436,25.264-26.222c3.1-2.044,6.603-3.205,10.211-3.461v7.86
			C232.618,302.486,243.107,312.975,256.001,312.975z M247.618,289.593v-16.42c0-4.622,3.761-8.383,8.383-8.383
			c4.622,0,8.383,3.761,8.383,8.383v16.42c0,4.622-3.761,8.383-8.383,8.383C251.379,297.976,247.618,294.215,247.618,289.593z
			 M267.688,399.981c9.505-2.43,24.287-0.399,42.227,5.979c1.594,0.567,2.4,1.689,2.795,2.531c0.604,1.287,0.656,2.761,0.147,4.149
			c-1.838,5.017-2.253,9.645-2.619,13.729c-0.579,6.457-1.036,11.558-6.913,18.072c-5.876,6.515-10.903,7.494-17.266,8.733
			c-4.024,0.784-8.586,1.672-13.386,4.017c-1.331,0.647-2.801,0.747-4.144,0.279c-0.878-0.307-2.078-0.993-2.805-2.521
			c-0.541-1.134-1.064-2.27-1.572-3.402C271.141,434.181,275.542,414.185,267.688,399.981z M256.001,363.331
			c-16.549,0-31.978-4.656-46.073-13.837c27.456-4.637,45.484-16.905,46.073-17.347c0.589,0.442,23.671,15.797,46.08,17.361
			C287.983,358.691,272.544,363.331,256.001,363.331z M255.999,385.783l-6.483-7.661c2.145,0.135,10.833,0.116,12.984-0.02
			L255.999,385.783z M246.277,454.951c-0.728,1.527-1.927,2.214-2.805,2.521c-1.342,0.468-2.814,0.368-4.143-0.279
			c-4.801-2.345-9.362-3.232-13.387-4.017c-6.363-1.239-11.39-2.219-17.267-8.733c-5.876-6.515-6.333-11.615-6.913-18.072
			c-0.366-4.084-0.781-8.712-2.619-13.729c-0.509-1.389-0.457-2.862,0.147-4.149c0.396-0.842,1.201-1.964,2.795-2.531
			c13.108-4.662,24.429-7.002,33.274-7.002c7.982-0.002,13.948,1.902,17.394,5.723C260.02,412.739,257.659,431.061,246.277,454.951z
			 M302.901,496.999H209.1c-6.537-15.535-11.492-31.663-15.248-47.171c1.055,1.527,9.28,13.971,29.222,18.07
			c3.559,0.732,6.647,1.294,9.673,2.771c2.859,1.396,5.922,2.101,8.991,2.101c2.249,0,4.501-0.378,6.679-1.139
			c2.914-1.018,5.479-2.674,7.583-4.809c2.104,2.134,4.669,3.791,7.583,4.809c2.178,0.761,4.43,1.139,6.679,1.139
			c3.069,0,6.132-0.704,8.992-2.101c3.025-1.478,6.109-2.06,9.672-2.771c17.979-3.588,28.167-16.543,29.223-18.071
			C314.393,465.335,309.438,481.463,302.901,496.999z M357.611,386.991l15.882,8.097c20.897,10.653,34.679,30.955,36.869,54.308
			l2.85,30.395c0.418,4.466-1.014,8.751-4.034,12.066c-3.02,3.316-7.153,5.143-11.638,5.143h-78.438
			c13.7-34.781,20.122-71.452,23.133-98.047c3.545-2.217,6.675-4.168,9.365-5.837C354.092,391.569,356.139,389.453,357.611,386.991z
			 M344.133,375.326c1.022,0.867,2.97,2.982-0.443,5.045c-5.824,3.522-13.569,8.46-23.194,14.508
			c-1.657-1.287-16.145-9.673-43.357-10.857l8.694-10.273c10.448-3.322,20.38-8.455,29.744-15.377
			C325.095,361.632,334.69,367.325,344.133,375.326z M335.299,315.73c-2.129-4.094-4.897-8.485-8.343-13.184
			c-8.791-11.989-21.032-24.554-29.104-29.875c-5.803-3.826-12.53-5.874-19.391-5.989c-2.821-9.744-11.818-16.891-22.459-16.891
			c-10.638,0-19.633,7.143-22.456,16.882c-6.85,0.104-13.541,2.141-19.393,5.999c-8.073,5.321-20.314,17.886-29.105,29.875
			c-3.446,4.7-6.215,9.091-8.344,13.185c-9.919-14.589-18.188-31.948-24.326-51.143c4.463-1.053,8.507-3.575,11.497-7.314
			c12.165-15.214,18.134-29.366,20.739-37.005H327.39c2.605,7.639,8.575,21.791,20.739,37.005c2.989,3.738,7.029,6.258,11.488,7.312
			C353.477,283.776,345.209,301.15,335.299,315.73z M369.819,246.629c-1.215,2.744-3.629,3.337-4.61,3.464
			c-0.987,0.128-3.481,0.17-5.365-2.187c-8.525-10.661-13.587-20.734-16.418-27.638c0,0,29.739-0.212,33.959-0.627
			C375.911,230.983,372.594,240.362,369.819,246.629z M65.829,173.034c-4.398,0-7.976-3.579-7.976-7.976
			c0-4.398,3.578-7.977,7.976-7.977s7.976,3.578,7.976,7.977C73.805,169.455,70.227,173.034,65.829,173.034z M120.164,173.033
			c-4.398,0-7.976-3.578-7.976-7.976s3.578-7.977,7.976-7.977c4.398,0,7.976,3.578,7.976,7.977
			C128.14,169.455,124.562,173.033,120.164,173.033z M174.499,173.033c-4.398,0-7.976-3.578-7.976-7.976s3.578-7.977,7.976-7.977
			c4.398,0,7.976,3.578,7.976,7.977C182.475,169.455,178.897,173.033,174.499,173.033z M228.834,173.033
			c-4.398,0-7.976-3.578-7.976-7.976s3.578-7.977,7.976-7.977s7.976,3.578,7.976,7.977
			C236.81,169.455,233.231,173.033,228.834,173.033z M283.168,173.033c-4.398,0-7.976-3.578-7.976-7.976s3.578-7.977,7.976-7.977
			s7.976,3.578,7.976,7.977C291.145,169.455,287.566,173.033,283.168,173.033z M337.503,173.033c-4.398,0-7.976-3.578-7.976-7.976
			s3.578-7.977,7.976-7.977s7.976,3.578,7.976,7.977C345.48,169.455,341.901,173.033,337.503,173.033z M391.838,173.033
			c-4.398,0-7.976-3.578-7.976-7.976s3.578-7.977,7.976-7.977s7.976,3.578,7.976,7.977
			C399.814,169.455,396.236,173.033,391.838,173.033z M432.29,146.767h-26.566c-3.86-2.937-8.671-4.686-13.884-4.686
			s-10.024,1.748-13.884,4.686H351.39c-3.86-2.937-8.671-4.686-13.884-4.686s-10.024,1.748-13.884,4.686h-26.566
			c-3.86-2.937-8.671-4.686-13.884-4.686s-10.024,1.748-13.884,4.686h-26.566c-3.86-2.937-8.671-4.686-13.884-4.686
			s-10.024,1.748-13.884,4.686h-26.566c-3.86-2.937-8.671-4.686-13.884-4.686c-5.213,0-10.024,1.748-13.884,4.686h-26.566
			c-3.86-2.937-8.671-4.686-13.884-4.686s-10.024,1.748-13.884,4.686H79.713c-3.773-2.871-8.457-4.6-13.535-4.677
			c-0.759-3.885,0.144-7.848,2.574-11.002c2.59-3.361,6.513-5.29,10.763-5.29h352.973c4.25,0,8.172,1.929,10.763,5.29
			c2.43,3.154,3.333,7.118,2.575,11.002C440.747,142.166,436.064,143.895,432.29,146.767z M446.173,173.033
			c-4.398,0-7.976-3.578-7.976-7.976s3.578-7.977,7.976-7.977s7.976,3.578,7.976,7.977
			C454.149,169.455,450.571,173.033,446.173,173.033z"/>
	</g>
</g>
<g>
</g>
<g>
</g>
<g>
</g>
<g>
</g>
<g>
</g>
<g>
</g>
<g>
</g>
<g>
</g>
<g>
</g>
<g>
</g>
<g>
</g>
<g>
</g>
<g>
</g>
<g>
</g>
<g>
</g>
</svg>
