<svg id="Capa_1" enable-background="new 0 0 510 510" height="512" viewBox="0 0 510 510" width="512" xmlns="http://www.w3.org/2000/svg"><g><path d="m510 225.032c0-24.813-20.186-45-45-45h-1.627c-2.378-10.808-7.081-22.166-13.36-31.924-10.597-16.465-24.381-26.327-38.814-27.771-2.67-.267-5.333-.355-7.978-.277-6.668-25.863-30.192-45.027-58.109-45.027-27.908 0-51.428 19.152-58.103 45.028-2.643-.084-5.311.009-7.983.276-14.434 1.444-28.219 11.307-38.815 27.771-6.279 9.758-10.982 21.116-13.359 31.924h-8.142l-85.588-142.978-.361-.574c-13.749-20.774-40.655-27.532-62.59-15.724-21.935 11.809-31.103 37.996-21.327 60.91l47.321 98.366h-51.165c-24.814 0-45 20.187-45 45 0 19.684 12.708 36.443 30.347 42.537 2.412 44.631 17.705 86.655 44.653 122.481v104.982h87.297l9.2-46.003c52.366 21.021 112.958 21.695 167.006 0l9.2 46.003h87.297v-104.982c26.948-35.826 42.241-77.85 44.653-122.48 17.639-6.094 30.347-22.854 30.347-42.538zm-227.989-74.843c3.93-.396 7.811-.04 11.528 1.048 5.063 1.483 10.608.482 14.828-2.681 4.227-3.168 6.748-8.219 6.744-13.523 0-16.542 13.458-30 30-30s30 13.458 30 30.015c-.004 5.291 2.517 10.341 6.744 13.509 4.219 3.162 9.762 4.167 14.824 2.682 3.72-1.09 7.598-1.446 11.532-1.049 8.535.854 19.189 14.955 24.143 29.844h-174.487c4.952-14.89 15.608-28.992 24.144-29.845zm-205.685-80.563c-3.465-8.483-.031-18.096 8.067-22.456 8.099-4.36 18.013-1.938 23.188 5.626l76.163 127.236h-54.29zm368.502 230.406h-379.656c-2.301-9.796-3.851-19.813-4.613-30h388.883c-.763 10.187-2.313 20.204-4.614 30zm-36.607 75.625-3.221 4.085v85.29h-32.703l-11.941-59.71c-11.146 4.445-46.371 29.71-105.355 29.71-58.99 0-94.238-25.276-105.356-29.71l-11.941 59.71h-32.704v-85.29c-1.944-2.791-17.951-20.571-30.12-49.71h360.24c-6.755 16.175-15.753 31.487-26.899 45.625zm56.779-135.625h-420c-8.272 0-15-6.729-15-15s6.728-15 15-15h420c8.272 0 15 6.729 15 15 0 8.272-6.728 15-15 15z"/></g></svg>