<svg id="Capa_1" enable-background="new 0 0 510 510" height="512" viewBox="0 0 510 510" width="512" xmlns="http://www.w3.org/2000/svg"><g id="XMLID_3367_"><path id="XMLID_3383_" d="m1.416 481.443 20.156 4.814c4.06.97 100.379 23.743 183.151 23.743 82.479 0 179.068-22.772 183.141-23.741l20.173-4.803-203.314-330.056zm153.913-59.624-21.213-21.213 21.213-21.213 21.213 21.213zm111.213-21.213-21.213 21.213-21.213-21.213 21.213-21.213zm-40.606-75-21.213 21.213-21.213-21.213 21.213-21.213z"/><path id="XMLID_3391_" d="m508.584 24.112-20.154-4.814c-3.301-.787-81.591-19.298-148.93-19.298-67.101 0-145.609 18.509-148.918 19.297l-20.174 4.803 169.092 274.5zm-128.811 40.282 21.213 21.213-21.213 21.214-21.213-21.214zm-102.092 21.213 21.213-21.214 21.213 21.213-21.213 21.214zm61.819 32.573 21.213 21.214-21.213 21.212-21.213-21.213z"/></g></svg>