<svg id="Capa_1" enable-background="new 0 0 512.081 512.081" height="512" viewBox="0 0 512.081 512.081" width="512" xmlns="http://www.w3.org/2000/svg"><g><path d="m76.04 512.081c19.53 0 36.024-13.578 42.237-31h74.745c40.4 19.508 85.23 31 130.093 31h112.925c24.814 0 45-21.186 45-46s-20.186-45-45-45h-112.925c-44.863 0-89.692 10.492-130.093 30h-74.745c-6.213-17.422-22.707-30-42.237-30-24.814 0-45 20.186-45 45s20.186 46 45 46z"/><path d="m103.81 347.32c.52 10.781 4.521 21.454 12.733 29.68 17.567 17.567 46.099 17.549 63.647 0 5.859-5.859 5.859-15.352 0-21.211s-15.352-5.859-21.211 0c-5.845 5.845-15.366 5.874-21.211 0-5.306-5.294-5.552-13.48-1.254-19.341l57.556-22.137c-24.529-12.808-44.451-32.732-57.259-57.261l-22.136 57.552c-5.869 4.288-14.035 4.047-19.343-1.234-5.845-5.859-5.845-15.366 0-21.226 5.859-5.859 5.859-15.352 0-21.211s-15.352-5.859-21.211 0c-17.549 17.549-17.549 46.099 0 63.662 8.224 8.208 18.906 12.211 29.689 12.727z"/><path d="m353.101 355.789c-5.859-5.859-15.352-5.859-21.211 0s-5.859 15.352 0 21.211c17.529 17.529 46.084 17.549 63.662 0 8.205-8.227 12.206-18.902 12.722-29.683 10.789-.518 21.465-4.519 29.685-12.739 17.549-17.549 17.549-46.099 0-63.647-5.859-5.859-15.352-5.859-21.211 0s-5.859 15.352 0 21.211c5.845 5.859 5.845 15.366 0 21.211-5.306 5.306-13.491 5.539-19.341 1.254l-22.137-57.556c-12.808 24.529-32.73 44.451-57.259 57.259l57.556 22.137c4.296 5.861 4.054 14.048-1.24 19.341-5.845 5.845-15.352 5.875-21.226.001z"/><path d="m318.01 75.851c24.529 12.808 44.451 32.732 57.259 57.261l22.136-57.552c5.869-4.288 14.035-4.047 19.343 1.234 5.845 5.859 5.845 15.366 0 21.226-5.859 5.859-5.859 15.352 0 21.211s15.352 5.859 21.211 0c17.549-17.549 17.549-46.099 0-63.662-8.225-8.203-18.904-12.204-29.687-12.726-.52-10.781-4.523-21.456-12.735-29.681-17.563-17.563-46.113-17.534-63.647 0-5.859 5.859-5.859 15.352 0 21.211s15.352 5.859 21.211 0c5.845-5.845 15.366-5.874 21.211 0 5.306 5.294 5.552 13.48 1.254 19.341z"/><path d="m95.332 119.231c5.859-5.859 5.859-15.352 0-21.211-5.845-5.859-5.845-15.366 0-21.211 5.306-5.306 13.491-5.539 19.341-1.254l22.137 57.556c12.808-24.529 32.73-44.451 57.259-57.259l-57.556-22.137c-4.297-5.861-4.054-14.048 1.24-19.341 5.845-5.845 15.352-5.874 21.226 0 5.859 5.859 15.352 5.859 21.211 0s5.859-15.352 0-21.211c-17.549-17.549-46.084-17.549-63.662 0-8.203 8.223-12.2 18.895-12.72 29.674-10.79.518-21.471 4.525-29.687 12.748-17.549 17.549-17.549 46.099 0 63.647 5.86 5.858 15.352 5.858 21.211-.001z"/><path d="m271.04 61.597v-46.516c0-8.291-6.709-15-15-15s-15 6.709-15 15v46.516c4.99-.562 9.864-1.516 15-1.516s10.011.954 15 1.516z"/><circle cx="256.04" cy="195.081" r="15"/><path d="m256.04 90.081c-57.891 0-105 47.109-105 105s47.109 105 105 105 105-47.109 105-105-47.109-105-105-105zm0 150c-24.814 0-45-20.186-45-45s20.186-45 45-45 45 20.186 45 45-20.185 45-45 45z"/></g></svg>