<svg id="Layer_1" enable-background="new 0 0 511.979 511.979" height="512" viewBox="0 0 511.979 511.979" width="512" xmlns="http://www.w3.org/2000/svg"><g><path d="m491.345 102.633c-50.852-31.782-48.082-30.654-51.342-30.654h-10.234l-19.782-59.347c-5.924-17.771-31.557-16.459-35.622 1.838l-1.506 6.778-2.872-8.617c-5.924-17.771-31.557-16.459-35.622 1.838-.407 1.831-14.051 63.218-14.189 63.873-.146.7.838-9.363-15.448 161.635h-127.172c-16.752 0-32.55 5.259-45.681 14.982-21.781-34.053-59.7-54.982-100.37-54.982h-7.502c-13.234 0-24 10.766-24 24s10.766 24 24 24c24.502 0 47.413 12.114 61.286 32h-13.286c-39.701 0-72 32.299-72 72 0 6.403 2.491 12.429 7.033 16.986 15.192 15.14 40.967 4.217 40.967-16.986 0-13.271 10.728-24 24-24h28.986c21.612 345.849-.014-.228 11.029 176.499.263 4.216 3.76 7.501 7.984 7.501h64c3.813 0 7.097-2.691 7.845-6.431l14.178-70.891c6.766-4.741 16.216-4.126 22.32 1.978l4 4c13.044 13.045 34.27 13.045 47.313 0 4.27-4.27 6.927-7.636 13.055-8.801 5.424-1.044 11.341.509 15.632 4.801l4 4c7.415 7.415 18.001 11.054 28.709 9.416l11.103 55.497c.748 3.739 4.032 6.431 7.845 6.431h64c4.263 0 7.777-3.343 7.99-7.601 20.48-409.602-4.192 83.832 15.704-314.077l31.012-7.753c37.622-9.403 45.409-59.43 12.637-79.913zm-101.36-84.692c.551-2.476 4.021-2.656 4.824-.249l18.096 54.287h-23.135l-7.076-21.228zm-40 0c.551-2.476 4.021-2.656 4.824-.249l18.096 54.287h-34.928zm-34.014 236.976c1.316-.753-.023.43 21.689-21.281 5.703-5.703 14.983-5.703 20.687 0l4 4c11.941 11.941 31.372 11.942 43.313 0l8-8c4.357-4.357 10.815-5.43 16.203-3.058l-3.885 77.698c-6.795 4.74-16.274 4.09-22.318-1.954l-4-4c-13.044-13.045-34.27-13.045-47.313 0-4.419 4.419-8.079 9.112-16.343 9.112-8.27 0-12.162-4.93-16.343-9.112-13.044-13.045-34.27-13.045-47.313 0l-4 4c-6.807 6.806-17.88 6.806-24.687 0l-4-4c-13.074-13.074-34.238-13.075-47.313 0-4.411 4.411-8.116 9.117-16.343 9.117-4.66 0-9.043-1.817-12.343-5.117-12.422-12.422-31.857-12.886-44.822-2.256 7.164-24.851 30.229-44.087 58.719-44.087 145.934 0 135.732.473 138.412-1.062zm106.768 114.152c-6.411 2.705-13.974 1.357-19.079-3.746l-4-4c-13.074-13.074-34.238-13.075-47.313 0l-4 4c-6.807 6.806-17.88 6.806-24.687 0l-4-4c-13.044-13.045-34.27-13.045-47.313 0l-4 4c-6.807 6.806-17.88 6.806-24.687 0l-4-4c-13.044-13.045-34.27-13.045-47.313 0-4.411 4.411-8.116 9.117-16.343 9.117-4.66 0-9.043-1.817-12.343-5.117-12.133-12.134-31.343-12.974-44.464-2.534l-2.393-38.295 10.857-10.857c6.821-6.821 17.865-6.821 24.687 0 13.079 13.08 34.232 13.082 47.313 0 4.419-4.419 8.079-9.112 16.343-9.112 8.27 0 12.162 4.93 16.343 9.112 13.044 13.045 34.27 13.045 47.313 0l4-4c6.821-6.821 17.865-6.821 24.687 0l4 4c13.044 13.045 34.27 13.045 47.313 0 4.419-4.419 8.079-9.112 16.343-9.112 8.27 0 12.162 4.93 16.343 9.112 8.815 8.816 21.456 11.659 32.738 8.51zm-398.736-137.09c-4.411 0-8-3.589-8-8s3.589-8 8-8h7.502c36.146 0 69.785 19.096 88.37 49.978-5.263 5.926-9.509 12.486-12.673 19.495l-4.438-7.767c-16.11-28.192-46.289-45.706-78.761-45.706zm8 120c0 2.14-.833 4.154-2.328 5.653-5.066 5.05-13.672 1.444-13.672-5.653 0-30.878 25.122-56 56-56h22.786c2.149 3.761 3.139 6.469 6.833 7.622-.481 2.758-.81 5.553-.989 8.378h-28.63c-22.113 0-40 17.884-40 40zm145.441 144h-49.926l-3.247-51.955 3.388-3.388c6.821-6.821 17.865-6.821 24.687 0 9.469 9.47 22.987 11.97 34.571 7.982zm146.216-66.657c-5.499-5.499-10.493-11.137-21.346-13.199-10.73-2.064-21.978 1.209-29.968 9.199l-4 4c-6.807 6.806-17.88 6.806-24.687 0-5.499-5.499-10.493-11.137-21.346-13.199-11.092-2.133-22.307 1.662-29.211 8.482-.637.588-.067.028-4.756 4.717-6.828 6.827-17.858 6.827-24.687 0-10.997-10.998-27.808-12.723-40.63-5.177l-2.522-40.357 7.152-7.152c6.821-6.821 17.865-6.821 24.687 0 13.079 13.08 34.231 13.082 47.313 0l4-4c6.807-6.806 17.88-6.806 24.687 0l4 4c13.044 13.045 34.27 13.045 47.313 0l4-4c6.807-6.806 17.88-6.806 24.687 0l4 4c13.044 13.045 34.27 13.045 47.313 0l4-4c6.821-6.821 17.865-6.821 24.687 0l4 4c7.964 7.963 19.061 11.166 29.55 9.285l-2.408 48.159c-5.645 1.15-11.617-.546-15.828-4.757-5.545-5.545-12.778-13.798-27.657-13.798-8.937 0-17.338 3.48-23.657 9.798l-4 4c-6.771 6.771-17.821 6.863-24.686-.001zm42.901 66.657-10.459-52.281c6.748-5.085 9.635-12.174 19.901-12.174 8.27 0 12.162 4.93 16.343 9.112 7.079 7.08 16.756 10.447 26.33 9.683l-2.283 45.66zm108.267-328.953-36.766 9.191c-3.417.854-5.874 3.844-6.05 7.362l-1.325 26.495c-9.936-2.223-20.69.596-28.342 8.247l-8 8c-5.703 5.703-14.983 5.703-20.687 0-5.302-5.302-11.977-12.973-25.657-12.973-8.179 0-15.871 3.187-21.657 8.973l-4.27 4.27 13.201-138.614h102.431l45.156 28.223c20.839 13.024 15.901 44.843-8.034 50.826z"/><path d="m400.003 111.979c-8.822 0-16 7.178-16 16 0 4.418 3.582 7.995 8 7.995 4.428 0 8-3.601 8-7.995 0 4.418 3.582 8 8 8s8-3.582 8-8c0-8.822-7.178-16-16-16z"/></g></svg>