<?xml version="1.0" encoding="UTF-8"?>
<svg xmlns="http://www.w3.org/2000/svg" id="Outline" viewBox="0 0 512 512" width="512" height="512"><path d="M495.891,486.685l-16-96A8,8,0,0,0,472,384h-9.754L423.761,230.06A8,8,0,0,0,416,224H383.062l-6-48H384a8,8,0,0,0,8-8V136a8,8,0,0,0-8-8h-8V96h8a8,8,0,0,0,8-8V56a8,8,0,0,0-8-8h-8V24a8,8,0,0,0-8-8H144a8,8,0,0,0-8,8V48h-8a8,8,0,0,0-8,8V88a8,8,0,0,0,8,8h8v32h-8a8,8,0,0,0-8,8v32a8,8,0,0,0,8,8h6.938l-6,48H96a8,8,0,0,0-7.761,6.06L49.754,384H40a8,8,0,0,0-7.891,6.685l-16,96A8,8,0,0,0,24,496H488a8,8,0,0,0,7.891-9.315ZM445.754,384H350.559l-28.8-144h88Zm-287.2,16-13.333,80H129.444l13.333-80ZM264,96v16H248V96Zm40,32v96H288V168a8,8,0,0,0-8-8H232a8,8,0,0,0-8,8v56H208V128Zm16,16h56v16H320ZM169.444,432H342.556l2.667,16H166.777ZM339.89,416H172.11l2.667-16H337.223ZM283.042,288H228.958l3.2-16h47.684ZM272,224H240V176h32Zm1.441,16,3.2,16H235.359l3.2-16Zm-47.683,64h60.484l3.2,16H222.559Zm-6.4,32h73.282l3.2,16H216.158Zm-6.4,32h86.084l3.2,16H209.758Zm105.6,16-28.8-144h15.683l28.8,144ZM222.242,240l-28.8,144H177.758l28.8-144ZM164.11,464H347.89l2.666,16H161.444Zm189.334-64h15.779l13.333,80H366.777Zm13.494-176H320V176h40.938ZM360,128H320v-8a8,8,0,0,0-8-8H280V96h80Zm0-80H344V32h16ZM184,48V32h16V48Zm32-16h16V48H216Zm32,0h16V48H248Zm32,0h16V48H280Zm32,0h16V48H312ZM152,32h16V48H152ZM136,64H376V80H136Zm16,32h80v16H200a8,8,0,0,0-8,8v8H152Zm-16,48h56v16H136Zm15.062,32H192v48H145.062Zm-48.816,64h88l-28.8,144H66.246ZM46.777,400h79.779l-13.333,80H33.444Zm352,80-13.333-80h79.779l13.333,80Z"/></svg>
