<svg id="Capa_1" enable-background="new 0 0 510 510" height="512" viewBox="0 0 510 510" width="512" xmlns="http://www.w3.org/2000/svg"><g><path d="m315 480v-90h30v-30h-30v-30c66.168 0 120-53.832 120-120v-15h30v-30h-30v-15c0-24.813-20.187-45-45-45-24.814 0-45 20.187-45 45v60c0 8.271-6.729 15-15 15h-15v-135h30v-30h-30c0-33.084-26.916-60-60-60s-60 26.916-60 60h-30v30h30v45h-30v30h30v135h-15c-8.271 0-15-6.728-15-15v-60c0-24.813-20.187-45-45-45s-45 20.187-45 45v15h-30v30h30v15c0 66.168 53.832 120 120 120v75h-165v30h450v-30zm-30-180v180h-60v-105h-30c-49.626 0-90-40.374-90-90v-60c0-8.271 6.729-15 15-15s15 6.729 15 15v60c0 24.814 20.187 45 45 45h45v-270c0-16.542 13.458-30 30-30s30 13.458 30 30v195h45c24.813 0 45-20.186 45-45v-60c0-8.271 6.728-15 15-15 8.271 0 15 6.729 15 15v60c0 49.626-40.374 90-90 90z"/></g></svg>