<?xml version="1.0" encoding="iso-8859-1"?>
<!-- Generator: Adobe Illustrator 19.0.0, SVG Export Plug-In . SVG Version: 6.00 Build 0)  -->
<svg version="1.1" id="Capa_1" xmlns="http://www.w3.org/2000/svg" xmlns:xlink="http://www.w3.org/1999/xlink" x="0px" y="0px"
	 viewBox="0 0 511.989 511.989" style="enable-background:new 0 0 511.989 511.989;" xml:space="preserve">
<g>
	<g>
		<g>
			<path d="M178.1,394.168c-3.361-1.811-6.626-3.795-9.783-5.943c-2.834,1.463-5.76,3.2-8.686,5.029
				c-5.669,3.474-11.154,7.223-16.731,10.971c-9.478,6.668-19.338,12.773-29.531,18.286c-14.903,7.68-26.24,9.326-34.743,4.846
				c-4.572-2.337-7.859-6.596-8.96-11.611c-0.688-4.722,1.237-9.446,5.029-12.343c3.75-3.255,8.992-4.169,13.623-2.377
				c4.721,1.843,10.043-0.49,11.886-5.211c1.843-4.721-0.49-10.043-5.211-11.886c-10.817-4.084-22.994-2.061-31.909,5.303
				c-8.868,7.054-13.238,18.345-11.429,29.531c1.962,10.734,8.828,19.933,18.56,24.869c5.842,3.041,12.339,4.611,18.926,4.571
				c11.47-0.522,22.654-3.749,32.64-9.417c10.827-5.869,21.299-12.372,31.36-19.474c5.394-3.566,10.697-7.131,16.183-10.606
				c4.343-2.709,8.83-5.181,13.44-7.406C182.532,398.281,180.773,395.59,178.1,394.168z"/>
			<path d="M448.912,389.231c-8.915-7.364-21.091-9.387-31.909-5.303c-4.705,1.86-7.031,7.165-5.211,11.886
				c1.923,4.643,7.167,6.942,11.886,5.211c4.631-1.792,9.873-0.877,13.623,2.377c3.792,2.897,5.716,7.621,5.029,12.343
				c-1.105,5.041-4.433,9.31-9.051,11.611c-8.411,4.48-19.84,2.926-34.651-4.846c-10.193-5.512-20.054-11.618-29.531-18.286
				c-5.577-3.749-11.063-7.497-16.731-10.971c-2.926-1.829-5.851-3.566-8.686-5.029c-3.157,2.148-6.422,4.131-9.783,5.943
				c-2.673,1.422-4.432,4.113-4.663,7.131c4.61,2.225,9.097,4.697,13.44,7.406c5.486,3.474,10.789,7.04,16.183,10.606
				c10.061,7.103,20.533,13.605,31.36,19.474c9.986,5.668,21.17,8.895,32.64,9.417c6.587,0.039,13.083-1.53,18.926-4.571
				c9.732-4.935,16.598-14.135,18.56-24.869C462.149,407.576,457.779,396.285,448.912,389.231z"/>
			<path d="M212.386,113.473c14.419-2.078,28.942-3.357,43.502-3.831c14.624,0.449,29.211,1.713,43.694,3.785l0.987,0.128
				c9.819,1.225,20.626,2.743,32,4.571l-7.899-27.685c-22.42-5.801-45.516-8.568-68.672-8.229
				c-23.159-0.338-46.258,2.429-68.681,8.229l-7.918,27.73c11.41-1.829,22.208-3.365,32-4.571L212.386,113.473z"/>
			<path d="M292.934,393.162c-2.431,0.122-4.809-0.74-6.598-2.391c-1.789-1.651-2.838-3.953-2.911-6.386
				c-0.099-2.425,0.771-4.791,2.417-6.574s3.935-2.839,6.36-2.934c18.063-0.398,35.881,4.223,51.474,13.349
				c28.547-19.242,44.678-52.237,42.331-86.583v-0.274c-1.057-25.68-7.048-50.916-17.646-74.331
				c-36.696-9.852-74.394-15.496-112.366-16.823c-37.974,1.304-75.674,6.949-112.366,16.823
				c-10.586,23.419-16.576,48.653-17.646,74.331v0.274c-2.28,34.333,13.836,67.296,42.331,86.583
				c15.593-9.125,33.412-13.746,51.474-13.349c2.425,0.095,4.714,1.151,6.36,2.934c1.646,1.784,2.516,4.149,2.417,6.574
				c-0.03,2.448-1.065,4.776-2.864,6.436c-1.799,1.66-4.202,2.507-6.644,2.341c-12.586-0.329-25.056,2.467-36.297,8.137
				c0.076,0.576,0.107,1.157,0.091,1.737c-0.091,0.457-3.566,44.16,20.48,70.4c13.797,14.048,33.01,21.42,52.663,20.206
				c19.683,1.232,38.931-6.141,52.754-20.206c24.137-26.423,20.48-69.943,20.389-70.4c-0.015-0.581,0.015-1.161,0.091-1.737
				C317.997,395.612,305.522,392.815,292.934,393.162z M294.123,262.877l0.731,0.64c4.863-3.217,10.292-5.482,16-6.674v-0.914
				c0-5.049,4.093-9.143,9.143-9.143c5.049,0,9.143,4.093,9.143,9.143v0.914c5.708,1.192,11.137,3.457,16,6.674l0.731-0.64
				c3.628-3.107,9.035-2.898,12.412,0.479c3.377,3.377,3.586,8.784,0.479,12.412l-0.64,0.731c3.217,4.863,5.482,10.292,6.674,16
				h0.914c5.049,0,9.143,4.093,9.143,9.143s-4.093,9.143-9.143,9.143h-0.914c-1.192,5.708-3.457,11.137-6.674,16l0.64,0.731
				c3.545,3.566,3.545,9.325,0,12.891c-1.686,1.753-4.013,2.744-6.446,2.744c-2.432,0-4.76-0.991-6.446-2.744l-0.731-0.64
				c-4.863,3.217-10.292,5.482-16,6.674v0.914c0,5.049-4.093,9.143-9.143,9.143c-5.049,0-9.143-4.093-9.143-9.143v-0.914
				c-5.708-1.192-11.137-3.457-16-6.674l-0.731,0.64c-1.686,1.753-4.013,2.744-6.446,2.744c-2.432,0-4.76-0.991-6.446-2.744
				c-3.545-3.566-3.545-9.325,0-12.891l0.64-0.731c-3.217-4.863-5.482-10.292-6.674-16h-0.914c-5.049,0-9.143-4.093-9.143-9.143
				s4.093-9.143,9.143-9.143h0.914c1.192-5.708,3.457-11.137,6.674-16l-0.64-0.731c-3.107-3.628-2.898-9.035,0.479-12.412
				C285.088,259.979,290.495,259.77,294.123,262.877z M271.632,372.134c-3.605,3.536-9.378,3.536-12.983,0l-2.651-2.743
				l-2.651,2.743c-3.605,3.536-9.378,3.536-12.983,0c-3.565-3.593-3.565-9.39,0-12.983l9.143-9.143c3.593-3.566,9.39-3.566,12.983,0
				l9.143,9.143C275.197,362.744,275.197,368.541,271.632,372.134z M231.22,222.008c3.593-3.566,9.39-3.566,12.983,0l11.794,11.886
				l11.794-11.886c3.585-3.585,9.398-3.585,12.983,0c3.585,3.585,3.585,9.398,0,12.983l-18.286,18.286
				c-3.605,3.536-9.378,3.536-12.983,0l-18.286-18.286C227.655,231.398,227.655,225.601,231.22,222.008z M224.317,343.152
				c-2.432,0-4.76-0.991-6.446-2.744l-0.731-0.64c-4.863,3.217-10.292,5.482-16,6.674v0.914c0,5.049-4.093,9.143-9.143,9.143
				s-9.143-4.093-9.143-9.143v-0.914c-5.708-1.192-11.137-3.457-16-6.674l-0.731,0.64c-1.686,1.753-4.013,2.744-6.446,2.744
				c-2.432,0-4.76-0.991-6.446-2.744c-3.545-3.566-3.545-9.325,0-12.891l0.64-0.731c-3.217-4.863-5.482-10.292-6.674-16h-0.914
				c-5.049,0-9.143-4.093-9.143-9.143s4.093-9.143,9.143-9.143h0.914c1.192-5.708,3.457-11.137,6.674-16l-0.64-0.731
				c-3.107-3.628-2.898-9.035,0.479-12.412c3.377-3.377,8.784-3.586,12.412-0.479l0.731,0.64c4.863-3.217,10.292-5.482,16-6.674
				v-0.914c0-5.049,4.093-9.143,9.143-9.143s9.143,4.093,9.143,9.143v0.914c5.708,1.192,11.137,3.457,16,6.674l0.731-0.64
				c3.628-3.107,9.035-2.898,12.412,0.479c3.377,3.377,3.586,8.784,0.479,12.412l-0.64,0.731c3.217,4.863,5.482,10.292,6.674,16
				h0.914c5.049,0,9.143,4.093,9.143,9.143s-4.093,9.143-9.143,9.143h-0.914c-1.192,5.708-3.457,11.137-6.674,16l0.64,0.731
				c3.545,3.566,3.545,9.325,0,12.891C229.077,342.162,226.75,343.152,224.317,343.152z M301.712,420.499v9.143
				c5.049,0,9.143,4.093,9.143,9.143c0,5.049-4.093,9.143-9.143,9.143c0,5.049-4.093,9.143-9.143,9.143
				c-5.049,0-9.143-4.093-9.143-9.143H265.14c0,5.049-4.093,9.143-9.143,9.143c-5.049,0-9.143-4.093-9.143-9.143h-18.286
				c0,5.049-4.093,9.143-9.143,9.143s-9.143-4.093-9.143-9.143c-5.049,0-9.143-4.093-9.143-9.143c0-5.049,4.093-9.143,9.143-9.143
				v-9.143c0-5.049,4.093-9.143,9.143-9.143s9.143,4.093,9.143,9.143v9.143h18.286v-9.143c0-5.049,4.093-9.143,9.143-9.143
				c5.049,0,9.143,4.093,9.143,9.143v9.143h18.286v-9.143c0-5.049,4.093-9.143,9.143-9.143
				C297.618,411.357,301.712,415.45,301.712,420.499z"/>
			<circle cx="191.997" cy="301.642" r="27.429"/>
			<path d="M318.882,70.136l-5.486-19.145c-0.935-3.433-2.991-6.456-5.842-8.585c-12.608-8.542-26.024-15.828-40.055-21.751
				c-7.31-3.255-15.657-3.255-22.967,0c-14.01,5.907-27.409,13.168-40.009,21.678c-2.905,2.155-5.001,5.224-5.952,8.713
				l-5.486,19.09c20.694-4.277,41.781-6.358,62.912-6.208C277.119,63.78,298.197,65.861,318.882,70.136z"/>
			<circle cx="319.997" cy="301.642" r="27.429"/>
			<path d="M510.534,218.077c-11.949-15.254-26.961-27.837-44.069-36.937c-37.5-20.787-78.291-34.982-120.594-41.966h-0.366
				c-1.206-0.001-2.396-0.282-3.474-0.823c-15.726-2.834-30.629-5.029-43.703-6.674l-1.006-0.091
				c-13.727-1.985-27.554-3.206-41.417-3.657c-13.802,0.459-27.567,1.68-41.234,3.657l-1.006,0.091
				c-13.166,1.646-28.251,3.84-44.16,6.766c-0.9,0.366-1.863,0.552-2.834,0.549c-42.487,7.045-83.458,21.299-121.143,42.149
				c-17.114,9.13-32.126,21.743-44.069,37.029c-1.29,1.935-1.751,4.306-1.28,6.583c0.608,2.538,2.227,4.718,4.48,6.034
				c15.817,9.326,51.017,24.869,110.08,25.143c3.395-14.001,8.173-27.63,14.263-40.686c1.147-2.284,3.206-3.978,5.669-4.663
				c39.559-11.007,80.287-17.268,121.326-18.651c41.039,1.383,81.767,7.644,121.326,18.651c0.069,0.01,0.134,0.042,0.183,0.091
				c0.681,0.211,1.327,0.519,1.92,0.914c0.366,0.274,0.914,0.457,1.28,0.731c0.366,0.274,0.549,0.731,0.914,1.097
				c0.477,0.54,0.906,1.121,1.28,1.737l0.091,0.091c6.09,13.056,10.867,26.685,14.263,40.686
				c59.063-0.274,94.263-15.817,110.08-25.143c2.254-1.317,3.872-3.496,4.48-6.034C512.276,222.444,511.816,220.049,510.534,218.077
				z M54.123,222.74c-0.464,1.108-1.113,2.128-1.92,3.017c-0.889,0.807-1.91,1.456-3.017,1.92c-1.099,0.468-2.28,0.717-3.474,0.731
				c-2.42-0.035-4.738-0.982-6.491-2.651c-0.807-0.889-1.456-1.91-1.92-3.017c-0.469-1.099-0.717-2.28-0.731-3.474
				c0.016-0.613,0.077-1.224,0.183-1.829c0.1-0.573,0.284-1.128,0.549-1.646c0.2-0.583,0.477-1.136,0.823-1.646
				c0.337-0.479,0.704-0.937,1.097-1.371c2.675-2.505,6.551-3.252,9.966-1.92c1.108,0.464,2.128,1.113,3.017,1.92
				c1.669,1.753,2.616,4.071,2.651,6.491C54.84,220.46,54.591,221.64,54.123,222.74z M108.98,195.311
				c-0.831,2.297-2.64,4.106-4.937,4.937c-1.099,0.469-2.28,0.717-3.474,0.731c-2.42-0.036-4.738-0.982-6.491-2.651
				c-0.807-0.889-1.456-1.91-1.92-3.017c-0.468-1.099-0.717-2.28-0.731-3.474c0.016-0.613,0.077-1.224,0.183-1.829
				c0.1-0.573,0.284-1.128,0.549-1.646c0.2-0.583,0.477-1.136,0.823-1.646c0.338-0.479,0.704-0.937,1.097-1.371
				c2.675-2.505,6.551-3.252,9.966-1.92c1.108,0.464,2.128,1.113,3.017,1.92c1.669,1.753,2.616,4.071,2.651,6.491
				C109.697,193.031,109.449,194.212,108.98,195.311z M154.694,177.025c-0.831,2.297-2.64,4.106-4.937,4.937
				c-1.099,0.468-2.28,0.717-3.474,0.731c-2.42-0.035-4.738-0.982-6.491-2.651c-0.807-0.889-1.456-1.91-1.92-3.017
				c-0.468-1.099-0.717-2.28-0.731-3.474c0.016-0.613,0.077-1.224,0.183-1.829c0.1-0.573,0.284-1.128,0.549-1.646
				c0.2-0.583,0.477-1.136,0.823-1.646c0.338-0.479,0.704-0.937,1.097-1.371c2.675-2.505,6.551-3.252,9.966-1.92
				c1.108,0.464,2.128,1.113,3.017,1.92c1.669,1.753,2.616,4.071,2.651,6.491C155.411,174.746,155.163,175.926,154.694,177.025z
				 M209.552,158.831c-0.831,2.297-2.64,4.106-4.937,4.937c-1.099,0.468-2.279,0.717-3.474,0.731
				c-2.42-0.035-4.738-0.982-6.491-2.651c-0.807-0.889-1.456-1.91-1.92-3.017c-0.469-1.099-0.717-2.279-0.731-3.474
				c0.016-0.613,0.077-1.224,0.183-1.829c0.1-0.573,0.284-1.128,0.549-1.646c0.2-0.583,0.477-1.136,0.823-1.646
				c0.337-0.479,0.704-0.937,1.097-1.371c2.675-2.505,6.551-3.252,9.966-1.92c1.108,0.464,2.128,1.113,3.017,1.92
				c1.669,1.753,2.616,4.071,2.651,6.491C210.269,156.551,210.02,157.732,209.552,158.831z M264.409,158.831
				c-0.831,2.297-2.64,4.106-4.937,4.937c-1.099,0.468-2.28,0.717-3.474,0.731c-2.42-0.035-4.738-0.982-6.491-2.651
				c-0.807-0.889-1.456-1.91-1.92-3.017c-0.468-1.099-0.717-2.279-0.731-3.474c0.016-0.613,0.077-1.224,0.183-1.829
				c0.099-0.573,0.284-1.128,0.549-1.646c0.2-0.583,0.477-1.136,0.823-1.646c0.337-0.479,0.704-0.937,1.097-1.371
				c2.675-2.505,6.551-3.252,9.966-1.92c1.108,0.464,2.128,1.113,3.017,1.92c1.669,1.753,2.616,4.071,2.651,6.491
				C265.126,156.551,264.877,157.732,264.409,158.831z M319.266,158.831c-0.464,1.108-1.113,2.128-1.92,3.017
				c-1.753,1.669-4.071,2.616-6.491,2.651c-1.195-0.014-2.375-0.263-3.474-0.731c-2.297-0.831-4.106-2.64-4.937-4.937
				c-0.469-1.099-0.717-2.279-0.731-3.474c0.035-2.42,0.982-4.738,2.651-6.491c0.889-0.807,1.91-1.456,3.017-1.92
				c3.414-1.332,7.291-0.585,9.966,1.92c0.393,0.434,0.76,0.892,1.097,1.371c0.346,0.509,0.623,1.063,0.823,1.646
				c0.264,0.518,0.449,1.073,0.549,1.646c0.106,0.604,0.167,1.215,0.183,1.829C319.983,156.551,319.734,157.732,319.266,158.831z
				 M374.123,177.025c-0.464,1.108-1.113,2.128-1.92,3.017c-1.753,1.669-4.071,2.616-6.491,2.651
				c-1.195-0.014-2.375-0.263-3.474-0.731c-2.297-0.831-4.106-2.64-4.937-4.937c-0.469-1.099-0.717-2.28-0.731-3.474
				c0.035-2.42,0.982-4.738,2.651-6.491c0.889-0.807,1.91-1.456,3.017-1.92c3.415-1.332,7.291-0.585,9.966,1.92
				c0.393,0.434,0.76,0.892,1.097,1.371c0.346,0.51,0.623,1.063,0.823,1.646c0.264,0.518,0.449,1.073,0.549,1.646
				c0.106,0.604,0.167,1.215,0.183,1.829C374.84,174.746,374.591,175.926,374.123,177.025z M419.837,195.311
				c-0.464,1.108-1.113,2.128-1.92,3.017c-1.753,1.669-4.071,2.616-6.491,2.651c-1.195-0.014-2.375-0.263-3.474-0.731
				c-2.297-0.831-4.106-2.64-4.937-4.937c-0.469-1.099-0.717-2.28-0.731-3.474c0.036-2.42,0.982-4.738,2.651-6.491
				c0.889-0.807,1.91-1.456,3.017-1.92c3.415-1.332,7.291-0.585,9.966,1.92c0.393,0.434,0.76,0.892,1.097,1.371
				c0.346,0.51,0.623,1.063,0.823,1.646c0.264,0.518,0.449,1.073,0.549,1.646c0.106,0.604,0.167,1.215,0.183,1.829
				C420.554,193.031,420.306,194.212,419.837,195.311z M474.694,222.74c-0.464,1.108-1.113,2.128-1.92,3.017
				c-1.753,1.669-4.071,2.616-6.491,2.651c-1.195-0.014-2.375-0.263-3.474-0.731c-2.297-0.831-4.106-2.64-4.937-4.937
				c-0.469-1.099-0.717-2.28-0.731-3.474c0.035-2.42,0.982-4.738,2.651-6.491c0.889-0.807,1.91-1.456,3.017-1.92
				c3.414-1.332,7.291-0.585,9.966,1.92c0.393,0.434,0.76,0.892,1.097,1.371c0.346,0.509,0.623,1.063,0.823,1.646
				c0.264,0.518,0.449,1.073,0.549,1.646c0.106,0.604,0.167,1.215,0.183,1.829C475.411,220.46,475.163,221.64,474.694,222.74z"/>
		</g>
	</g>
</g>
<g>
</g>
<g>
</g>
<g>
</g>
<g>
</g>
<g>
</g>
<g>
</g>
<g>
</g>
<g>
</g>
<g>
</g>
<g>
</g>
<g>
</g>
<g>
</g>
<g>
</g>
<g>
</g>
<g>
</g>
</svg>
