<svg id="Layer_1" enable-background="new 0 0 512.001 512.001" height="512" viewBox="0 0 512.001 512.001" width="512" xmlns="http://www.w3.org/2000/svg"><g><g><path d="m256.001 293.616h-.008c-5.523 0-9.996 4.477-9.996 10s4.481 10 10.004 10 10-4.477 10-10-4.477-10-10-10z"/><path d="m504.59 286.342c-46.776-12.534-94.418-21.494-142.478-26.837-14.882-80.147-57.023-133.504-106.111-133.504-49.073 0-91.228 53.366-106.111 133.504-48.059 5.343-95.701 14.302-142.478 26.837-4.372 1.17-7.412 5.132-7.412 9.658 0 49.626 40.374 90 90 90h332.002c49.626 0 90-40.374 90-90-.001-4.525-3.041-8.487-7.412-9.658zm-307.869-98.134c19.693-.556 39.61-.849 59.28-.849 19.672 0 39.591.293 59.286.849 3.818 6.209 7.382 13.003 10.642 20.331-23.274-.767-46.726-1.178-69.928-1.178-23.207 0-46.658.411-69.925 1.177 3.261-7.327 6.826-14.121 10.645-20.33zm59.28-42.207c15.603 0 30.638 7.863 43.864 21.824-14.632-.302-29.316-.466-43.864-.466-14.545 0-29.226.164-43.855.466 13.226-13.96 28.259-21.824 43.855-21.824zm-77.718 82.819c25.807-.955 51.917-1.459 77.718-1.459 25.795 0 51.905.504 77.721 1.459 2.964 8.993 5.515 18.554 7.598 28.597-28.347-2.529-56.817-3.803-85.318-3.803s-56.971 1.274-85.318 3.803c2.082-10.043 4.634-19.604 7.599-28.597zm243.719 137.181h-332.002c-21.803 0-41.298-10.031-54.146-25.709 57.514-14.135 116.541-22.742 175.64-25.6 5.517-.267 9.772-4.955 9.505-10.471-.267-5.517-4.972-9.794-10.471-9.505-62.414 3.018-124.744 12.33-185.373 27.651-2.407-5.899-4.032-12.198-4.745-18.766 76.908-19.899 156.127-29.985 235.591-29.985s158.683 10.086 235.591 29.986c-.712 6.568-2.337 12.867-4.745 18.766-60.63-15.321-122.962-24.633-185.381-27.651-5.514-.286-10.205 3.989-10.471 9.505s3.989 10.205 9.505 10.471c59.104 2.858 118.133 11.464 175.647 25.6-12.847 15.676-32.342 25.708-54.145 25.708z"/></g></g></svg>