<?xml version="1.0" encoding="UTF-8"?>
<svg xmlns="http://www.w3.org/2000/svg" viewBox="0 0 512 512" width="512" height="512"><g id="outline"><path d="M432,272h8a8,8,0,0,0,0-16h-8a8,8,0,0,0,0,16Z"/><path d="M64,408H456a40.045,40.045,0,0,0,40-40v-8a205.881,205.881,0,0,0-21.937-93.073c-.05-.1-.1-.2-.157-.3l-1.926-3.469a63.982,63.982,0,0,0-55.088-62.545,17.927,17.927,0,0,0-3.235-4.414L371.23,153.775a17.938,17.938,0,0,0-13.715-5.217,60.185,60.185,0,0,0-3.178-13.63,8,8,0,0,0-10.24-4.811l-29.085,10.491A39.74,39.74,0,0,0,280,120a40.16,40.16,0,0,0-14.882,2.879,55.971,55.971,0,0,0-10.963-6.3c.167-.235.341-.464.5-.7A8,8,0,1,0,241.344,107a11.063,11.063,0,0,1-5.844,4.437h-7A11.063,11.063,0,0,1,222.656,107a8,8,0,1,0-13.312,8.875c.158.237.33.463.494.694a55.9,55.9,0,0,0-10.988,6.3c-.864-.347-1.74-.668-2.633-.955a27.212,27.212,0,0,0,1.558-3.892,8,8,0,1,0-15.279-4.747,11.053,11.053,0,0,1-4.35,5.909l-6.714,1.98a11.064,11.064,0,0,1-6.86-2.6,7.99,7.99,0,0,0-13.114,5.795,42.654,42.654,0,0,0-39.112,5.109l-.279.2A42.648,42.648,0,0,0,55.805,169l-.283.195a42.651,42.651,0,0,0-17.246,44.1,42.677,42.677,0,0,0-6.791,56.491,43.069,43.069,0,0,0,3.224,4.047A206.792,206.792,0,0,0,16,360,48.054,48.054,0,0,0,64,408Zm371.725-27.182A23.845,23.845,0,0,1,432,368v-8a209.518,209.518,0,0,0-1.181-22.155,28.877,28.877,0,0,0,12.423-4.748,39.952,39.952,0,0,1-7.517,47.721Zm-7.214-58.81A206.185,206.185,0,0,0,422.2,296.9a13.049,13.049,0,1,1,6.307,25.111ZM480,360v8a23.985,23.985,0,0,1-31.609,22.756,55.946,55.946,0,0,0,5.5-70.847A28.879,28.879,0,0,0,456,309.056c0-.872-.046-1.733-.121-2.585a63.766,63.766,0,0,0,10.805-16.908A190.226,190.226,0,0,1,480,360Zm-24-96a47.708,47.708,0,0,1-7.438,25.667,29.02,29.02,0,0,0-31.815-7.819,207.806,207.806,0,0,0-22.326-40.955L400,235.314V240a8,8,0,0,0,16,0v-8a8,8,0,0,0-5.2-7.486l2.857-2.857a17.885,17.885,0,0,0,3.417-4.807A47.72,47.72,0,0,1,456,264Zm-96.084-98.912,42.427,42.427a2,2,0,0,1,0,2.828l-17.688,17.688a209.792,209.792,0,0,0-38.709-36.425,60.743,60.743,0,0,0,11.188-26.554A2,2,0,0,1,359.916,165.088Zm-27.293,17.6A207.257,207.257,0,0,0,295.49,164.66l45.825-16.53A44.72,44.72,0,0,1,332.623,182.686ZM160.092,162.058c-.057-.681-.092-1.367-.092-2.058a24,24,0,0,1,46.865-7.289A206.563,206.563,0,0,0,160.092,162.058Zm63.1-10.048a39.923,39.923,0,0,0-10-19.311,39.987,39.987,0,0,1,57.172,24.013l-.869.314A207.922,207.922,0,0,0,224,152C223.731,152,223.465,152.009,223.2,152.01Zm76.4-5.841-14.151,5.1a55.851,55.851,0,0,0-7.465-15.181c.667-.054,1.339-.092,2.018-.092A24.2,24.2,0,0,1,299.6,146.169ZM40.2,240.68A26.491,26.491,0,0,1,51.18,223.472c.15-.105.3-.2.457-.3l.235-.153a8,8,0,0,0,3.115-9.509,26.615,26.615,0,0,1,12.668-33,8,8,0,0,0,4.256-7.85,26.66,26.66,0,0,1,38.068-26.615,8,8,0,0,0,8.834-1.3,26.99,26.99,0,0,1,2.7-2.171,26.649,26.649,0,0,1,27.457-1.868,39.988,39.988,0,0,0-4.227,26.994A209.276,209.276,0,0,0,42.892,257.809,26.459,26.459,0,0,1,40.2,240.68ZM224,168a191.491,191.491,0,0,1,53.463,7.582c.138.047.279.087.42.126C357.605,199.055,416,272.831,416,360v8a39.792,39.792,0,0,0,8.019,24H64a32.036,32.036,0,0,1-32-32C32,254.131,118.131,168,224,168Z"/><circle cx="256" cy="232" r="8"/><circle cx="288" cy="208" r="8"/><circle cx="328" cy="239.243" r="8"/><circle cx="224" cy="208" r="8"/><circle cx="224" cy="264" r="8"/><circle cx="160" cy="264" r="8"/><circle cx="288" cy="264" r="8"/><circle cx="192" cy="232" r="8"/><circle cx="128" cy="240" r="8"/><circle cx="160" cy="208" r="8"/><path d="M72,376H88a8,8,0,0,0,0-16H72a8,8,0,0,0,0,16Z"/><path d="M120,376h40a8,8,0,0,0,0-16H120a8,8,0,0,0,0,16Z"/></g></svg>
