<svg id="Layer_1" height="512" viewBox="0 0 512 512" width="512" xmlns="http://www.w3.org/2000/svg" data-name="Layer 1"><path d="m398.307 235.53a142.894 142.894 0 0 0 -30.014-83.064l-13.127 10.49c15.026 11.558 24.779 28 28.326 47.965a98.19 98.19 0 0 1 1.187 24.609z"/><circle cx="343.63" cy="208.861" r="6.82"/><path d="m168.708 292.424a15.679 15.679 0 1 0 15.679 15.676 15.7 15.7 0 0 0 -15.679-15.676z"/><path d="m246.972 33.682c5.3 10.656 6.1 23.357 6.064 30.531 1.091-.021 2.182-.042 3.278-.042 1.739 0 3.471.033 5.2.083.443-6.888 2.149-19.112 8.45-29.189-9.343-8.34-17.419-5.751-22.992-1.383z"/><path d="m207.342 71.16-11.9-47.177a224.964 224.964 0 0 0 -77.8 38.312l30.458 39.448q6.185-4.875 12.805-9.19c-2.835-5.4-9.011-15.274-18.206-19.874a7.569 7.569 0 0 1 -4-8.605c4.67-19.108 20.507-23.245 33.769-20.734a7.608 7.608 0 0 1 6.195 7.571c-.118 10.678 6.932 21.618 10.637 26.622a173.555 173.555 0 0 1 18.042-6.373z"/><path d="m209.7 375.873a22.408 22.408 0 0 1 12.124-19.95 9.916 9.916 0 0 0 5.34-8.852l-.027-101.541h-116.2v105.376a145.133 145.133 0 0 0 68.891 123.427l44.063-77.585a22.511 22.511 0 0 1 -14.191-20.875zm-40.987-42.091a25.679 25.679 0 1 1 25.674-25.682 25.707 25.707 0 0 1 -25.679 25.682zm35.787-44.067a40.277 40.277 0 0 0 -71.576 0 5 5 0 0 1 -8.882-4.594 50.277 50.277 0 0 1 89.34 0 5 5 0 1 1 -8.882 4.594z"/><path d="m196.319 235.53h18.1a41.3 41.3 0 0 1 82.015 0h19.347a58.184 58.184 0 0 0 -17.319-36.963 60.194 60.194 0 0 0 -42.462-17.167c-30.8 0-56.568 23.85-59.681 54.13z"/><path d="m261 171.586a71.889 71.889 0 0 1 10.366 1.469l18.564-72.005a140.884 140.884 0 0 0 -28.93-4.024z"/><path d="m226.427 364.8a12.475 12.475 0 0 0 1.53 22.817 16.675 16.675 0 0 1 10.217 11.122c2.57 8.823 8.353 13.3 17.188 13.3 9.587 0 17.548-6.073 19.36-14.769a16.865 16.865 0 0 1 7.9-10.917c6.149-3.694 9.968-7.707 9.968-10.474a12.439 12.439 0 0 0 -6.733-11.075 19.887 19.887 0 0 1 -10.731-17.73l.026-101.538h-38.02l.027 101.538a19.883 19.883 0 0 1 -10.732 17.726z"/><path d="m335.833 121.752-38.223 63.024a69.873 69.873 0 0 1 6.958 5.812l57.324-45.808q-2.531-2.836-5.218-5.562a145.168 145.168 0 0 0 -20.841-17.466z"/><path d="m53.207 215.557a92.828 92.828 0 0 1 30.109-5.172q.864-5.023 2-9.95c-7.8-.35-20.886-1.913-30.861-8.048-8.43 9.442-5.698 17.59-1.248 23.17z"/><path d="m347.1 169.4-35.775 28.587a68.042 68.042 0 0 1 14.481 37.544h48.826a88.457 88.457 0 0 0 -1.048-23.19c-3.347-18.422-12.251-32.85-26.484-42.941zm13.347 39.462a16.82 16.82 0 1 1 -16.82-16.82 16.839 16.839 0 0 1 16.823 16.819z"/><path d="m72.531 273.317h28.402v19.4h-28.402z"/><path d="m72.531 245.53h28.402v17.787h-28.402z"/><path d="m67.861 351.951a1.69 1.69 0 1 0 1.689 1.69 1.692 1.692 0 0 0 -1.689-1.69z"/><path d="m140.424 108.167-30.6-39.63q-7.285 6.079-14.12 12.8a222.879 222.879 0 0 0 -45.039 63.413l47.057 20.157a176.365 176.365 0 0 1 10.636-19.235c-4.664-4.2-14.544-11.95-25.033-13.016a7.567 7.567 0 0 1 -6.79-6.624c-2.414-19.526 10.926-29.007 24.216-31.368a7.6 7.6 0 0 1 8.478 4.882c3.649 9.946 13.488 17.588 18.54 20.994q6.017-6.498 12.655-12.373z"/><path d="m100.605 104.9c-12.2 2.88-14.7 10.989-14.312 18.062 11.776 1.869 22.115 9.467 27.738 14.365q3.4-4.719 7.1-9.2c-5.958-4.158-15.776-12.266-20.526-23.227z"/><path d="m81.888 220.413a83.535 83.535 0 0 0 -26.411 4.952 8.956 8.956 0 0 1 -3.072.561 7.394 7.394 0 0 1 -5.569-2.427c-13.165-14.623-7.661-30.036 1.878-39.586a7.606 7.606 0 0 1 9.747-.855c9.035 6.3 22.994 7.336 29.482 7.455q2.48-8.408 5.755-16.452l-47.098-20.175a223.663 223.663 0 0 0 -17.2 81.644h51.414c.142-5.096.509-10.136 1.074-15.117z"/><path d="m57.31 358.641h-22.318a33.024 33.024 0 0 0 27.869 27.413v-21.863a11.746 11.746 0 0 1 -5.551-5.55zm-1.17 13.869a4.985 4.985 0 1 1 1.47-3.54 5.03 5.03 0 0 1 -1.47 3.54z"/><path d="m34.931 348.641h22.379a11.748 11.748 0 0 1 5.551-5.551v-22.269a33.021 33.021 0 0 0 -27.93 27.82zm12.569-14.891a5.008 5.008 0 1 1 -1.46 3.54 5.032 5.032 0 0 1 1.46-3.54z"/><path d="m72.531 310.785a42.928 42.928 0 0 1 28.4 15.688v-23.755h-28.4z"/><path d="m255.43 209.106a31.355 31.355 0 0 0 -30.923 26.424h61.846a31.354 31.354 0 0 0 -30.923-26.424z"/><path d="m148.913 64.666c10.374 5.911 17.164 16.342 20.54 22.643q5.162-2.962 10.535-5.583c-4.342-6.206-10.708-17.184-11.283-28.867-12.434-1.64-17.645 5.056-19.792 11.807z"/><path d="m72.861 364.191v21.762a33.028 33.028 0 0 0 27.209-27.312h-21.659a11.744 11.744 0 0 1 -5.55 5.55zm7.3 1.249a5.01 5.01 0 1 1 -1.46 3.53 5.046 5.046 0 0 1 1.459-3.53z"/><path d="m72.861 320.922v22.168a11.746 11.746 0 0 1 5.55 5.551h21.72a33.023 33.023 0 0 0 -27.27-27.719zm14.369 19.9a4.984 4.984 0 1 1 1.47-3.529 5.037 5.037 0 0 1 -1.47 3.526z"/><path d="m280.968 175.868a69.565 69.565 0 0 1 8.15 3.626l38.282-63.125a139.925 139.925 0 0 0 -27.852-12.569z"/><path d="m411.7 348.641h21.72a11.746 11.746 0 0 1 5.55-5.551v-22.168a33.025 33.025 0 0 0 -27.27 27.719zm12.9-14.891a5.008 5.008 0 1 1 -1.46 3.54 5.026 5.026 0 0 1 1.46-3.54z"/><path d="m461.344 144.769a222.876 222.876 0 0 0 -45.053-63.431q-6.791-6.7-14.06-12.752l-29.784 39.8a177.557 177.557 0 0 1 13.772 13.623c5.253-3.7 15.068-11.654 18.674-21.483a7.6 7.6 0 0 1 8.48-4.88c13.288 2.361 26.628 11.841 24.215 31.367a7.573 7.573 0 0 1 -6.79 6.625c-10.6 1.076-20.784 9.357-25.482 13.717a176.8 176.8 0 0 1 9.582 17.535z"/><path d="m411.067 326.258a42.927 42.927 0 0 1 28.233-15.473v-8.067h-28.233z"/><path d="m433.42 358.641h-21.659a33.027 33.027 0 0 0 27.209 27.312v-21.762a11.744 11.744 0 0 1 -5.55-5.55zm-1.75 13.869a5.01 5.01 0 1 1 1.46-3.54 5.03 5.03 0 0 1 -1.46 3.54z"/><path d="m413.517 105.881c-4.763 10.984-14.745 19.422-20.777 23.772q3.639 4.509 6.989 9.253c5.722-5.1 16.257-13.055 28.1-14.961.39-7.074-2.11-15.184-14.312-18.064z"/><path d="m411.067 273.317h28.232v19.4h-28.232z"/><path d="m443.97 351.951a1.685 1.685 0 0 0 -1.45.837 4.318 4.318 0 0 1 0 1.7 1.687 1.687 0 1 0 1.45-2.542z"/><path d="m418.922 174.043a175.368 175.368 0 0 1 5.867 16.821c6.835-.222 21.737-1.459 30.834-7.806a7.608 7.608 0 0 1 9.747.856c9.539 9.549 15.043 24.962 1.879 39.583a7.556 7.556 0 0 1 -5.628 2.517 7.651 7.651 0 0 1 -3.735-.979c-8.886-4.957-20.66-5.095-27.156-4.7q.856 7.507 1.084 15.192h50.786a223.668 223.668 0 0 0 -17.189-81.625z"/><path d="m448.97 320.821v22.269a11.746 11.746 0 0 1 5.55 5.551h22.38a33.022 33.022 0 0 0 -27.93-27.82zm15.36 20a5.008 5.008 0 1 1 1.46-3.529 5.042 5.042 0 0 1 -1.46 3.527z"/><path d="m448.97 364.191v21.863a33.023 33.023 0 0 0 27.868-27.413h-22.318a11.744 11.744 0 0 1 -5.55 5.55zm10.25-.221a5.019 5.019 0 1 1 -3.53 1.47 5.046 5.046 0 0 1 3.53-1.47z"/><circle cx="167.23" cy="208.861" r="6.82"/><path d="m256.314 74.171c-89.633 0-162.852 71.929-165.494 161.359h12.867a153.175 153.175 0 0 1 44.528-103.345 150.981 150.981 0 0 1 215.57 0 153.173 153.173 0 0 1 44.528 103.345h13.494c-2.641-89.43-75.86-161.359-165.493-161.359z"/><path d="m411.067 245.53h28.232v17.787h-28.232z"/><path d="m461.011 215.387c4.37-5.575 6.964-13.653-1.388-23-10.193 6.252-24.135 7.946-32.234 8.384q1.1 4.77 1.927 9.639c7.122-.505 20.543-.503 31.695 4.977z"/><path d="m155.326 139.217c-.27.273-.531.552-.8.826l53.564 50.6a71.022 71.022 0 0 1 5.876-5l-37.849-63.86a145.166 145.166 0 0 0 -20.791 17.434z"/><path d="m184.551 116.4 37.8 63.771a69.891 69.891 0 0 1 8.6-4.043l-20.911-71.518a139.921 139.921 0 0 0 -25.489 11.79z"/><path d="m113.693 235.53h15.552c-.488-14.151 1.461-51.476 32.555-74.861l-14.007-13.231a142.99 142.99 0 0 0 -34.1 88.092z"/><path d="m139.28 235.53h47a70.04 70.04 0 0 1 15.05-37.522l-32.14-30.358c-28.72 20.602-30.307 55.635-29.91 67.88zm44.77-26.669a16.82 16.82 0 1 1 -16.82-16.82 16.839 16.839 0 0 1 16.82 16.82z"/><path d="m240.5 173.177a68.778 68.778 0 0 1 10.5-1.577v-74.574a140.717 140.717 0 0 0 -31.4 4.661z"/><path d="m285.123 347.07a9.919 9.919 0 0 0 5.339 8.853 22.407 22.407 0 0 1 12.125 19.95c0 5.587-3.645 11.137-10.578 16.227l48.123 76.942a145.022 145.022 0 0 0 60.935-118.136v-105.376h-115.918zm59.985-13.288a25.679 25.679 0 1 1 25.679-25.682 25.707 25.707 0 0 1 -25.679 25.682zm-44.67-48.661a50.277 50.277 0 0 1 89.34 0 5 5 0 1 1 -8.883 4.594 40.277 40.277 0 0 0 -71.575 0 5 5 0 0 1 -8.882-4.594z"/><path d="m346.394 51.88c-.63 12.042-7.7 24.01-12.289 30.579q5.49 2.736 10.758 5.84c3.517-6.836 10.707-18.486 21.327-24.608-2.145-6.751-7.357-13.448-19.796-11.811z"/><path d="m394.416 62.339a224.986 224.986 0 0 0 -77.953-38.38l-12.74 46.75a173.683 173.683 0 0 1 21.144 7.465c3.951-5.412 11.69-17.413 11.571-28.242a7.606 7.606 0 0 1 6.2-7.572c13.262-2.507 29.1 1.627 33.768 20.735a7.568 7.568 0 0 1 -4 8.6c-8.856 4.432-15.705 15.254-19.048 21.933q5.878 3.932 11.424 8.31z"/><path d="m271.507 64.839a173.986 173.986 0 0 1 22.514 3.44l12.729-46.712a234.083 234.083 0 0 0 -101.6.023l11.864 47.038a173.971 173.971 0 0 1 26-3.954c.071-6.364-.555-18.637-5.7-27.866a7.574 7.574 0 0 1 1.538-9.361c14.623-13.164 30.036-7.661 39.585 1.879a7.606 7.606 0 0 1 .856 9.744c-5.821 8.352-7.379 19.617-7.786 25.769z"/><path d="m345.108 292.424a15.679 15.679 0 1 0 15.679 15.676 15.7 15.7 0 0 0 -15.679-15.676z"/><path d="m284.512 399.305c-2.789 13.381-14.776 22.728-29.15 22.728-11.662 0-20.625-5.812-25.186-16.11l-41.676 73.377a144.771 144.771 0 0 0 143.3-4.729l-47.221-75.5c-.024.079-.051.155-.067.234zm4.514 52.664a5 5 0 0 1 -5 5h-54.015a5 5 0 0 1 0-10h54.015a5 5 0 0 1 5 5z"/></svg>