<svg width="0" height="0" class="hidden">
  <symbol xmlns="http://www.w3.org/2000/svg" viewBox="0 0 512.056 512.056" id="agave">
    <path d="M466.733 464.329v-30h-85.519a254.022 254.022 0 0015.152-8.07c66.433-38.354 101.74-100.024 103.211-102.63l12.479-22.119-25.395-.25c-1.142-.014-21.172-.123-49.575 5.249 23.767-47.187 30.735-87.583 31.13-89.961l4.162-25.053-23.95 8.45c-1.427.504-28.179 10.082-61.535 31.381 5.662-54.204-1.739-95.283-2.203-97.768l-4.658-24.966-19.615 16.132c-1.227 1.01-24.443 20.282-50.186 53.708-14.498-62.872-39.797-106.318-41.286-108.838L256.03 47.729l-12.915 21.866c-1.489 2.521-26.788 45.966-41.286 108.837-25.742-33.427-48.958-52.698-50.186-53.708l-19.615-16.132-4.658 24.966c-.464 2.484-7.865 43.564-2.203 97.768-33.357-21.299-60.109-30.878-61.535-31.382l-23.95-8.45 4.162 25.054c.395 2.378 7.363 42.775 31.13 89.962-28.403-5.371-48.43-5.261-49.576-5.249L0 301.509l12.479 22.119c1.471 2.606 36.779 64.276 103.212 102.63a253.444 253.444 0 0015.152 8.07H45.324v30h421.409zm-35.456-223.875c-8.501 27.551-25.546 70.298-56.939 107.713-15.101 17.996-31.993 32.937-48.315 45.062 22.879-31.416 45.75-78.863 54.195-120.676 18.709-14.281 36.924-24.864 51.059-32.099zM358.3 168.317c4.771 60.894-9.784 143.183-54.691 204.483 13.234-42.057 21.035-103.56 13.943-152.904 14.169-21.71 29.098-39.248 40.748-51.579zm-102.253-57.385c44.85 96.662 44.763 208.496 0 304.77-44.93-97.158-44.815-207.713 0-304.77zm-102.255 57.422c11.646 12.33 26.559 29.855 40.714 51.542-7.052 49.197.628 110.805 13.694 152.555-44.77-61.256-59.119-143.393-54.408-204.097zm-21.953 104.198c8.453 41.846 31.351 89.336 54.241 120.757-54.091-37.782-90.758-102.049-105.31-152.887 14.103 7.217 32.293 17.793 51.069 32.13zm-75.907 61.234c11.321 1.6 25.064 4.212 39.891 8.475 18.644 28.561 47.293 57.02 72.764 75.484-46.018-14.955-90.068-53.661-112.655-83.959zm287.539 83.957c25.466-18.459 54.124-46.927 72.764-75.483 14.826-4.263 28.57-6.875 39.889-8.475-22.621 30.339-66.638 69-112.653 83.958z"></path>
  </symbol>
  <symbol xmlns="http://www.w3.org/2000/svg" viewBox="0 0 512 512" id="aztec">
    <path d="M256 0C115.042 0 0 115.049 0 256c0 140.958 115.049 256 256 256 140.96 0 256-115.049 256-256C512 115.04 396.951 0 256 0zm181.141 121H361V91h49.262a227.856 227.856 0 0126.879 30zM241 91v30h-60V91zm30 0h60v30h-60zm99.118-30H141.882C175.396 41.311 214.399 30 256 30s80.604 11.311 114.118 31zm-268.38 30H151v30H74.859a227.856 227.856 0 0126.879-30zM256 482c-86.736 0-162.201-49.122-200.076-121H91v-30H42.809a223.972 223.972 0 01-8.303-30H91v-30H30.51c-.327-4.96-.51-9.959-.51-15 0-37.882 9.383-73.608 25.924-105H241v120h30V151h185.076C472.617 182.392 482 218.118 482 256c0 5.041-.183 10.04-.51 15H421v30h56.494a223.972 223.972 0 01-8.303 30H421v30h35.076C418.201 432.878 342.736 482 256 482z"></path>
    <path d="M121 391h61.509c6.968 34.192 37.271 60 73.491 60s66.522-25.808 73.491-60H391v-90H121zm135 30c-24.813 0-45-20.187-45-45v-45h30v60h30v-60h30v45c0 24.813-20.187 45-45 45zm105-60h-30v-30h30zm-210-30h30v30h-30zm60-105c0-25.234-26.355-45-60-45s-60 19.766-60 45 26.355 45 60 45 60-19.766 60-45zm-90 0c0-6.116 11.687-15 30-15s30 8.884 30 15-11.687 15-30 15-30-8.884-30-15zm240-45c-33.645 0-60 19.766-60 45s26.355 45 60 45 60-19.766 60-45-26.355-45-60-45zm0 60c-18.313 0-30-8.884-30-15s11.687-15 30-15 30 8.884 30 15-11.687 15-30 15z"></path>
  </symbol>
  <symbol xmlns="http://www.w3.org/2000/svg" viewBox="0 0 510 510" id="beer">
    <path d="M202.017 127.5V30h30V0h-180v30h30v97.5c0 20.958-6.925 41.734-19.5 58.5-16.443 21.924-25.5 49.092-25.5 76.5V460c0 27.57 22.43 50 50 50h110c27.57 0 50-22.43 50-50V262.5c0-27.408-9.057-54.576-25.5-76.5-12.576-16.766-19.5-37.542-19.5-58.5zM99.597 360c14.148 39.893 70.684 39.916 84.84 0h32.58v60h-150v-60zm27.42-15c0-8.271 6.728-15 15-15 8.271 0 15 6.729 15 15 0 8.272-6.729 15-15 15-8.272 0-15-6.728-15-15zm57.419-15c-6.192-17.459-22.865-30-42.42-30s-36.228 12.541-42.42 30h-32.58v-60h150v60zM172.017 30v30h-60V30zm-85.5 174c16.444-21.925 25.5-49.093 25.5-76.5V90h60v37.5c0 27.407 9.056 54.575 25.5 76.5 8.024 10.697 13.734 23.031 16.826 36H69.689c3.092-12.969 8.803-25.303 16.828-36zm110.5 276h-110c-11.028 0-20-8.972-20-20v-10h150v10c0 11.028-8.972 20-20 20zm94.033-240l16.875 270h148.184l16.875-270zm150 30l-4.688 75h-22.575c-33.371 0-38.457 15-63.541 15h-21.638l-5.625-90zM336.108 480l-5.625-90c12.571-.852 33.215 3.43 58.241-9.083 17.239-8.62 30.408-5.091 45.763-5.917l-6.562 105z"></path>
  </symbol>
  <symbol xmlns="http://www.w3.org/2000/svg" viewBox="0 0 509.723 509.723" id="burrito">
    <path d="M164.396 254.723h30v30h-30zm0 120h30v30h-30zm150-135h30v30h-30zm0 135h30v30h-30z"></path>
    <path d="M405.325 149.288l-.028-.475c-.898-14.78-5.858-22.586-10.234-29.473-2.06-3.24-4.004-6.302-5.747-10.506h-.001c-7.831-18.883-12.772-24.754-26.023-38.006-14.558-14.56-34.841-18.943-50.535-25.032-15.237-61.08-101.503-61.044-116.718-.001-15.669 6.082-35.968 10.467-50.536 25.033-13.251 13.25-18.192 19.121-26.023 38.006-1.735 4.186-3.532 7.222-5.435 10.437-4.087 6.907-8.72 14.735-9.62 29.542v.91h-.028v360h300c-.001-.1.99-384.582.928-360.435zM139.861 134.55c2.13-3.599 4.781-8.078 7.329-14.225 6.016-14.508 8.316-17.075 19.524-28.284 6.561-6.56 17.156-10.198 28.373-14.05 12.375-4.249 13.43-4.917 15.035-5.525 7.704-3.19 13.24-10.056 14.811-18.364 6.617-32.316 52.319-32.296 58.927-.002 1.569 8.31 7.107 15.176 14.78 18.354l.153.064c16.41 6.802 33.886 10.126 43.283 19.523 11.209 11.21 13.51 13.779 19.526 28.285 2.739 6.606 5.733 11.317 8.139 15.104 3.481 5.479 5.111 8.044 5.581 14.76v.153c-16.586 1.408-32.783 5.284-48.095 11.513-19.422-75.737-126.314-75.662-145.672.033a163.712 163.712 0 00-47.16-11.477v-.207c.498-7.261 2.179-10.101 5.466-15.655zm69.657 42.029c5.543-55.459 84.154-55.469 89.751-.062a165.492 165.492 0 00-44.91 43.396 166.334 166.334 0 00-44.841-43.334zm44.878 138.144v30c0 69.369-52.595 126.686-120 134.172V180.551c67.405 7.487 120 64.803 120 134.172zm16.652-64.988c21.353-38.955 59.63-64.433 103.348-69.199v298.375c-43.717-4.766-81.995-30.244-103.348-69.199 8.583-19.955 13.348-41.924 13.348-64.988v-30c0-23.065-4.765-45.034-13.348-64.989zm-16.689 189.799a165.426 165.426 0 0040.18 40.189h-80.385a166.378 166.378 0 0040.205-40.189z"></path>
  </symbol>
  <symbol xmlns="http://www.w3.org/2000/svg" viewBox="0 0 512 512" id="cactus">
    <path d="M298.462 431.978h.113a7.5 7.5 0 000-15h-.113a7.5 7.5 0 000 15zm1.932 25.249l-.113-.028a7.5 7.5 0 10-3.638 14.552l.113.028c.61.153 1.222.226 1.825.226a7.503 7.503 0 007.27-5.683 7.5 7.5 0 00-5.457-9.095zm-1.819-241.113h-.113a7.5 7.5 0 000 15h.113a7.5 7.5 0 000-15zm-.056 44.901a7.5 7.5 0 00-7.5 7.5v105.988a7.5 7.5 0 0015 0V268.515a7.5 7.5 0 00-7.5-7.5zm-42.632 67.016H256a7.5 7.5 0 000-15h-.113a7.5 7.5 0 000 15zm-42.406 101.112a7.5 7.5 0 007.5-7.5V217.52a7.5 7.5 0 00-15 0v204.124a7.5 7.5 0 007.5 7.499zm-1.932 29.767l.113.028c.61.153 1.222.226 1.825.226a7.503 7.503 0 007.27-5.683 7.5 7.5 0 00-5.457-9.095l-.113-.028a7.5 7.5 0 00-3.638 14.552zm229.407-160.846h-.113a7.5 7.5 0 000 15h.113a7.5 7.5 0 000-15zM71.242 335.651h-.085c-4.142 0-7.458 3.358-7.458 7.5s3.4 7.5 7.542 7.5a7.5 7.5 0 00.001-15z"></path>
    <path d="M496.485 295.626H480.09v-34.521h16.395a7.5 7.5 0 000-15h-16.718c-2.442-19.312-18.961-34.299-38.924-34.299-21.625 0-39.219 17.607-39.219 39.249v52.072c0 13.839-11.259 25.099-25.098 25.099h-27.989v-69.218h16.424a7.5 7.5 0 000-15h-16.424V190.38c68.884-3.116 77.218-49.142 78.108-63.607.045-.752.103-1.435.154-2.053.27-3.216.605-7.218-2.479-10.572-3.232-3.515-7.973-3.794-13.835-3.794H356.38c-9.538-28.465-23.58-54.739-39.861-74.456C297.127 12.413 276.2 0 256 0c-20.198 0-41.126 12.413-60.522 35.896-16.281 19.713-30.332 45.988-39.884 74.457h-54.078c-5.87 0-10.617.279-13.847 3.794-3.081 3.354-2.743 7.343-2.471 10.548.053.625.112 1.314.158 2.085.872 14.451 9.16 60.485 78.107 63.599v29.294a7.5 7.5 0 0015 0V190.55H248.5v99.961a7.5 7.5 0 0015 0V190.55h70.037V497H263.5V380.512a7.5 7.5 0 00-15 0V497h-70.037V254.313a7.5 7.5 0 00-15 0v18.664h-16.424a7.5 7.5 0 000 15h16.424v36.761h-16.424a7.5 7.5 0 000 15h16.424v46.768h-27.989c-13.604 0-25.098-11.494-25.098-25.099v-92.778c0-21.642-17.593-39.248-39.219-39.248-20.797 0-37.858 16.262-39.159 36.737H15.515a7.5 7.5 0 000 15H31.91v34.521H15.515a7.5 7.5 0 000 15H31.91v30.768c0 57.107 46.458 103.566 103.564 103.566a7.5 7.5 0 000-15c-48.834 0-88.564-39.73-88.564-88.566v-92.778c0-10.753 7.038-19.889 16.748-23.055v57.581a7.5 7.5 0 0015 0v-57.578c9.693 3.169 16.719 12.302 16.719 23.052v92.778c0 22.11 17.988 40.099 40.098 40.099h27.989v98.034c0 6.871 5.59 12.46 12.46 12.46h160.153c6.871 0 12.46-5.59 12.46-12.46v-41.086h19.712a7.5 7.5 0 000-15h-19.712v-36.761h27.989c21.25 0 41.702-6.437 59.143-18.613a7.5 7.5 0 00-8.587-12.299c-14.91 10.41-32.392 15.912-50.556 15.912h-27.989v-48.468h27.989c22.11 0 40.098-17.988 40.098-40.099v-52.072c0-10.75 7.025-19.883 16.719-23.053v37.566a7.5 7.5 0 0015 0v-37.569c9.71 3.167 16.748 12.302 16.748 23.056v52.072c0 18.578-5.757 36.415-16.648 51.582a7.5 7.5 0 0012.183 8.749c11.261-15.682 17.818-33.813 19.186-52.831h16.674a7.5 7.5 0 10-.001-15zm-86.001-170.273c.447 0 .852.003 1.22.007l-.032.508c-.609 9.905-4.656 28.514-25.089 39.932l-27.562-40.447zM256 15c18.708 0 39.706 16.13 57.574 41.89-3.257 1.347-6.265 3.144-8.863 5.363-7.097 6.043-19.091 6.044-26.19 0-12.804-10.901-32.862-10.902-45.667 0-7.098 6.043-19.092 6.043-26.179.009-2.474-2.114-5.323-3.835-8.397-5.16C216.187 31.219 237.249 15 256 15zm-65.925 55.022c2.597.773 4.948 2.013 6.866 3.652 6.398 5.447 14.609 8.171 22.819 8.171 8.211 0 16.421-2.724 22.819-8.171 7.105-6.051 19.112-6.05 26.218 0 12.796 10.895 32.843 10.896 45.649-.009 2.042-1.745 4.586-3.027 7.392-3.783 7.073 12.113 13.415 25.777 18.653 40.471H171.485c5.225-14.638 11.544-28.253 18.59-40.331zm-89.746 55.863c-.011-.178-.021-.353-.033-.524.368-.005.774-.007 1.22-.007h51.463l-27.57 40.459c-20.453-11.416-24.483-30.028-25.08-39.928zm70.634 49.665c-12.535 0-22.859-1.467-31.365-3.924l27.566-40.453 30.233 44.377zm10.386-50.197h60.466l-30.233 44.376zm44.418 50.197L256 131.174l30.233 44.376zm44.418-50.197h60.466l-30.233 44.376zm70.852 50.197h-26.435l30.233-44.377 27.562 40.447c-8.504 2.461-18.826 3.93-31.36 3.93z"></path>
  </symbol>
  <symbol xmlns="http://www.w3.org/2000/svg" viewBox="0 0 510 510" id="chili-sauce">
    <path d="M368.822 182.869C325.467 151.337 300.656 72.756 299.393 30H330V0H180v30h30.607c-1.264 42.756-26.074 121.337-69.43 152.869L135 187.361V510h240V187.361zM240.565 30h28.869c.247 9.124 1.353 19.309 3.204 30h-35.277c1.852-10.691 2.957-20.876 3.204-30zm-16.439 80.045A309.985 309.985 0 00230.512 90h48.977a309.367 309.367 0 006.386 20.045 309.806 309.806 0 003.752 9.955h-69.252a314.56 314.56 0 003.751-9.955zM345 480H165v-45h180zm0-75H165V255h180zm0-180H165v-22.663c17.565-14.512 31.113-33.426 41.407-52.337h97.186c10.293 18.911 23.842 37.825 41.407 52.337z"></path>
    <path d="M255 374.978c24.781-.002 45-20.004 45-44.978 0-12.021-4.682-23.321-13.181-31.819C258.648 270.008 210 290.021 210 330c0 25.025 20.273 44.98 45 44.978zM255 315c8.287 0 15 6.709 15 15 0 13.304-16.192 20.021-25.606 10.606v-.001A14.893 14.893 0 01240 330c0-8.289 6.708-15 15-15z"></path>
  </symbol>
  <symbol xmlns="http://www.w3.org/2000/svg" viewBox="0 0 512 512" id="empanada">
    <path d="M506.8 204.41a255.532 255.532 0 00-14.92-48.06 256.403 256.403 0 00-23.6-43.48 256.873 256.873 0 00-15.535-20.648l18.835-13.179c8.07-5.647 13.38-14.177 14.949-24.015 3.195-20.012-10.401-39.419-30.31-43.263-9.793-1.889-19.629.181-27.698 5.832-.3.21-.596.424-.889.642-5.456-8.426-14.164-14.728-24.61-16.745-9.786-1.887-19.626.181-27.696 5.831a36.242 36.242 0 00-5.204 4.426C361.796 3.068 355.875 0 339 0c-6.433 0-14.039 4.16-18.863 8.118A254.743 254.743 0 00307.589 5.2C290.725 1.75 273.362 0 256 0c-17.363 0-34.725 1.75-51.59 5.2a255.565 255.565 0 00-48.061 14.92 256.356 256.356 0 00-43.479 23.6 257.871 257.871 0 00-37.891 31.26 258.334 258.334 0 00-31.26 37.89 256.403 256.403 0 00-23.6 43.48A254.798 254.798 0 005.2 204.41C1.75 221.27 0 238.63 0 256s1.75 34.73 5.2 51.59a254.728 254.728 0 0014.92 48.06 256.333 256.333 0 0023.6 43.48c9.16 13.56 19.68 26.3 31.26 37.89a257.767 257.767 0 0037.891 31.26 256.432 256.432 0 0043.479 23.6 255.52 255.52 0 0048.061 14.92c16.859 3.45 34.22 5.2 51.59 5.2h.02c26.34 0 52.33-3.99 77.23-11.87a254.576 254.576 0 0067.78-33.15 9.99 9.99 0 002.569-13.91 10.018 10.018 0 00-8.25-4.33c-2.02 0-3.979.61-5.66 1.77C350.27 477.65 304.04 492 256 492c-63.021 0-122.29-24.55-166.88-69.12C44.55 378.29 20 319.03 20 256c0-63.02 24.55-122.29 69.12-166.88C133.71 44.55 192.97 20.01 256 20c6.962.001 13.875.318 20.73.912a36.306 36.306 0 00-6.786 3.738c-7.094 4.964-12.066 12.046-14.427 20.356C139.393 45.269 45 139.816 45 256c0 116.346 94.654 211 211 211s211-94.654 211-211c0-51.039-18.135-99.552-51.281-137.872l20.587-14.405C472.347 146.271 492 199.631 492 256c0 48.1-14.38 94.37-41.57 133.81-3.13 4.54-1.99 10.78 2.55 13.91a10.014 10.014 0 005.67 1.77c3.29 0 6.37-1.62 8.24-4.33 14.41-20.89 25.59-43.71 33.22-67.84C508 308.39 512 282.37 512 256c0-17.37-1.75-34.73-5.2-51.59zM277.061 81.666a9.999 9.999 0 00.856-12.538c-2.959-4.223-4.394-9.9-3.837-15.188.403-3.829 2.002-9.176 7.329-12.903 8.978-6.283 22.059-1.884 27.755 6.245a9.999 9.999 0 0018.014-7.599c-.872-4.61.076-9.191 2.672-12.897 2.478-3.537 6.199-5.869 10.48-6.568 9.282-1.515 18.3 5.012 20.105 14.55a9.997 9.997 0 009.823 8.14l.146-.001a10 10 0 009.731-8.422c.709-4.438 3.074-8.267 6.662-10.778 3.592-2.516 8.006-3.432 12.434-2.576 9.425 1.819 15.863 11.004 14.352 20.473a10.054 10.054 0 00-.126 1.585c-.002 4.83 3.504 9.081 8.425 9.866 5.45.873 10.581-2.845 11.451-8.299.708-4.438 3.074-8.266 6.661-10.778 3.594-2.516 8.012-3.431 12.435-2.576 9.425 1.819 15.862 11.003 14.351 20.473-.708 4.44-3.076 8.269-6.665 10.781L240.767 216.132c-3.593 2.514-8.008 3.429-12.43 2.573-9.426-1.82-15.863-11.004-14.352-20.473.709-4.439 3.074-8.267 6.662-10.778a15.957 15.957 0 019.204-2.888c1.067 0 2.148.103 3.229.312 5.423 1.046 10.667-2.5 11.714-7.923.124-.641.184-1.279.184-1.908-.001-4.696-3.324-8.883-8.106-9.807-9.426-1.82-15.863-11.004-14.352-20.473.709-4.438 3.075-8.267 6.662-10.778 3.592-2.516 8.007-3.432 12.434-2.576a9.995 9.995 0 0011.243-6.266 10 10 0 00-4.243-12.152c-8.35-4.956-11.405-15.651-6.81-23.841 2.118-3.777 5.582-6.472 9.751-7.59 4.379-1.175 9.021-.5 13.065 1.902a10.003 10.003 0 0012.439-1.8zm34.267 117.299a9.999 9.999 0 005.597 11.588 10 10 0 0012.378-3.52c2.521-3.727 6.284-6.198 10.598-6.958 4.319-.761 8.703.277 12.353 2.922 7.776 5.633 9.73 16.676 4.355 24.617a9.955 9.955 0 00-1.72 5.603 9.989 9.989 0 004.396 8.284c4.574 3.097 10.792 1.898 13.887-2.676 2.521-3.726 6.287-6.196 10.604-6.957 4.322-.762 8.709.275 12.355 2.917 7.771 5.634 9.726 16.68 4.356 24.622a16.525 16.525 0 01-4.76 4.674 15.746 15.746 0 01-5.84 2.279L126.23 312.761c-4.322.76-8.714-.281-12.361-2.917-7.771-5.634-9.725-16.68-4.354-24.624 3.093-4.576 7.964-7.2 13.364-7.2 3.416 0 6.732 1.095 9.593 3.167h.001c4.47 3.239 10.725 2.241 13.964-2.231 3.24-4.472 2.242-10.725-2.23-13.965l-.001-.001c-7.775-5.633-9.729-16.675-4.35-24.624 2.514-3.721 6.271-6.19 10.579-6.951 4.319-.761 8.713.273 12.367 2.921a9.999 9.999 0 0012.837-.928 9.999 9.999 0 001.291-12.805c-5.473-8.025-3.726-19.008 3.896-24.486 2.739-1.969 5.941-3.01 9.263-3.01 1.369 0 2.737.188 4.07.537-2.851 19.81 10.667 38.888 30.386 42.696 2.363.456 4.729.682 7.073.682 7.359 0 14.493-2.224 20.612-6.505l59.323-41.508a18.271 18.271 0 01-.225 7.956zm25.595 103.588a9.997 9.997 0 0012.38-3.52c2.521-3.726 6.284-6.197 10.598-6.957 4.317-.761 8.704.277 12.353 2.922 7.776 5.633 9.73 16.676 4.355 24.617a9.955 9.955 0 00-1.72 5.603 9.989 9.989 0 004.396 8.284c4.573 3.097 10.791 1.898 13.887-2.676 2.521-3.726 6.287-6.196 10.604-6.957 4.321-.761 8.709.275 12.355 2.917 7.771 5.634 9.726 16.68 4.356 24.622a16.525 16.525 0 01-4.76 4.674 15.746 15.746 0 01-5.84 2.279l-263.657 46.4c-4.323.756-8.713-.281-12.361-2.917-7.771-5.634-9.725-16.68-4.354-24.624 3.093-4.576 7.964-7.2 13.364-7.2 3.408 0 6.719 1.091 9.574 3.154l.02.014c4.47 3.238 10.724 2.241 13.964-2.231s2.242-10.725-2.23-13.965l-.001-.001c-7.775-5.633-9.729-16.675-4.35-24.624 2.514-3.721 6.271-6.189 10.579-6.951 4.319-.763 8.713.274 12.367 2.921a10.002 10.002 0 0012.844-.934 9.983 9.983 0 003.021-7.084l132.983-23.403a9.987 9.987 0 005.273 5.637zM237.61 65.889c-5.487 3.182-10.05 7.782-13.247 13.48-6.176 11.009-6.012 24.066-.701 34.855a36.283 36.283 0 00-5.951 3.382c-8.063 5.646-13.37 14.173-14.94 24.008-1.531 9.589.802 19.033 5.829 26.699a41.688 41.688 0 00-3.111 5.728 35.808 35.808 0 00-3.131 3.238c-3.935-1.417-8.097-2.169-12.267-2.169-7.536 0-14.776 2.341-20.935 6.77-10.248 7.364-15.616 19.266-15.361 31.29a36.499 36.499 0 00-6.838.552c-9.691 1.712-18.098 7.199-23.667 15.443-5.96 8.805-7.66 19.413-5.559 29.227-9.977 1.449-18.996 7.063-24.784 15.627-11.348 16.784-7.228 40.119 9.195 52.025 6.331 4.576 13.708 6.964 21.269 6.964 2.086 0 4.188-.182 6.283-.55l8.919-1.57c-1.994 6.359-2.253 13.099-.882 19.503-9.977 1.449-18.996 7.063-24.784 15.627a37.164 37.164 0 00-4.933 10.59C81.142 343.7 65 301.702 65 256c0-99.114 75.889-180.827 172.61-190.111zM256 447c-34.108 0-66.15-8.996-93.896-24.726l238.842-42.032C365.89 421.082 313.917 447 256 447zm191-191c0 22.095-3.784 43.319-10.716 63.076a37.211 37.211 0 00-8.417-8.484c-8.073-5.849-17.864-8.129-27.562-6.419-.362.064-.724.133-1.083.208-.904-6.488-3.455-12.736-7.507-18.033l1.635-.288a35.643 35.643 0 0013.205-5.162 36.432 36.432 0 0010.5-10.287c11.348-16.784 7.228-40.118-9.188-52.02-8.073-5.849-17.862-8.129-27.562-6.419-.362.064-.724.133-1.083.208-1.385-9.942-6.614-19.334-15.231-25.576-8.071-5.852-17.859-8.132-27.559-6.425a36.17 36.17 0 00-6.565 1.803 38.516 38.516 0 00-1.217-3.131l70.591-49.392C430.097 164.58 447 209.114 447 256z"></path>
    <circle cx="429.9" cy="430" r="10"></circle>
  </symbol>
  <symbol xmlns="http://www.w3.org/2000/svg" viewBox="0 0 512.001 512.001" id="flag">
    <path d="M473.101 371.85c.176-.61.338-1.227.479-1.848.047-.201.089-.403.131-.604.113-.54.213-1.085.3-1.632.037-.237.076-.474.11-.711.076-.546.131-1.095.18-1.644.02-.225.047-.448.063-.674.052-.767.084-1.537.084-2.313v-.006l-.005-40.904v-.002l-.005-26.203v-.002l-.001-4.213-.004-25.574-.008-48.824-.005-26.203-.007-40.985a34.147 34.147 0 00-2.68-13.185 34.09 34.09 0 00-11.925-14.74 33.792 33.792 0 00-2.421-1.553l-22.874-13.202-21.413-12.36-17.24-9.949-65.924-38.046-25.717-14.844-19.288-11.132-11.953-6.899a34.04 34.04 0 00-34.04.007l-11.872 6.857-19.288 11.14-25.718 14.854-65.915 38.072-28.89 16.686-21.408 12.365-11.282 6.516c-.811.469-1.59.98-2.353 1.507a34.048 34.048 0 00-8.331 8.236 33.98 33.98 0 00-3.773 6.841 33.922 33.922 0 00-2.557 12.899l.006 40.913.005 26.203.012 73.738v4.88l.005 26.198v1.865l.002 12.617.004 26.496v.007c0 .773.033 1.539.084 2.305.016.224.042.445.061.668.048.55.105 1.096.18 1.638.033.236.072.471.108.708a35.695 35.695 0 00.429 2.228c.14.615.298 1.222.471 1.825.033.113.061.228.095.34a34.002 34.002 0 003.94 8.588v.002a34.13 34.13 0 004.027 5.139c.051.053.099.106.148.159a34.848 34.848 0 002.231 2.112c.125.11.254.215.382.322a33.98 33.98 0 004.864 3.443l22.552 13.016 21.414 12.359 17.561 10.134 91.644 52.89 19.288 11.132 11.953 6.899a34.04 34.04 0 0034.04-.007l11.872-6.857 19.288-11.14 25.717-14.853 55.554-32.086 10.363-5.985 26.36-15.225 21.408-12.365 13.813-7.977a33.62 33.62 0 004.798-3.391c.129-.106.259-.212.386-.323a33.802 33.802 0 002.236-2.108c.046-.048.09-.098.136-.145a34.038 34.038 0 008.019-13.767c.037-.106.064-.215.094-.323z" fill="#fff"></path>
    <path d="M165.587 348.032V55.971l-49.442 28.556-28.89 16.686-21.408 12.365-11.282 6.516c-.811.469-1.59.98-2.353 1.507a34.048 34.048 0 00-8.331 8.236 33.98 33.98 0 00-3.773 6.841 33.922 33.922 0 00-2.557 12.899l.006 40.913.005 26.203.012 73.738v4.88l.005 26.198v1.865l.001 12.617.005 26.496v.007c0 .773.033 1.539.084 2.305.016.224.042.445.061.668.049.55.105 1.096.18 1.638.033.236.071.471.11.708.086.544.184 1.085.298 1.625.042.201.084.403.13.603.14.615.298 1.222.471 1.825.033.113.061.228.095.34a33.967 33.967 0 003.94 8.588v.002a34.13 34.13 0 004.027 5.139c.051.053.099.106.148.159a34.848 34.848 0 002.231 2.112c.125.11.254.215.382.322a33.76 33.76 0 002.445 1.89c.784.545 1.584 1.07 2.419 1.553l22.552 13.016 21.414 12.359 17.561 10.134 49.452 28.539V348.031h.002z" fill="#259245"></path>
    <path d="M474.443 321.512v-.002l-.005-26.203v-.002l-.001-4.213-.004-25.574-.008-48.824-.005-26.203-.007-40.985c0-2.995-.406-5.931-1.16-8.75a33.998 33.998 0 00-1.52-4.435 34.09 34.09 0 00-11.925-14.74 33.792 33.792 0 00-2.421-1.553l-22.874-13.202L413.1 94.468l-17.24-9.949-49.448-28.538v400.046l39.076-22.57 10.363-5.985 26.36-15.225 21.408-12.365 13.813-7.977a33.62 33.62 0 004.798-3.391c.129-.106.259-.212.386-.323a34.068 34.068 0 002.236-2.108c.047-.048.09-.098.136-.145a34.05 34.05 0 008.019-13.767c.033-.106.06-.215.09-.322.176-.611.338-1.228.479-1.849.047-.201.089-.403.131-.604.113-.54.213-1.085.3-1.632.037-.237.076-.474.11-.712.076-.545.131-1.093.18-1.643.02-.225.047-.448.063-.674.052-.767.084-1.537.084-2.313v-.006l-.001-40.904z" fill="#ed1f34"></path>
    <path d="M255.998 308.741c-34.899 0-63.29-28.392-63.29-63.29a9.04 9.04 0 019.041-9.041 9.04 9.04 0 019.041 9.041c0 24.928 20.279 45.207 45.207 45.207s45.207-20.279 45.207-45.207c0-4.994 4.047-9.041 9.041-9.041s9.041 4.047 9.041 9.041c.002 34.899-28.389 63.29-63.288 63.29z" fill="#134923"></path>
    <path d="M255.998 278.603c-18.281 0-33.152-14.871-33.152-33.152s14.871-33.152 33.152-33.152c18.279 0 33.152 14.871 33.152 33.152s-14.871 33.152-33.152 33.152z" fill="#f2a643"></path>
    <path d="M483.454 149.505c0-3.708-.493-7.438-1.464-11.075a43.31 43.31 0 00-1.926-5.623 43.056 43.056 0 00-15.092-18.647 42.543 42.543 0 00-3.066-1.965L277.497 5.767A43.137 43.137 0 00255.963 0a43.121 43.121 0 00-21.547 5.776L50.041 112.265a42.247 42.247 0 00-2.978 1.902 42.979 42.979 0 00-10.547 10.421 43.19 43.19 0 00-4.775 8.658 42.804 42.804 0 00-3.234 16.334l.035 212.917c0 .921.034 1.876.105 2.919.016.234.037.469.061.702l.014.143c.061.693.134 1.385.231 2.095.034.24.071.477.108.716l.025.16a44.488 44.488 0 00.543 2.821c.177.779.377 1.547.608 2.351l.112.393a43.1 43.1 0 004.988 10.875 43.055 43.055 0 005.089 6.494c.04.042.153.164.195.206.896.929 1.847 1.83 2.81 2.663l.498.419a42.475 42.475 0 003.096 2.388 42.901 42.901 0 003.064 1.963L234.5 506.233a43.143 43.143 0 0021.534 5.768 43.133 43.133 0 0021.547-5.777l184.37-106.486a42.731 42.731 0 002.991-1.91 44.741 44.741 0 003.177-2.447l.405-.339a44.32 44.32 0 002.881-2.723l.119-.127c4.695-4.904 8.205-10.929 10.122-17.332.053-.171.102-.342.143-.497a44.41 44.41 0 00.608-2.34 46.318 46.318 0 00.566-2.95c.041-.259.082-.518.122-.802.093-.687.168-1.378.227-2.061l.014-.143c.025-.24.047-.48.063-.721.072-1.057.106-2.018.105-2.931l-.04-212.91zM268.538 490.566a25.039 25.039 0 01-12.504 3.351 25.043 25.043 0 01-12.496-3.348l-68.912-39.771v-86.301a9.04 9.04 0 00-9.041-9.041 9.04 9.04 0 00-9.041 9.041v75.866l-97.413-56.222a25.056 25.056 0 01-3.562-2.528l-.293-.246a24.43 24.43 0 01-1.589-1.497l-.157-.169a25.108 25.108 0 01-2.956-3.772l-.047-.074a24.942 24.942 0 01-2.849-6.239l-.069-.246a25.696 25.696 0 01-.351-1.354l-.093-.428a27.113 27.113 0 01-.217-1.183l-.082-.523c-.054-.4-.096-.803-.13-1.203l-.048-.493a24.425 24.425 0 01-.064-1.699l-.034-212.91c0-3.24.632-6.425 1.881-9.467a24.958 24.958 0 012.769-5.025 24.982 24.982 0 016.119-6.053 24.798 24.798 0 011.725-1.109l97.459-56.288v256.696a9.04 9.04 0 009.041 9.041 9.04 9.04 0 009.041-9.041V61.191l68.834-39.757a25.023 25.023 0 0112.504-3.351 25.02 25.02 0 0112.495 3.347l68.912 39.771v389.608l-68.832 39.757zM465.346 364.1l-.051.52c-.035.408-.076.813-.128 1.191l-.064.407-.021.127c-.064.404-.137.804-.218 1.191l-.096.447c-.105.457-.224.909-.362 1.386l-.06.217a25.148 25.148 0 01-5.905 10.118l-.083.09a25.171 25.171 0 01-1.635 1.543l-.293.242a26.394 26.394 0 01-1.784 1.382c-.678.468-1.226.821-1.734 1.114l-97.458 56.288V71.638l97.413 56.219a24.65 24.65 0 011.778 1.145 25.003 25.003 0 018.757 10.826 25.1 25.1 0 011.972 9.677l.035 212.931c-.001.567-.027 1.13-.063 1.664z"></path>
  </symbol>
  <symbol xmlns="http://www.w3.org/2000/svg" viewBox="0 0 512 512" id="hat_first">
    <path d="M502 246H385.824c-.82-23.608-4.504-48.274-10.779-71.944l-.078-.286C358.763 112.912 317.569 36 256 36c-61.715 0-102.841 77.21-118.967 137.769l-.079.289c-6.274 23.669-9.958 48.335-10.778 71.942H10c-5.523 0-10 4.478-10 10 0 39.917 23.839 75.89 60 91.668v49.598c-17.233 4.452-30 20.13-30 38.734 0 22.056 17.944 40 40 40s40-17.944 40-40c0-18.604-12.767-34.282-30-38.734v-43.282A100.386 100.386 0 00100 356h83v41.266c-17.233 4.452-30 20.13-30 38.734 0 22.056 17.944 40 40 40s40-17.944 40-40c0-18.604-12.767-34.282-30-38.734V356h106v41.266c-17.233 4.452-30 20.13-30 38.734 0 22.056 17.944 40 40 40s40-17.944 40-40c0-18.604-12.767-34.282-30-38.734V356h83c6.771 0 13.457-.688 20-2.016v43.282c-17.233 4.452-30 20.13-30 38.734 0 22.056 17.944 40 40 40s40-17.944 40-40c0-18.604-12.767-34.282-30-38.734v-49.598c36.163-15.781 60-51.753 60-91.668 0-5.522-4.477-10-10-10zM213 436c0 11.028-8.972 20-20 20s-20-8.972-20-20 8.972-20 20-20 20 8.972 20 20zm126 0c0 11.028-8.972 20-20 20s-20-8.972-20-20 8.972-20 20-20 20 8.972 20 20zM181.321 116h149.358c9.489 16.994 17.535 36.722 23.511 57.668l-8.19 8.19-22.929-22.929c-3.905-3.904-10.237-3.904-14.143 0L286 181.857l-22.929-22.929c-3.905-3.904-10.237-3.904-14.143 0L226 181.857l-22.929-22.929c-3.905-3.904-10.237-3.904-14.143 0L166 181.857l-8.19-8.19c5.977-20.945 14.022-40.672 23.511-57.667zM256 56c21.413 0 43.015 14.068 61.945 40h-123.89C212.984 70.069 234.586 56 256 56zM90 436c0 11.028-8.972 20-20 20s-20-8.972-20-20 8.972-20 20-20 20 8.972 20 20zm372 0c0 11.028-8.972 20-20 20s-20-8.972-20-20 8.972-20 20-20 20 8.972 20 20zm-50-100H100c-40.557 0-74.357-30.214-79.373-70H211c5.523 0 10-4.478 10-10s-4.477-10-10-10h-64.807c.604-16.248 2.661-33.035 6.062-49.604l6.675 6.675c3.905 3.904 10.237 3.904 14.143 0L196 180.143l22.929 22.929c3.905 3.904 10.237 3.904 14.143 0L256 180.143l22.929 22.929c3.905 3.904 10.237 3.904 14.143 0L316 180.143l22.929 22.929c1.953 1.952 4.512 2.929 7.071 2.929s5.119-.977 7.071-2.929l6.675-6.675c3.4 16.569 5.458 33.357 6.062 49.604H301c-5.523 0-10 4.478-10 10s4.477 10 10 9.99h190.372C486.365 305.719 452.637 336 412 336z"></path>
    <circle cx="256" cy="256" r="10"></circle>
  </symbol>
  <symbol xmlns="http://www.w3.org/2000/svg" viewBox="0 0 512 512" id="hat_second">
    <path d="M497 191H388.032L362.823 77.561c-4.18-18.81-14.759-35.808-29.788-47.864C318.005 17.64 299.116 11 279.848 11h-47.696c-19.268 0-38.157 6.64-53.187 18.696-15.03 12.057-25.609 29.055-29.789 47.864L123.968 191H15c-8.284 0-15 6.716-15 15 0 52.383 42.617 95 95 95h322c52.383 0 95-42.617 95-95 0-8.284-6.716-15-15-15zM178.461 84.068C184.097 58.71 206.175 41 232.152 41h47.696c25.977 0 48.055 17.71 53.69 43.068l4.371 19.668-32.484 19.717-41.642-25.276a15 15 0 00-15.566 0l-41.642 25.276-32.484-19.717zm-11.242 50.59l31.573 19.164a15 15 0 0015.566 0L256 128.547l41.642 25.276a15 15 0 0015.566 0l31.573-19.164L357.301 191H154.699zM71.738 266.683C51.907 259.055 36.722 241.986 31.747 221H106zM106 271l30-40 30 40zm60-50h60l-30 40zm60 50l30-40 30 40zm60-50h60l-30 40zm60 50l30-40 30 40zm94.262-4.317L406 221h74.253c-4.975 20.986-20.159 38.055-39.991 45.683zm2.816 106.092a14.997 14.997 0 00-15.398.744l-18.397 12.265C389.681 398.852 363.849 398.135 345 384c-14.247-10.686-31.191-16.333-49-16.333-14.191 0-27.834 3.587-40 10.45-12.166-6.863-25.809-10.45-40-10.45-17.809 0-34.753 5.647-49 16.333-18.848 14.135-44.681 14.853-64.282 1.784L84.32 373.52a14.995 14.995 0 00-15.398-.744A14.997 14.997 0 0061 386c0 63.411 51.589 115 115 115 29.917 0 58.722-11.873 80-32.413C277.278 489.127 306.083 501 336 501c63.411 0 115-51.589 115-115a15 15 0 00-7.922-13.225zM336 471c-26.612 0-52.032-12.71-68-34a15 15 0 00-24 0c-15.968 21.29-41.388 34-68 34-36.004 0-66.853-22.504-79.22-54.183 28.419 13.516 62.535 10.447 88.22-8.817 18.252-13.688 43.748-13.688 62 0a15 15 0 0018 0c18.252-13.688 43.748-13.688 62 0 25.686 19.264 59.801 22.333 88.22 8.817C402.853 448.496 372.004 471 336 471z"></path>
  </symbol>
  <symbol xmlns="http://www.w3.org/2000/svg" viewBox="0 0 541.185 541.186" id="house">
    <path d="M203.784 231.318L27.882 205.557c9.285 31.126 27.167 56.189 50.69 69.471L45.218 502.865c-2.677 18.293 9.974 35.285 28.267 37.963s35.286-9.974 37.963-28.267l33.995-232.168c22.414-8.041 42.83-25.446 58.341-49.075zM147.719.824c-37.045-5.422-73.363 16.304-97.633 53.358L225.95 79.935C213.337 37.477 184.764 6.246 147.719.824zm-78.9 98.255l23.629 42.113 34.721-33.574 23.601 42.113 34.702-33.574 23.629 42.123 23.782-22.988c.354-12.192-.392-24.06-2.266-35.353L39.902 72.017c-6.589 13.445-11.676 28.334-14.956 44.255l9.18 16.381 34.693-33.574z"></path>
    <path d="M213.949 213.475c7.201-14.66 12.651-31.031 15.864-48.616l-25.245 24.413-23.629-42.113-34.721 33.583-23.601-42.113-34.712 33.574-23.629-42.113-34.702 33.583-8.568-15.291c-.498 12.843.249 25.331 2.237 37.179l190.706 27.914zm283.174-15.663L324.73 241.254c20.474 25.217 46.589 41.539 73.401 44.819l56.266 223.275c4.514 17.92 22.711 28.792 40.632 24.278 17.92-4.513 28.792-22.711 24.278-40.631l-57.336-227.53c17.633-16.007 29.854-39.884 35.152-67.653zM357.204 6.255c-36.309 9.151-61.562 43.108-69.815 86.627l172.354-43.433c-27.894-34.406-66.23-52.345-102.539-43.194zm-54.582 165.241l19.23-44.284 37.934 29.883 19.25-44.303 37.905 29.892 19.24-44.293 37.943 29.893 13.187-30.333c-4.331-11.398-9.553-22.08-15.605-31.805L284.797 113.25c-.947 14.946.038 30.647 3.098 46.607l14.727 11.639z"></path>
    <path d="M443.831 128.78l-19.239 44.303-37.906-29.893-19.239 44.293-37.935-29.883-19.23 44.293-13.761-10.854c4.457 12.049 9.917 23.313 16.275 33.507l186.899-47.095c1.052-16.304-.172-33.507-3.93-50.987l-14 32.207-37.934-29.891z"></path>
  </symbol>
  <symbol xmlns="http://www.w3.org/2000/svg" viewBox="0 0 512 512" id="malinalli">
    <path d="M501.801 27.311H10.199C4.567 27.311 0 31.878 0 37.511V474.49c0 5.633 4.567 10.199 10.199 10.199h491.602c5.632 0 10.199-4.566 10.199-10.199V37.511c0-5.633-4.567-10.2-10.199-10.2zM211.124 464.29H105.052V271.638h106.072V464.29zM84.653 251.24v-19.718h146.869v19.718H84.653zm406.949 213.05h-260.08V271.638h10.199c5.632 0 10.199-4.566 10.199-10.199v-40.117c0-5.633-4.567-10.199-10.199-10.199H74.454c-5.632 0-10.199 4.566-10.199 10.199v40.117c0 5.633 4.567 10.199 10.199 10.199h10.199V464.29H20.398V47.71h471.203v416.58z"></path>
    <path d="M424.542 233.562H321.275c-5.632 0-10.199 4.566-10.199 10.199v91.793c0 5.633 4.567 10.199 10.199 10.199h103.267c5.632 0 10.199-4.566 10.199-10.199v-91.793c0-5.633-4.567-10.199-10.199-10.199zm-10.199 91.793h-82.869V253.96h82.869v71.395zM92.813 72.414c-19.121 0-34.677 15.556-34.677 34.677 0 19.122 15.556 34.677 34.677 34.677s34.677-15.556 34.677-34.677c0-19.121-15.556-34.677-34.677-34.677zm0 48.957c-7.874 0-14.279-6.405-14.279-14.279s6.405-14.279 14.279-14.279 14.279 6.405 14.279 14.279-6.405 14.279-14.279 14.279zm109.131-48.957c-19.121 0-34.677 15.556-34.677 34.677 0 19.122 15.556 34.677 34.677 34.677s34.677-15.556 34.677-34.677c.001-19.121-15.555-34.677-34.677-34.677zm0 48.957c-7.874 0-14.279-6.405-14.279-14.279s6.405-14.279 14.279-14.279 14.279 6.405 14.279 14.279-6.405 14.279-14.279 14.279zm110.152-48.957c-19.121 0-34.677 15.556-34.677 34.677 0 19.122 15.556 34.677 34.677 34.677s34.677-15.556 34.677-34.677c0-19.121-15.556-34.677-34.677-34.677zm0 48.957c-7.874 0-14.279-6.405-14.279-14.279s6.405-14.279 14.279-14.279 14.279 6.405 14.279 14.279-6.406 14.279-14.279 14.279zm109.131-48.957c-19.121 0-34.677 15.556-34.677 34.677 0 19.122 15.556 34.677 34.677 34.677s34.677-15.556 34.677-34.677c0-19.121-15.555-34.677-34.677-34.677zm0 48.957c-7.874 0-14.279-6.405-14.279-14.279s6.405-14.279 14.279-14.279 14.279 6.405 14.279 14.279-6.405 14.279-14.279 14.279zm-97.912 313.115h-6.12c-5.632 0-10.199 4.566-10.199 10.199s4.567 10.199 10.199 10.199h6.12c5.632 0 10.199-4.566 10.199-10.199s-4.567-10.199-10.199-10.199zm147.888 0H360.032c-5.632 0-10.199 4.566-10.199 10.199s4.567 10.199 10.199 10.199h111.171c5.632 0 10.199-4.566 10.199-10.199s-4.567-10.199-10.199-10.199z"></path>
  </symbol>
  <symbol xmlns="http://www.w3.org/2000/svg" viewBox="0 0 512.002 512.002" id="maracas">
    <path d="M381.051 413.707c-4.078 18.852-22 34.875-41.314 34.875H120.725a7.5 7.5 0 000 15h24.093a40.836 40.836 0 00-.065 2.19c0 18.19 12.211 32.99 27.22 32.99 4.661 0 9.186-1.419 13.177-4.075a23.237 23.237 0 0010.183 2.355c3.535 0 6.982-.823 10.174-2.368 4.001 10.135 13.886 17.328 25.426 17.328 11.535 0 21.417-7.193 25.416-17.327 3.192 1.544 6.639 2.367 10.174 2.367 3.538 0 6.979-.803 10.183-2.355 3.991 2.656 8.517 4.075 13.177 4.075 15.009 0 27.22-14.799 27.22-32.99 0-.733-.026-1.463-.065-2.19h22.698c24.302 0 45.891-15.896 53.442-38.561 39.296-2.397 70.529-35.128 70.529-75.017 0-18.298-6.528-35.385-17.818-48.663 26.521-17.813 41.001-37.362 48.589-51.087 7.899-14.288 7.013-31.465-2.314-44.831l-13.37-19.159a17.423 17.423 0 00-12.773-7.401 17.453 17.453 0 00-13.899 5.041 118.47 118.47 0 01-16.531 13.753 668.89 668.89 0 0014.06-29.892c7.903-17.914.535-39.096-16.773-48.224l-3.516-1.854a281.778 281.778 0 002.852-11.437c4.172-18.408-4.454-37.583-20.977-46.63l-23.612-12.93a17.435 17.435 0 00-14.769-.943 17.4 17.4 0 00-10.181 10.708c-2.416 7.222-5.303 14.359-8.632 21.402a55.205 55.205 0 00-19.302-18.884l-9.036-5.272c-6.55-3.822-14.168-4.771-21.454-2.667-1.076.31-2.118.688-3.132 1.116.087-1.572.151-3.111.195-4.61.613-20.954-14.501-39.453-35.157-43.029L241.59.258c-4.735-.818-9.47.297-13.336 3.145a17.587 17.587 0 00-6.973 11.828c-1.944 14.901-8.701 49.017-30.862 70.562a667.527 667.527 0 00-1.525-33.904c-1.366-19.528-17.763-34.826-37.33-34.826H130.01a17.514 17.514 0 00-12.735 5.518 17.589 17.589 0 00-4.695 13.123c.979 15.034.941 31.577-.104 49.401a271.336 271.336 0 00-10.465-18.582C91.539 49.57 70.33 42.153 51.586 48.89L23.739 58.898a17.324 17.324 0 00-10.027 9.277c-1.961 4.363-2.062 9.21-.283 13.649 13.209 32.974 21.346 71.1 24.184 113.319a7.5 7.5 0 1014.966-1.006c-2.944-43.791-11.431-83.456-25.226-117.892a2.44 2.44 0 01.041-1.921 2.453 2.453 0 011.417-1.311L56.66 63.008c12.117-4.351 25.823.441 32.592 11.4 9.128 14.777 21.707 38.812 30.61 70.378-29.994 14.322-50.768 44.952-50.768 80.346 0 25.14 10.483 47.876 27.304 64.073H50.915c1.876-20.555 2.815-39.68 2.844-58.264a7.5 7.5 0 00-7.489-7.511h-.012a7.502 7.502 0 00-7.5 7.489c-.028 18.541-.989 37.661-2.908 58.287h-1.954c-10.185 0-18.47 8.286-18.47 18.471v70.483c0 4.826.886 9.448 2.493 13.719a18.415 18.415 0 00-2.493 9.25v43.982c0 10.185 8.286 18.47 18.47 18.47h50.538a7.5 7.5 0 000-15H33.897a3.474 3.474 0 01-3.47-3.47v-36.213c6.639 5.209 14.992 8.327 24.065 8.327 12.957 0 24.454-6.346 31.565-16.088 7.111 9.742 18.608 16.088 31.565 16.088 12.958 0 24.456-6.347 31.566-16.089 7.111 9.742 18.609 16.089 31.566 16.089s24.455-6.346 31.565-16.088c7.111 9.742 18.608 16.088 31.565 16.088s24.454-6.346 31.565-16.088c7.111 9.742 18.608 16.088 31.565 16.088 21.541 0 39.065-17.525 39.065-39.065v-19.9c0-9.737-7.304-17.783-16.718-18.991a59.179 59.179 0 014.986-15.24c13.005-26.809 4.514-59.414-19.753-75.842-.468-.317-.748-.807-.748-1.31 0-.537.275-1.033.72-1.297 10.082-5.991 25.36-13.282 40.892-13.991 17.515-.795 31.033 6.852 41.296 23.394 6.425 10.358 9.687 21.232 9.694 32.32a7.5 7.5 0 004.682 6.945c22.827 9.256 37.576 31.142 37.576 55.756 0 30.63-23.015 55.967-52.657 59.673v-56.802c0-4.134 3.323-4.667 4.752-4.704 1.651-.038 4.417.438 4.609 4.136a7.5 7.5 0 0014.98-.78c-.645-12.373-10.552-18.603-19.979-18.35-11.038.287-19.362 8.756-19.362 19.699v60.831zm-185.717 68.335c-1.938 0-3.802-.7-5.55-2.063-1.021-1.235-3.032-4.176-3.508-7.238a7.5 7.5 0 10-14.823 2.303c.492 3.17 1.58 6.02 2.786 8.391a8.082 8.082 0 01-2.266.327c-6.624 0-12.22-8.238-12.22-17.99 0-.739.042-1.468.104-2.19h43.746v13.559c-1.405 1.918-4.237 4.901-8.269 4.901zm35.6 14.96c-6.799 0-12.33-5.531-12.33-12.33v-21.09h24.65v21.09c-.001 6.799-5.527 12.33-12.32 12.33zm71.17-31.23c0 9.751-5.596 17.99-12.22 17.99-.805 0-1.56-.121-2.265-.327 1.206-2.37 2.294-5.221 2.786-8.391a7.5 7.5 0 00-14.823-2.303c-.475 3.06-2.483 5.997-3.505 7.234-1.75 1.366-3.615 2.067-5.554 2.067-4.032 0-6.864-2.983-8.27-4.9v-13.56H302c.062.723.104 1.452.104 2.19zm122.857-333.446c10.37 5.468 15.704 18.649 10.967 29.386-7.767 17.606-15.809 33.923-23.906 48.521-12.873 5.128-29.032 7.119-39.103 8.143 27.243-25.321 43.051-58.859 52.042-86.05zM236.157 17.175a2.477 2.477 0 01.994-1.69 2.413 2.413 0 011.882-.443l24.567 4.253c13.35 2.311 23.118 14.267 22.722 27.81-.622 21.273-5.614 51.22-25.863 73.083-13.439 14.51-24.566 31.549-32.607 49.8a89.71 89.71 0 00-19.465-18.2c5.978-8.357 18.094-24.498 30.648-36.575a7.5 7.5 0 00-10.399-10.809c-13.936 13.406-26.891 30.788-33.349 39.918a88.379 88.379 0 00-34.598-8.126c7.578-12.315 17.264-22.514 28.894-30.399 33.421-22.659 43.526-65.25 46.574-88.622zm-111.007 96.17c3.015-28.75 3.894-55.665 2.4-78.611a2.506 2.506 0 01.672-1.893 2.403 2.403 0 011.79-.774h21.554c11.724 0 21.548 9.168 22.366 20.872 1.086 15.527 1.616 30.493 1.592 44.536-13.579 10.48-24.555 23.904-32.703 39.993a88.254 88.254 0 00-8.878 2.014 303.324 303.324 0 00-8.793-26.137zM84.093 225.133c0-40.792 33.187-73.979 73.979-73.979s73.979 33.187 73.979 73.979-33.187 73.979-73.979 73.979c-40.792.001-73.979-33.186-73.979-73.979zm-50.196 79.074l82.393-.005c12.224 6.331 27.092 9.912 41.781 9.912 14.693 0 28.563-3.583 40.789-9.915l126.082.009a45.622 45.622 0 01-4.087 13.277 74.008 74.008 0 00-6.648 21.612h-27.089c-4.391 0-8.43 1.5-11.665 3.994-3.235-2.493-7.274-3.994-11.665-3.994h-39.801c-4.391 0-8.429 1.5-11.665 3.994-3.235-2.493-7.274-3.994-11.665-3.994h-39.801c-4.392 0-8.43 1.5-11.666 3.994-3.235-2.494-7.274-3.994-11.666-3.994H97.723c-4.391 0-8.429 1.5-11.665 3.994-3.235-2.493-7.274-3.994-11.665-3.994H34.592c-1.431 0-2.822.17-4.165.469v-31.887a3.475 3.475 0 013.47-3.472zm20.596 98.019c-13.27 0-24.065-10.796-24.065-24.065v-19.9a4.17 4.17 0 014.165-4.165h39.801a4.17 4.17 0 014.165 4.165v19.9c-.001 13.269-10.797 24.065-24.066 24.065zm87.195-24.065c0 13.27-10.796 24.065-24.065 24.065s-24.065-10.796-24.065-24.065v-19.9a4.17 4.17 0 014.165-4.165h39.801a4.17 4.17 0 014.165 4.165v19.9zm39.068 24.065c-13.27 0-24.065-10.796-24.065-24.065l-.002-.039v-19.823l.002-.039a4.17 4.17 0 014.165-4.165h39.801a4.17 4.17 0 014.165 4.165v19.9c-.001 13.27-10.797 24.066-24.066 24.066zm63.13 0c-13.27 0-24.065-10.796-24.065-24.065v-19.9a4.17 4.17 0 014.165-4.165h39.801a4.17 4.17 0 014.165 4.165v19.9c0 13.269-10.796 24.065-24.066 24.065zm87.197-43.966v19.9c0 13.27-10.796 24.065-24.065 24.065s-24.065-10.796-24.065-24.065v-19.9a4.17 4.17 0 014.165-4.165h39.801a4.17 4.17 0 014.164 4.165zm-85.046-117.993c47.836-14.316 82.101-41.028 102.421-60.916 22.078-21.608 32.786-39.758 33.231-40.52a7.5 7.5 0 00-12.953-7.565c-.393.672-39.392 66.09-121.696 92.962a89.051 89.051 0 00-1.361-14.705c13.777-8.031 33.627-20.912 54.059-38.622a7.5 7.5 0 00-9.825-11.335c-17.909 15.524-35.349 27.17-48.297 34.933a88.238 88.238 0 00-3.877-8.961c5.283-14.384 15.359-35.325 33.726-55.157 14.671-15.841 22.403-34.999 26.303-52.963.994-1.843 2.139-3.96 3.105-5.812a12.252 12.252 0 017.539-6.157 12.357 12.357 0 019.736 1.211l9.036 5.272a40.228 40.228 0 0118.081 22.504c-8.204 13.972-18.227 27.511-30.041 40.497a7.5 7.5 0 1011.096 10.094c23.664-26.013 40.682-54.211 50.583-83.812a2.412 2.412 0 011.429-1.5 2.444 2.444 0 012.091.133l23.612 12.93c10.678 5.847 16.25 18.249 13.552 30.159-6.613 29.185-24.004 82.734-66.186 113.849-13.724 1.252-28.703 6.516-44.494 15.899-4.97 2.953-8.058 8.391-8.058 14.192 0 5.488 2.744 10.621 7.339 13.731 9.984 6.759 16.372 17.209 18.476 28.598H219.747c13.355-12.859 23.001-29.905 26.29-48.939zm235.316 2.731c-7.027 12.709-20.763 31.067-46.582 47.708a75.484 75.484 0 00-13.493-8.357c-.847-12.181-4.797-24.022-11.775-35.271-3.987-6.427-8.507-11.841-13.493-16.253 20.605-4.626 45.13-14.767 66.71-36.3a2.45 2.45 0 011.976-.718 2.428 2.428 0 011.8 1.043l13.37 19.16c6.027 8.637 6.597 19.745 1.487 28.988z"></path>
    <path d="M146.642 273.617c25.73 0 46.664-20.933 46.664-46.664s-20.933-46.664-46.664-46.664-46.664 20.934-46.664 46.664 20.933 46.664 46.664 46.664zm0-78.328c17.459 0 31.664 14.205 31.664 31.664s-14.204 31.664-31.664 31.664-31.664-14.204-31.664-31.664 14.204-31.664 31.664-31.664z"></path>
    <path d="M146.642 248.264c11.751 0 21.312-9.56 21.312-21.311s-9.561-21.312-21.312-21.312-21.312 9.561-21.312 21.312 9.561 21.311 21.312 21.311zm0-27.622c3.48 0 6.312 2.832 6.312 6.312s-2.832 6.311-6.312 6.311-6.312-2.831-6.312-6.311 2.832-6.312 6.312-6.312z"></path>
  </symbol>
  <symbol xmlns="http://www.w3.org/2000/svg" viewBox="0 0 512 512" id="mariachi">
    <path d="M220.21 239.783c-8.991-7.734-24.763-7.734-33.754 0a7.5 7.5 0 109.782 11.371c3.381-2.908 10.534-2.555 14.189 0 4.496 3.142 9.094.93 10.577-.795a7.497 7.497 0 00-.794-10.576zm105.335 0c-8.991-7.734-24.763-7.734-33.754 0a7.5 7.5 0 109.782 11.371c3.381-2.908 10.665-2.733 14.189 0 4.75 3.683 9.094.93 10.577-.795a7.497 7.497 0 00-.794-10.576z"></path>
    <path d="M460.141 146.832l.005-.017c2.293-8.701.466-17.77-5.014-24.882-5.453-7.076-13.706-11.135-22.645-11.135h-64.782c-5.47-18.757-12.218-35.47-20.098-49.737a7.5 7.5 0 00-13.129 7.252c6.761 12.241 12.653 26.503 17.571 42.485h-192.1C174.017 65.087 201.805 15 256.001 15c22.98 0 43.019 8.984 59.559 26.704a7.5 7.5 0 0010.965-10.237C307.034 10.588 283.306 0 256.001 0c-52.05 0-90.597 38.284-111.707 110.798H79.515c-8.938 0-17.192 4.059-22.645 11.135-5.48 7.112-7.307 16.181-5.013 24.883a.098.098 0 00.005.016c-5.472 4.204-9.009 10.808-9.009 18.226 0 12.669 10.307 22.976 22.976 22.976 2.015 0 3.969-.263 5.833-.752 2.104 2.602 4.442 4.975 6.673 7.373 4.042 4.345 9.138 1.404 10.606-.089a7.5 7.5 0 00-.088-10.606 72.162 72.162 0 01-4.678-5.087c2.905-3.848 6.105-9.959 4.391-17.106h8.861a23.041 23.041 0 00-.239 3.291c0 12.669 10.307 22.976 22.976 22.976s22.976-10.307 22.976-22.976c0-1.118-.084-2.216-.239-3.291h8.861a23.041 23.041 0 00-.239 3.291c0 12.669 10.307 22.976 22.976 22.976 12.669 0 22.976-10.307 22.976-22.976 0-1.118-.084-2.216-.239-3.291h8.861a23.041 23.041 0 00-.239 3.291c0 12.669 10.307 22.976 22.976 22.976s22.976-10.307 22.976-22.976c0-1.118-.084-2.216-.239-3.291h8.861a23.041 23.041 0 00-.239 3.291c0 12.669 10.307 22.976 22.976 22.976s22.976-10.307 22.976-22.976c0-1.118-.084-2.216-.239-3.291h8.861a23.041 23.041 0 00-.239 3.291c0 12.669 10.307 22.976 22.976 22.976s22.976-10.307 22.976-22.976c0-1.118-.084-2.216-.239-3.291h8.861a23.041 23.041 0 00-.239 3.291c0 12.669 10.307 22.976 22.976 22.976s22.976-10.307 22.976-22.976c0-1.118-.084-2.216-.239-3.291h8.861a22.86 22.86 0 004.393 17.108c-14.691 17.515-36.024 26.394-63.515 26.394H147.688c-12.777 0-24.352-1.936-34.402-5.752a7.499 7.499 0 00-9.674 4.35 7.5 7.5 0 004.349 9.674c3.608 1.37 7.384 2.507 11.284 3.461a110.063 110.063 0 003.692 20.324 37.162 37.162 0 00-15.108 29.965c0 20.563 19.053 41.575 44.496 36.592 5.685 11.105 12.143 21.256 19.26 30.209.153 3.175.634 11.598 9.691 14.38-7.801 3.843-15.532 8.992-23.109 15.413a17.96 17.96 0 00-5.042 6.916l-21.429 10.925c-17.151 8.743-30.819 23.285-38.486 40.947a7.5 7.5 0 003.894 9.866c.973.422 7.236 2.061 9.866-3.894 6.376-14.433 17.483-26.392 31.539-33.557l15.879-8.095a18.202 18.202 0 006.012 6.125c2.69 1.669 5.821 3.621 9.367 5.838 3.011 26.595 9.433 63.265 23.133 98.045h-78.438c-4.485 0-8.618-1.826-11.638-5.143-3.02-3.315-4.452-7.601-4.034-12.066l2.25-23.999a7.499 7.499 0 00-6.767-8.167c-4.126-.382-7.781 2.643-8.167 6.767l-2.25 23.999a30.803 30.803 0 007.877 23.566A30.806 30.806 0 00114.462 512H397.54a30.8 30.8 0 0022.728-10.043 30.802 30.802 0 007.878-23.566l-2.85-30.395c-2.672-28.498-19.491-53.272-44.99-66.271l-21.435-10.928a17.956 17.956 0 00-5.041-6.913c-7.562-6.408-15.291-11.552-23.095-15.398 9.526-3.074 9.527-11.216 9.68-14.387 15.402-19.375 27.747-44.426 35.793-72.575 2.987-2.036 5.425-4.853 7.051-8.251 3.165 3.9 4.948 8.795 4.948 14.017 0 7.799-3.97 14.901-10.621 18.998a7.5 7.5 0 00-2.452 10.319c1.417 2.301 4.452 5.771 10.319 2.452 11.365-6.428 17.753-18.725 17.753-31.77 0-11.647-5.282-22.329-14.309-29.364a110.072 110.072 0 003.853-20.86c19.491-4.727 35.424-14.685 47.593-29.784 1.862.489 3.815.751 5.828.751 12.669 0 22.976-10.307 22.976-22.976.002-7.416-3.534-14.02-9.006-18.224zM122.829 267.29c-.326-5.532 2.039-10.74 5.572-14.742.023.052 2.086 6.763 7.395 8.978 2.787 9.756 6.083 19.138 9.851 28.036-.175.005-21.538-.58-22.818-22.272zm29.33-19.383c-1.885 2.356-4.381 2.314-5.366 2.187-.981-.127-3.395-.72-4.61-3.464-2.778-6.274-6.099-15.665-7.57-27.025 4.24.424 33.963.664 33.963.664-2.831 6.904-7.893 16.976-16.417 27.638zm39.345 146.974c-9.625-6.049-17.56-10.693-23.195-14.508-2.732-1.851-1.466-4.18-.444-5.046 9.454-8.011 19.035-13.695 28.532-16.945 9.377 6.937 19.326 12.076 29.795 15.4l8.653 10.224c-28.985 2.121-41.683 9.587-43.341 10.875zm64.497-81.906c12.894 0 23.383-10.489 23.383-23.383v-7.851a21.322 21.322 0 0110.212 3.452c5.743 3.786 16.763 14.629 25.263 26.222 11.144 15.198 11.039 21.922 10.4 22.89-.638.97-6.776 3.718-25.137-.531-14.005-3.24-28.314-9.093-34.056-12.877a21.48 21.48 0 01-4.398-3.859 7.496 7.496 0 00-11.334.001 21.463 21.463 0 01-4.396 3.857c-5.744 3.785-20.053 9.638-34.058 12.878-18.363 4.249-24.499 1.502-25.137.531-.639-.968-.744-7.691 10.4-22.89 8.5-11.593 19.52-22.436 25.264-26.222a21.22 21.22 0 0110.211-3.461v7.86c0 12.894 10.489 23.383 23.383 23.383zm-8.383-23.382v-16.42c0-4.622 3.761-8.383 8.383-8.383 4.622 0 8.383 3.761 8.383 8.383v16.42c0 4.622-3.761 8.383-8.383 8.383-4.622 0-8.383-3.761-8.383-8.383zm20.07 110.388c9.505-2.43 24.287-.399 42.227 5.979a4.803 4.803 0 012.795 2.531c.604 1.287.656 2.761.147 4.149-1.838 5.017-2.253 9.645-2.619 13.729-.579 6.457-1.036 11.558-6.913 18.072-5.876 6.515-10.903 7.494-17.266 8.733-4.024.784-8.586 1.672-13.386 4.017-1.331.647-2.801.747-4.144.279a4.803 4.803 0 01-2.805-2.521 160.787 160.787 0 01-1.572-3.402c6.989-17.366 11.39-37.362 3.536-51.566zm-11.687-36.65c-16.549 0-31.978-4.656-46.073-13.837 27.456-4.637 45.484-16.905 46.073-17.347.589.442 23.671 15.797 46.08 17.361-14.098 9.183-29.537 13.823-46.08 13.823zm-.002 22.452l-6.483-7.661c2.145.135 10.833.116 12.984-.02l-6.501 7.681zm-9.722 69.168a4.81 4.81 0 01-2.805 2.521c-1.342.468-2.814.368-4.143-.279-4.801-2.345-9.362-3.232-13.387-4.017-6.363-1.239-11.39-2.219-17.267-8.733-5.876-6.515-6.333-11.615-6.913-18.072-.366-4.084-.781-8.712-2.619-13.729-.509-1.389-.457-2.862.147-4.149a4.806 4.806 0 012.795-2.531c13.108-4.662 24.429-7.002 33.274-7.002 7.982-.002 13.948 1.902 17.394 5.723 7.267 8.056 4.906 26.378-6.476 50.268zm56.624 42.048H209.1c-6.537-15.535-11.492-31.663-15.248-47.171 1.055 1.527 9.28 13.971 29.222 18.07 3.559.732 6.647 1.294 9.673 2.771a20.457 20.457 0 008.991 2.101 20.22 20.22 0 006.679-1.139 19.774 19.774 0 007.583-4.809 19.785 19.785 0 007.583 4.809 20.22 20.22 0 006.679 1.139 20.45 20.45 0 008.992-2.101c3.025-1.478 6.109-2.06 9.672-2.771 17.979-3.588 28.167-16.543 29.223-18.071-3.756 15.508-8.711 31.636-15.248 47.172zm54.71-110.008l15.882 8.097c20.897 10.653 34.679 30.955 36.869 54.308l2.85 30.395c.418 4.466-1.014 8.751-4.034 12.066-3.02 3.316-7.153 5.143-11.638 5.143h-78.438c13.7-34.781 20.122-71.452 23.133-98.047 3.545-2.217 6.675-4.168 9.365-5.837a18.19 18.19 0 006.011-6.125zm-13.478-11.665c1.022.867 2.97 2.982-.443 5.045-5.824 3.522-13.569 8.46-23.194 14.508-1.657-1.287-16.145-9.673-43.357-10.857l8.694-10.273c10.448-3.322 20.38-8.455 29.744-15.377 9.518 3.26 19.113 8.953 28.556 16.954zm-8.834-59.596c-2.129-4.094-4.897-8.485-8.343-13.184-8.791-11.989-21.032-24.554-29.104-29.875a36.31 36.31 0 00-19.391-5.989c-2.821-9.744-11.818-16.891-22.459-16.891-10.638 0-19.633 7.143-22.456 16.882-6.85.104-13.541 2.141-19.393 5.999-8.073 5.321-20.314 17.886-29.105 29.875-3.446 4.7-6.215 9.091-8.344 13.185-9.919-14.589-18.188-31.948-24.326-51.143 4.463-1.053 8.507-3.575 11.497-7.314 12.165-15.214 18.134-29.366 20.739-37.005H327.39c2.605 7.639 8.575 21.791 20.739 37.005 2.989 3.738 7.029 6.258 11.488 7.312-6.14 19.189-14.408 36.563-24.318 51.143zm34.52-69.101c-1.215 2.744-3.629 3.337-4.61 3.464-.987.128-3.481.17-5.365-2.187-8.525-10.661-13.587-20.734-16.418-27.638 0 0 29.739-.212 33.959-.627-1.474 11.342-4.791 20.721-7.566 26.988zm-303.99-73.595c-4.398 0-7.976-3.579-7.976-7.976 0-4.398 3.578-7.977 7.976-7.977s7.976 3.578 7.976 7.977c0 4.397-3.578 7.976-7.976 7.976zm54.335-.001c-4.398 0-7.976-3.578-7.976-7.976s3.578-7.977 7.976-7.977 7.976 3.578 7.976 7.977c0 4.398-3.578 7.976-7.976 7.976zm54.335 0c-4.398 0-7.976-3.578-7.976-7.976s3.578-7.977 7.976-7.977 7.976 3.578 7.976 7.977c0 4.398-3.578 7.976-7.976 7.976zm54.335 0c-4.398 0-7.976-3.578-7.976-7.976s3.578-7.977 7.976-7.977 7.976 3.578 7.976 7.977c0 4.398-3.579 7.976-7.976 7.976zm54.334 0c-4.398 0-7.976-3.578-7.976-7.976s3.578-7.977 7.976-7.977 7.976 3.578 7.976 7.977c.001 4.398-3.578 7.976-7.976 7.976zm54.335 0c-4.398 0-7.976-3.578-7.976-7.976s3.578-7.977 7.976-7.977 7.976 3.578 7.976 7.977c.001 4.398-3.578 7.976-7.976 7.976zm54.335 0c-4.398 0-7.976-3.578-7.976-7.976s3.578-7.977 7.976-7.977 7.976 3.578 7.976 7.977c0 4.398-3.578 7.976-7.976 7.976zm40.452-26.266h-26.566c-3.86-2.937-8.671-4.686-13.884-4.686s-10.024 1.748-13.884 4.686H351.39c-3.86-2.937-8.671-4.686-13.884-4.686s-10.024 1.748-13.884 4.686h-26.566c-3.86-2.937-8.671-4.686-13.884-4.686s-10.024 1.748-13.884 4.686h-26.566c-3.86-2.937-8.671-4.686-13.884-4.686s-10.024 1.748-13.884 4.686h-26.566a22.856 22.856 0 00-13.884-4.686 22.85 22.85 0 00-13.884 4.686h-26.566c-3.86-2.937-8.671-4.686-13.884-4.686s-10.024 1.748-13.884 4.686H79.713a22.857 22.857 0 00-13.535-4.677c-.759-3.885.144-7.848 2.574-11.002a13.492 13.492 0 0110.763-5.29h352.973c4.25 0 8.172 1.929 10.763 5.29 2.43 3.154 3.333 7.118 2.575 11.002a22.847 22.847 0 00-13.536 4.677zm13.883 26.266c-4.398 0-7.976-3.578-7.976-7.976s3.578-7.977 7.976-7.977 7.976 3.578 7.976 7.977c0 4.398-3.578 7.976-7.976 7.976z"></path>
  </symbol>
  <symbol xmlns="http://www.w3.org/2000/svg" viewBox="0 0 510 510" id="molcajete">
    <path d="M510 225.032c0-24.813-20.186-45-45-45h-1.627c-2.378-10.808-7.081-22.166-13.36-31.924-10.597-16.465-24.381-26.327-38.814-27.771a61.826 61.826 0 00-7.978-.277c-6.668-25.863-30.192-45.027-58.109-45.027-27.908 0-51.428 19.152-58.103 45.028a60.868 60.868 0 00-7.983.276c-14.434 1.444-28.219 11.307-38.815 27.771-6.279 9.758-10.982 21.116-13.359 31.924h-8.142L133.122 37.054l-.361-.574c-13.749-20.774-40.655-27.532-62.59-15.724-21.935 11.809-31.103 37.996-21.327 60.91l47.321 98.366H45c-24.814 0-45 20.187-45 45 0 19.684 12.708 36.443 30.347 42.537C32.759 312.2 48.052 354.224 75 390.05v104.982h87.297l9.2-46.003c52.366 21.021 112.958 21.695 167.006 0l9.2 46.003H435V390.05c26.948-35.826 42.241-77.85 44.653-122.48C497.292 261.476 510 244.716 510 225.032zm-227.989-74.843c3.93-.396 7.811-.04 11.528 1.048a16.914 16.914 0 0014.828-2.681c4.227-3.168 6.748-8.219 6.744-13.523 0-16.542 13.458-30 30-30s30 13.458 30 30.015c-.004 5.291 2.517 10.341 6.744 13.509a16.903 16.903 0 0014.824 2.682 30.072 30.072 0 0111.532-1.049c8.535.854 19.189 14.955 24.143 29.844H257.867c4.952-14.89 15.608-28.992 24.144-29.845zM76.326 69.626c-3.465-8.483-.031-18.096 8.067-22.456 8.099-4.36 18.013-1.938 23.188 5.626l76.163 127.236h-54.29zm368.502 230.406H65.172a194.59 194.59 0 01-4.613-30h388.883a194.712 194.712 0 01-4.614 30zm-36.607 75.625L405 379.742v85.29h-32.703l-11.941-59.71c-11.146 4.445-46.371 29.71-105.355 29.71-58.99 0-94.238-25.276-105.356-29.71l-11.941 59.71H105v-85.29c-1.944-2.791-17.951-20.571-30.12-49.71h360.24c-6.755 16.175-15.753 31.487-26.899 45.625zM465 240.032H45c-8.272 0-15-6.729-15-15s6.728-15 15-15h420c8.272 0 15 6.729 15 15 0 8.272-6.728 15-15 15z"></path>
  </symbol>
  <symbol xmlns="http://www.w3.org/2000/svg" viewBox="0 0 510 510" id="nachos">
    <path d="M1.416 481.443l20.156 4.814c4.06.97 100.379 23.743 183.151 23.743 82.479 0 179.068-22.772 183.141-23.741l20.173-4.803L204.723 151.4zm153.913-59.624l-21.213-21.213 21.213-21.213 21.213 21.213zm111.213-21.213l-21.213 21.213-21.213-21.213 21.213-21.213zm-40.606-75l-21.213 21.213-21.213-21.213 21.213-21.213zM508.584 24.112l-20.154-4.814C485.129 18.511 406.839 0 339.5 0c-67.101 0-145.609 18.509-148.918 19.297L170.408 24.1 339.5 298.6zM379.773 64.394l21.213 21.213-21.213 21.214-21.213-21.214zM277.681 85.607l21.213-21.214 21.213 21.213-21.213 21.214zM339.5 118.18l21.213 21.214-21.213 21.212-21.213-21.213z"></path>
  </symbol>
  <symbol xmlns="http://www.w3.org/2000/svg" viewBox="0 0 535.385 535.385" id="pepper">
    <path d="M40.549 378.569c18.13 14.344 37.055 26.842 56.505 37.639 25.742-33.316 40.42-64.279 49.448-92.938-25.159 2.151-53.321 1.999-85.355-1.559-20.933-4.37-73.096 15.329-20.598 56.858zm448.816 38.968c54.908-35.525 20.625-114.243-26.814-156.261-11.713-10.376-22.375-18.054-32.311-23.591-13.016 66.584-48.826 132.794-102.281 188.267-14.84 15.405-30.676 29.558-47.324 42.495 78.078 3.825 152.541-14.544 208.73-50.91zm-44.926-140.961c9.285-4.179 24.711 9.983 34.463 31.643 9.754 21.658 10.137 42.601.852 46.779s-24.709-9.983-34.463-31.643-10.137-42.6-.852-46.779z"></path>
    <path d="M63.814 480.773c-15.052 11.676-31.633 54.611 11.36 54.611 5.26 0 11.427-.641 18.59-2.065 59.163-11.762 112.369-35.696 157.762-67.319 86.952-60.579 145.12-149.51 160.784-236.156a280.264 280.264 0 002.045-13.034c4.285-32.513-14.295-54.937-41.748-68.143-5.768 7.354-11.877 14.42-18.371 20.999 4.963 4.753 7.508 9.668 6.273 13.923-2.83 9.773-23.619 12.345-46.436 5.737-22.816-6.607-39.006-19.899-36.174-29.672 1.969-6.799 12.697-10.012 26.668-9.18 1.885-4.542 3.969-9.916 6.16-16.055-2.516-.096-5.031-.21-7.537-.21-8.566 0-17.049.583-25.205 1.74-116.338 16.486-82.066 84.581-110.83 184.977-9.084 31.719-24.585 66.66-53.005 104.222-13.597 17.968-30.015 36.51-50.336 55.625z"></path>
    <path d="M323.762 125.804a354.117 354.117 0 01-3.08 9.285 352.937 352.937 0 01-6.225 16.562c-5.02 12.374-8.787 19.536-8.787 19.536l24.068 7.536c5.891-4.533 11.521-9.591 16.926-15.004 5.918-5.929 11.531-12.316 16.84-18.981a263.552 263.552 0 005.994-7.832 288.33 288.33 0 005.672-7.927c35.592-51.389 54.562-110.83 54.562-110.83C418.688 6.321 400.299 0 382.111 0c-16.352 0-32.541 5.125-43.068 15.969 2.17 37.638-4.543 73.039-12.498 100.569a322.254 322.254 0 01-2.783 9.266z"></path>
  </symbol>
  <symbol xmlns="http://www.w3.org/2000/svg" viewBox="0 0 512.081 512.081" id="pinata">
    <path d="M76.04 512.081c19.53 0 36.024-13.578 42.237-31h74.745c40.4 19.508 85.23 31 130.093 31H436.04c24.814 0 45-21.186 45-46s-20.186-45-45-45H323.115c-44.863 0-89.692 10.492-130.093 30h-74.745c-6.213-17.422-22.707-30-42.237-30-24.814 0-45 20.186-45 45s20.186 46 45 46zm27.77-164.761c.52 10.781 4.521 21.454 12.733 29.68 17.567 17.567 46.099 17.549 63.647 0 5.859-5.859 5.859-15.352 0-21.211s-15.352-5.859-21.211 0c-5.845 5.845-15.366 5.874-21.211 0-5.306-5.294-5.552-13.48-1.254-19.341l57.556-22.137a134.974 134.974 0 01-57.259-57.261l-22.136 57.552c-5.869 4.288-14.035 4.047-19.343-1.234-5.845-5.859-5.845-15.366 0-21.226 5.859-5.859 5.859-15.352 0-21.211s-15.352-5.859-21.211 0c-17.549 17.549-17.549 46.099 0 63.662 8.224 8.208 18.906 12.211 29.689 12.727zm249.291 8.469c-5.859-5.859-15.352-5.859-21.211 0s-5.859 15.352 0 21.211c17.529 17.529 46.084 17.549 63.662 0 8.205-8.227 12.206-18.902 12.722-29.683 10.789-.518 21.465-4.519 29.685-12.739 17.549-17.549 17.549-46.099 0-63.647-5.859-5.859-15.352-5.859-21.211 0s-5.859 15.352 0 21.211c5.845 5.859 5.845 15.366 0 21.211-5.306 5.306-13.491 5.539-19.341 1.254l-22.137-57.556a134.97 134.97 0 01-57.259 57.259l57.556 22.137c4.296 5.861 4.054 14.048-1.24 19.341-5.845 5.845-15.352 5.875-21.226.001zM318.01 75.851a134.974 134.974 0 0157.259 57.261l22.136-57.552c5.869-4.288 14.035-4.047 19.343 1.234 5.845 5.859 5.845 15.366 0 21.226-5.859 5.859-5.859 15.352 0 21.211s15.352 5.859 21.211 0c17.549-17.549 17.549-46.099 0-63.662-8.225-8.203-18.904-12.204-29.687-12.726-.52-10.781-4.523-21.456-12.735-29.681-17.563-17.563-46.113-17.534-63.647 0-5.859 5.859-5.859 15.352 0 21.211s15.352 5.859 21.211 0c5.845-5.845 15.366-5.874 21.211 0 5.306 5.294 5.552 13.48 1.254 19.341zm-222.678 43.38c5.859-5.859 5.859-15.352 0-21.211-5.845-5.859-5.845-15.366 0-21.211 5.306-5.306 13.491-5.539 19.341-1.254l22.137 57.556a134.97 134.97 0 0157.259-57.259l-57.556-22.137c-4.297-5.861-4.054-14.048 1.24-19.341 5.845-5.845 15.352-5.874 21.226 0 5.859 5.859 15.352 5.859 21.211 0s5.859-15.352 0-21.211c-17.549-17.549-46.084-17.549-63.662 0-8.203 8.223-12.2 18.895-12.72 29.674-10.79.518-21.471 4.525-29.687 12.748-17.549 17.549-17.549 46.099 0 63.647 5.86 5.858 15.352 5.858 21.211-.001zM271.04 61.597V15.081c0-8.291-6.709-15-15-15s-15 6.709-15 15v46.516c4.99-.562 9.864-1.516 15-1.516s10.011.954 15 1.516z"></path>
    <circle cx="256.04" cy="195.081" r="15"></circle>
    <path d="M256.04 90.081c-57.891 0-105 47.109-105 105s47.109 105 105 105 105-47.109 105-105-47.109-105-105-105zm0 150c-24.814 0-45-20.186-45-45s20.186-45 45-45 45 20.186 45 45-20.185 45-45 45z"></path>
  </symbol>
  <symbol xmlns="http://www.w3.org/2000/svg" viewBox="0 0 511.979 511.979" id="pinata_horse">
    <path d="M491.345 102.633c-50.852-31.782-48.082-30.654-51.342-30.654h-10.234l-19.782-59.347c-5.924-17.771-31.557-16.459-35.622 1.838l-1.506 6.778-2.872-8.617c-5.924-17.771-31.557-16.459-35.622 1.838-.407 1.831-14.051 63.218-14.189 63.873-.146.7.838-9.363-15.448 161.635H177.556c-16.752 0-32.55 5.259-45.681 14.982-21.781-34.053-59.7-54.982-100.37-54.982h-7.502c-13.234 0-24 10.766-24 24s10.766 24 24 24c24.502 0 47.413 12.114 61.286 32H72.003c-39.701 0-72 32.299-72 72 0 6.403 2.491 12.429 7.033 16.986 15.192 15.14 40.967 4.217 40.967-16.986 0-13.271 10.728-24 24-24h28.986l11.029 176.499a8 8 0 007.984 7.501h64a8 8 0 007.845-6.431l14.178-70.891c6.766-4.741 16.216-4.126 22.32 1.978l4 4c13.044 13.045 34.27 13.045 47.313 0 4.27-4.27 6.927-7.636 13.055-8.801a17.417 17.417 0 0115.632 4.801l4 4a33.407 33.407 0 0028.709 9.416l11.103 55.497a8.001 8.001 0 007.845 6.431h64a8 8 0 007.99-7.601l15.704-314.077 31.012-7.753c37.622-9.403 45.409-59.43 12.637-79.913zm-101.36-84.692c.551-2.476 4.021-2.656 4.824-.249l18.096 54.287H389.77l-7.076-21.228zm-40 0c.551-2.476 4.021-2.656 4.824-.249l18.096 54.287h-34.928zm-34.014 236.976c1.316-.753-.023.43 21.689-21.281 5.703-5.703 14.983-5.703 20.687 0l4 4c11.941 11.941 31.372 11.942 43.313 0l8-8a14.595 14.595 0 0116.203-3.058l-3.885 77.698c-6.795 4.74-16.274 4.09-22.318-1.954l-4-4c-13.044-13.045-34.27-13.045-47.313 0-4.419 4.419-8.079 9.112-16.343 9.112-8.27 0-12.162-4.93-16.343-9.112-13.044-13.045-34.27-13.045-47.313 0l-4 4c-6.807 6.806-17.88 6.806-24.687 0l-4-4c-13.074-13.074-34.238-13.075-47.313 0-4.411 4.411-8.116 9.117-16.343 9.117-4.66 0-9.043-1.817-12.343-5.117-12.422-12.422-31.857-12.886-44.822-2.256 7.164-24.851 30.229-44.087 58.719-44.087 145.934 0 135.732.473 138.412-1.062zm106.768 114.152a17.407 17.407 0 01-19.079-3.746l-4-4c-13.074-13.074-34.238-13.075-47.313 0l-4 4c-6.807 6.806-17.88 6.806-24.687 0l-4-4c-13.044-13.045-34.27-13.045-47.313 0l-4 4c-6.807 6.806-17.88 6.806-24.687 0l-4-4c-13.044-13.045-34.27-13.045-47.313 0-4.411 4.411-8.116 9.117-16.343 9.117-4.66 0-9.043-1.817-12.343-5.117-12.133-12.134-31.343-12.974-44.464-2.534l-2.393-38.295 10.857-10.857c6.821-6.821 17.865-6.821 24.687 0 13.079 13.08 34.232 13.082 47.313 0 4.419-4.419 8.079-9.112 16.343-9.112 8.27 0 12.162 4.93 16.343 9.112 13.044 13.045 34.27 13.045 47.313 0l4-4c6.821-6.821 17.865-6.821 24.687 0l4 4c13.044 13.045 34.27 13.045 47.313 0 4.419-4.419 8.079-9.112 16.343-9.112 8.27 0 12.162 4.93 16.343 9.112 8.815 8.816 21.456 11.659 32.738 8.51zM24.003 231.979c-4.411 0-8-3.589-8-8s3.589-8 8-8h7.502c36.146 0 69.785 19.096 88.37 49.978-5.263 5.926-9.509 12.486-12.673 19.495l-4.438-7.767c-16.11-28.192-46.289-45.706-78.761-45.706zm8 120c0 2.14-.833 4.154-2.328 5.653-5.066 5.05-13.672 1.444-13.672-5.653 0-30.878 25.122-56 56-56h22.786c2.149 3.761 3.139 6.469 6.833 7.622a77.137 77.137 0 00-.989 8.378h-28.63c-22.113 0-40 17.884-40 40zm145.441 144h-49.926l-3.247-51.955 3.388-3.388c6.821-6.821 17.865-6.821 24.687 0 9.469 9.47 22.987 11.97 34.571 7.982zm146.216-66.657c-5.499-5.499-10.493-11.137-21.346-13.199a33.401 33.401 0 00-29.968 9.199l-4 4c-6.807 6.806-17.88 6.806-24.687 0-5.499-5.499-10.493-11.137-21.346-13.199-11.092-2.133-22.307 1.662-29.211 8.482-.637.588-.067.028-4.756 4.717-6.828 6.827-17.858 6.827-24.687 0-10.997-10.998-27.808-12.723-40.63-5.177l-2.522-40.357 7.152-7.152c6.821-6.821 17.865-6.821 24.687 0 13.079 13.08 34.231 13.082 47.313 0l4-4c6.807-6.806 17.88-6.806 24.687 0l4 4c13.044 13.045 34.27 13.045 47.313 0l4-4c6.807-6.806 17.88-6.806 24.687 0l4 4c13.044 13.045 34.27 13.045 47.313 0l4-4c6.821-6.821 17.865-6.821 24.687 0l4 4a33.411 33.411 0 0029.55 9.285l-2.408 48.159a17.454 17.454 0 01-15.828-4.757c-5.545-5.545-12.778-13.798-27.657-13.798-8.937 0-17.338 3.48-23.657 9.798l-4 4c-6.771 6.771-17.821 6.863-24.686-.001zm42.901 66.657l-10.459-52.281c6.748-5.085 9.635-12.174 19.901-12.174 8.27 0 12.162 4.93 16.343 9.112 7.079 7.08 16.756 10.447 26.33 9.683l-2.283 45.66zm108.267-328.953l-36.766 9.191a8.001 8.001 0 00-6.05 7.362l-1.325 26.495a30.594 30.594 0 00-28.342 8.247l-8 8c-5.703 5.703-14.983 5.703-20.687 0-5.302-5.302-11.977-12.973-25.657-12.973-8.179 0-15.871 3.187-21.657 8.973l-4.27 4.27 13.201-138.614h102.431l45.156 28.223c20.839 13.024 15.901 44.843-8.034 50.826z"></path>
    <path d="M400.003 111.979c-8.822 0-16 7.178-16 16a7.996 7.996 0 008 7.995c4.428 0 8-3.601 8-7.995a8 8 0 0016 0c0-8.822-7.178-16-16-16z"></path>
  </symbol>
  <symbol xmlns="http://www.w3.org/2000/svg" viewBox="0 0 510 510" id="pyramid">
    <path d="M315 480v-90h30v-30h-30v-30c66.168 0 120-53.832 120-120v-15h30v-30h-30v-15c0-24.813-20.187-45-45-45-24.814 0-45 20.187-45 45v60c0 8.271-6.729 15-15 15h-15V90h30V60h-30c0-33.084-26.916-60-60-60s-60 26.916-60 60h-30v30h30v45h-30v30h30v135h-15c-8.271 0-15-6.728-15-15v-60c0-24.813-20.187-45-45-45s-45 20.187-45 45v15H45v30h30v15c0 66.168 53.832 120 120 120v75H30v30h450v-30zm-30-180v180h-60V375h-30c-49.626 0-90-40.374-90-90v-60c0-8.271 6.729-15 15-15s15 6.729 15 15v60c0 24.814 20.187 45 45 45h45V60c0-16.542 13.458-30 30-30s30 13.458 30 30v195h45c24.813 0 45-20.186 45-45v-60c0-8.271 6.728-15 15-15 8.271 0 15 6.729 15 15v60c0 49.626-40.374 90-90 90z"></path>
  </symbol>
  <symbol xmlns="http://www.w3.org/2000/svg" viewBox="0 0 511.989 511.989" id="saguaro">
    <path d="M178.1 394.168a110.944 110.944 0 01-9.783-5.943c-2.834 1.463-5.76 3.2-8.686 5.029-5.669 3.474-11.154 7.223-16.731 10.971a296.303 296.303 0 01-29.531 18.286c-14.903 7.68-26.24 9.326-34.743 4.846a17.177 17.177 0 01-8.96-11.611 13.148 13.148 0 015.029-12.343 13.403 13.403 0 0113.623-2.377 9.177 9.177 0 006.675-17.097 32.23 32.23 0 00-31.909 5.303 31.34 31.34 0 00-11.429 29.531 34.926 34.926 0 0018.56 24.869 40.459 40.459 0 0018.926 4.571 72.831 72.831 0 0032.64-9.417 313.195 313.195 0 0031.36-19.474c5.394-3.566 10.697-7.131 16.183-10.606a142.107 142.107 0 0113.44-7.406 8.845 8.845 0 00-4.664-7.132zm270.812-4.937a32.229 32.229 0 00-31.909-5.303 9.216 9.216 0 00-5.211 11.886 9.371 9.371 0 0011.886 5.211 13.405 13.405 0 0113.623 2.377 13.15 13.15 0 015.029 12.343 17.051 17.051 0 01-9.051 11.611c-8.411 4.48-19.84 2.926-34.651-4.846a296.004 296.004 0 01-29.531-18.286c-5.577-3.749-11.063-7.497-16.731-10.971-2.926-1.829-5.851-3.566-8.686-5.029a111.184 111.184 0 01-9.783 5.943 8.842 8.842 0 00-4.663 7.131 142.107 142.107 0 0113.44 7.406c5.486 3.474 10.789 7.04 16.183 10.606a313.012 313.012 0 0031.36 19.474 72.831 72.831 0 0032.64 9.417 40.474 40.474 0 0018.926-4.571 34.924 34.924 0 0018.56-24.869 31.35 31.35 0 00-11.431-29.53zM212.386 113.473a395.101 395.101 0 0143.502-3.831 393.872 393.872 0 0143.694 3.785l.987.128a922.502 922.502 0 0132 4.571l-7.899-27.685a259.007 259.007 0 00-68.672-8.229 259.157 259.157 0 00-68.681 8.229l-7.918 27.73c11.41-1.829 22.208-3.365 32-4.571l.987-.127z"></path>
    <path d="M292.934 393.162a9.06 9.06 0 01-9.509-8.777 9.144 9.144 0 018.777-9.508 97.645 97.645 0 0151.474 13.349 96.483 96.483 0 0042.331-86.583v-.274a200.234 200.234 0 00-17.646-74.331 500.811 500.811 0 00-112.366-16.823 498.205 498.205 0 00-112.366 16.823 200.75 200.75 0 00-17.646 74.331v.274a96.806 96.806 0 0042.331 86.583 97.666 97.666 0 0151.474-13.349 9.145 9.145 0 018.777 9.508 8.905 8.905 0 01-9.508 8.777 76.174 76.174 0 00-36.297 8.137c.076.576.107 1.157.091 1.737-.091.457-3.566 44.16 20.48 70.4a67.943 67.943 0 0052.663 20.206 68.01 68.01 0 0052.754-20.206c24.137-26.423 20.48-69.943 20.389-70.4-.015-.581.015-1.161.091-1.737a75.723 75.723 0 00-36.294-8.137zm1.189-130.285l.731.64a46.068 46.068 0 0116-6.674v-.914a9.143 9.143 0 0118.286 0v.914a46.068 46.068 0 0116 6.674l.731-.64a9.142 9.142 0 0112.891 12.891l-.64.731a46.068 46.068 0 016.674 16h.914a9.143 9.143 0 010 18.286h-.914a46.068 46.068 0 01-6.674 16l.64.731a9.142 9.142 0 010 12.891 8.943 8.943 0 01-12.892 0l-.731-.64a46.068 46.068 0 01-16 6.674v.914a9.143 9.143 0 01-18.286 0v-.914a46.068 46.068 0 01-16-6.674l-.731.64a8.943 8.943 0 01-12.892 0 9.142 9.142 0 010-12.891l.64-.731a46.068 46.068 0 01-6.674-16h-.914a9.143 9.143 0 010-18.286h.914a46.068 46.068 0 016.674-16l-.64-.731a9.142 9.142 0 0112.893-12.891zm-22.491 109.257a9.27 9.27 0 01-12.983 0l-2.651-2.743-2.651 2.743a9.27 9.27 0 01-12.983 0 9.217 9.217 0 010-12.983l9.143-9.143a9.215 9.215 0 0112.983 0l9.143 9.143a9.218 9.218 0 01-.001 12.983zM231.22 222.008a9.215 9.215 0 0112.983 0l11.794 11.886 11.794-11.886a9.18 9.18 0 0112.983 12.983l-18.286 18.286a9.27 9.27 0 01-12.983 0l-18.286-18.286a9.218 9.218 0 01.001-12.983zm-6.903 121.144a8.945 8.945 0 01-6.446-2.744l-.731-.64a46.068 46.068 0 01-16 6.674v.914a9.143 9.143 0 01-18.286 0v-.914a46.068 46.068 0 01-16-6.674l-.731.64a8.943 8.943 0 01-12.892 0 9.142 9.142 0 010-12.891l.64-.731a46.068 46.068 0 01-6.674-16h-.914a9.143 9.143 0 010-18.286h.914a46.068 46.068 0 016.674-16l-.64-.731a9.142 9.142 0 0112.891-12.891l.731.64a46.068 46.068 0 0116-6.674v-.914a9.143 9.143 0 0118.286 0v.914a46.068 46.068 0 0116 6.674l.731-.64a9.142 9.142 0 0112.891 12.891l-.64.731a46.068 46.068 0 016.674 16h.914a9.143 9.143 0 010 18.286h-.914a46.068 46.068 0 01-6.674 16l.64.731a9.142 9.142 0 010 12.891 8.931 8.931 0 01-6.444 2.744zm77.395 77.347v9.143a9.143 9.143 0 010 18.286 9.143 9.143 0 01-18.286 0H265.14a9.143 9.143 0 01-18.286 0h-18.286a9.143 9.143 0 01-18.286 0 9.143 9.143 0 010-18.286v-9.143a9.143 9.143 0 0118.286 0v9.143h18.286v-9.143a9.143 9.143 0 0118.286 0v9.143h18.286v-9.143a9.143 9.143 0 0118.286 0z"></path>
    <circle cx="191.997" cy="301.642" r="27.429"></circle>
    <path d="M318.882 70.136l-5.486-19.145a15.943 15.943 0 00-5.842-8.585 232.894 232.894 0 00-40.055-21.751 28.23 28.23 0 00-22.967 0 233.709 233.709 0 00-40.009 21.678 16.13 16.13 0 00-5.952 8.713l-5.486 19.09a300.294 300.294 0 0162.912-6.208 300.307 300.307 0 0162.885 6.208z"></path>
    <circle cx="319.997" cy="301.642" r="27.429"></circle>
    <path d="M510.534 218.077a138.752 138.752 0 00-44.069-36.937 374.603 374.603 0 00-120.594-41.966h-.366a7.76 7.76 0 01-3.474-.823 838.868 838.868 0 00-43.703-6.674l-1.006-.091a374.471 374.471 0 00-41.417-3.657 375.095 375.095 0 00-41.234 3.657l-1.006.091c-13.166 1.646-28.251 3.84-44.16 6.766-.9.366-1.863.552-2.834.549a377.941 377.941 0 00-121.143 42.149A138.878 138.878 0 001.459 218.17a8.693 8.693 0 00-1.28 6.583 9.571 9.571 0 004.48 6.034c15.817 9.326 51.017 24.869 110.08 25.143a217.49 217.49 0 0114.263-40.686 9.061 9.061 0 015.669-4.663 517.647 517.647 0 01121.326-18.651 517.647 517.647 0 01121.326 18.651c.069.01.134.042.183.091a7.428 7.428 0 011.92.914c.366.274.914.457 1.28.731.366.274.549.731.914 1.097.477.54.906 1.121 1.28 1.737l.091.091a217.561 217.561 0 0114.263 40.686c59.063-.274 94.263-15.817 110.08-25.143a9.57 9.57 0 004.48-6.034 9.001 9.001 0 00-1.28-6.674zM54.123 222.74a10.551 10.551 0 01-1.92 3.017 10.565 10.565 0 01-3.017 1.92 9.144 9.144 0 01-3.474.731 9.616 9.616 0 01-6.491-2.651 10.565 10.565 0 01-1.92-3.017 9.125 9.125 0 01-.731-3.474c.016-.613.077-1.224.183-1.829.1-.573.284-1.128.549-1.646.2-.583.477-1.136.823-1.646.337-.479.704-.937 1.097-1.371a9.52 9.52 0 019.966-1.92 10.551 10.551 0 013.017 1.92 9.616 9.616 0 012.651 6.491 9.19 9.19 0 01-.733 3.475zm54.857-27.429a8.226 8.226 0 01-4.937 4.937 9.125 9.125 0 01-3.474.731 9.62 9.62 0 01-6.491-2.651 10.565 10.565 0 01-1.92-3.017 9.144 9.144 0 01-.731-3.474c.016-.613.077-1.224.183-1.829.1-.573.284-1.128.549-1.646.2-.583.477-1.136.823-1.646.338-.479.704-.937 1.097-1.371a9.52 9.52 0 019.966-1.92 10.551 10.551 0 013.017 1.92 9.616 9.616 0 012.651 6.491 9.166 9.166 0 01-.733 3.475zm45.714-18.286a8.226 8.226 0 01-4.937 4.937 9.144 9.144 0 01-3.474.731 9.616 9.616 0 01-6.491-2.651 10.565 10.565 0 01-1.92-3.017 9.144 9.144 0 01-.731-3.474c.016-.613.077-1.224.183-1.829.1-.573.284-1.128.549-1.646.2-.583.477-1.136.823-1.646.338-.479.704-.937 1.097-1.371a9.52 9.52 0 019.966-1.92 10.551 10.551 0 013.017 1.92 9.616 9.616 0 012.651 6.491 9.162 9.162 0 01-.733 3.475zm54.858-18.194a8.226 8.226 0 01-4.937 4.937 9.14 9.14 0 01-3.474.731 9.616 9.616 0 01-6.491-2.651 10.565 10.565 0 01-1.92-3.017 9.121 9.121 0 01-.731-3.474c.016-.613.077-1.224.183-1.829.1-.573.284-1.128.549-1.646.2-.583.477-1.136.823-1.646.337-.479.704-.937 1.097-1.371a9.52 9.52 0 019.966-1.92 10.551 10.551 0 013.017 1.92 9.616 9.616 0 012.651 6.491 9.185 9.185 0 01-.733 3.475zm54.857 0a8.226 8.226 0 01-4.937 4.937 9.144 9.144 0 01-3.474.731 9.616 9.616 0 01-6.491-2.651 10.565 10.565 0 01-1.92-3.017 9.14 9.14 0 01-.731-3.474c.016-.613.077-1.224.183-1.829a5.772 5.772 0 01.549-1.646c.2-.583.477-1.136.823-1.646.337-.479.704-.937 1.097-1.371a9.52 9.52 0 019.966-1.92 10.551 10.551 0 013.017 1.92 9.616 9.616 0 012.651 6.491 9.185 9.185 0 01-.733 3.475zm54.857 0a10.551 10.551 0 01-1.92 3.017 9.616 9.616 0 01-6.491 2.651 9.14 9.14 0 01-3.474-.731 8.226 8.226 0 01-4.937-4.937 9.121 9.121 0 01-.731-3.474 9.616 9.616 0 012.651-6.491 10.565 10.565 0 013.017-1.92 9.52 9.52 0 019.966 1.92c.393.434.76.892 1.097 1.371.346.509.623 1.063.823 1.646.264.518.449 1.073.549 1.646.106.604.167 1.215.183 1.829a9.183 9.183 0 01-.733 3.473zm54.857 18.194a10.551 10.551 0 01-1.92 3.017 9.616 9.616 0 01-6.491 2.651 9.14 9.14 0 01-3.474-.731 8.226 8.226 0 01-4.937-4.937 9.125 9.125 0 01-.731-3.474 9.616 9.616 0 012.651-6.491 10.565 10.565 0 013.017-1.92 9.52 9.52 0 019.966 1.92c.393.434.76.892 1.097 1.371.346.51.623 1.063.823 1.646.264.518.449 1.073.549 1.646.106.604.167 1.215.183 1.829a9.18 9.18 0 01-.733 3.473zm45.714 18.286a10.551 10.551 0 01-1.92 3.017 9.616 9.616 0 01-6.491 2.651 9.14 9.14 0 01-3.474-.731 8.226 8.226 0 01-4.937-4.937 9.125 9.125 0 01-.731-3.474 9.62 9.62 0 012.651-6.491 10.565 10.565 0 013.017-1.92 9.52 9.52 0 019.966 1.92c.393.434.76.892 1.097 1.371.346.51.623 1.063.823 1.646.264.518.449 1.073.549 1.646.106.604.167 1.215.183 1.829a9.164 9.164 0 01-.733 3.473zm54.857 27.429a10.551 10.551 0 01-1.92 3.017 9.616 9.616 0 01-6.491 2.651 9.14 9.14 0 01-3.474-.731 8.226 8.226 0 01-4.937-4.937 9.125 9.125 0 01-.731-3.474 9.616 9.616 0 012.651-6.491 10.565 10.565 0 013.017-1.92 9.52 9.52 0 019.966 1.92c.393.434.76.892 1.097 1.371.346.509.623 1.063.823 1.646.264.518.449 1.073.549 1.646.106.604.167 1.215.183 1.829a9.168 9.168 0 01-.733 3.473z"></path>
  </symbol>
  <symbol xmlns="http://www.w3.org/2000/svg" viewBox="0 0 512 512" id="skull">
    <path d="M366.877 120.686c-10.71-16.647-32.968-21.479-49.615-10.769-19.927 12.821-25.711 39.464-12.891 59.391 1.454 2.26 5.028 5.246 10.509 2.281 3.695-1.997 4.553-6.977 2.281-10.509-8.283-12.875-4.546-30.089 8.329-38.373 9.595-6.171 22.423-3.388 28.597 6.207 4.484 6.971 2.462 16.291-4.509 20.775-4.873 3.134-11.386 1.719-14.518-3.151a7.604 7.604 0 00-12.79 8.228c7.67 11.924 23.613 15.384 35.537 7.714 14.022-9.022 18.091-27.77 9.07-41.794zM194.74 109.917c-16.647-10.708-38.904-5.878-49.615 10.769-9.02 14.024-4.952 32.772 9.071 41.793 11.925 7.671 27.866 4.21 35.537-7.713a7.605 7.605 0 00-12.79-8.228c-3.133 4.872-9.646 6.286-14.518 3.151-6.97-4.484-8.993-13.804-4.509-20.775 6.172-9.594 19.001-12.381 28.597-6.208 12.875 8.283 16.612 25.498 8.329 38.373-2.272 3.532-1.503 8.689 2.281 10.51 6.157 2.965 9.056-.022 10.509-2.281 12.82-19.928 7.036-46.57-12.892-59.391zm-99.683-1.922a7.604 7.604 0 00-10.011 3.928 185.422 185.422 0 00-3.282 8.027c-1.5 3.924.447 8.371 4.39 9.816 5.095 1.867 8.659-1.361 9.817-4.391.943-2.47 1.957-4.949 3.013-7.369a7.605 7.605 0 00-3.927-10.011zM280.598 310.79c-6.762-17.2-15.039-25.92-24.599-25.92-9.561 0-17.835 8.72-24.597 25.92-4.584 11.658-7.786 25.699-7.786 34.147 0 7.761 3.155 25.813 32.385 25.813 29.23 0 32.385-18.052 32.385-25.813-.001-8.448-3.203-22.489-7.788-34.147zm-24.596 44.752c-17.177 0-17.177-7.432-17.177-10.605 0-5.318 2.24-16.834 6.39-27.703 5.217-13.665 9.862-17.011 10.751-17.159.958.148 5.603 3.495 10.822 17.159 4.151 10.869 6.39 22.385 6.39 27.703.001 3.173.001 10.605-17.176 10.605zm-.001-226.672c-16.977 0-23.332 35.278-23.332 42.486 0 12.865 10.466 23.332 23.332 23.332 12.866 0 23.332-10.466 23.332-23.332 0-7.208-6.355-42.486-23.332-42.486zm0 50.61c-4.479 0-8.124-3.644-8.124-8.124 0-6.599 4.475-21.428 8.124-26.28 3.649 4.852 8.124 19.681 8.124 26.28 0 4.48-3.645 8.124-8.124 8.124z"></path>
    <path d="M442.448 186.446C442.448 33.964 314.298 0 255.999 0c-49.677 0-89.517 22.8-93.263 24.968-27.376 15.844-50.45 38.559-66.726 65.689a7.604 7.604 0 002.609 10.433 7.603 7.603 0 0010.433-2.609c15.724-26.209 37.428-47.104 62.835-61.411 1.818 5.069 8.075 15.988 19.142 17.24-3.261 5.392-4.608 11.375-3.787 17.605 1.633 12.417 11.833 22.615 24.25 24.25 6.225.82 12.207-.526 17.596-3.783 1.509 6.114 4.785 11.294 9.769 15.118 4.967 3.812 11.057 5.718 17.147 5.718 6.09 0 12.181-1.906 17.147-5.718 4.983-3.823 8.259-9.003 9.769-15.117 5.39 3.257 11.367 4.6 17.597 3.783 12.417-1.635 22.615-11.834 24.25-24.25.82-6.23-.528-12.212-3.788-17.605 4.36-1.099 13.637-3.28 19.065-17.015 52.012 29.421 87.201 85.251 87.201 149.15 0 21.937-4.104 43.281-12.177 63.481a23.42 23.42 0 00-11.278-17.104c.665-2.191 1.115-4.494 1.01-6.846-1.108-24.727-25.146-23.423-25.974-23.335-8.762-22.176-31.086-15.645-34.637-13.241-4.185-3.687-9.642-5.826-15.498-5.826-7.749 0-14.725 3.81-19.017 9.743a23.439 23.439 0 00-9.062-1.812c-24.668 0-23.447 24.604-23.405 25.17-9.577 3.045-15.926 11.412-15.926 22.093a23.434 23.434 0 006.589 16.3c-2.223 3.617-3.443 7.831-3.443 12.263 0 11.472 8.275 21.048 19.168 23.072 1.256 11.765 11.243 20.96 23.335 20.96 2.014 0 3.985-.25 5.88-.738 4.193 8.908 14.185 12.794 21.405 12.794 5.231 0 10.241-1.786 14.277-4.885 4.036 3.098 9.047 4.885 14.277 4.885 11.815 0 21.618-8.775 23.234-20.151 11.638-1.376 20.697-11.302 20.697-23.305 0-2.704-.453-5.336-1.325-7.81a23.298 23.298 0 009.292-13.886c3.023 7.6 4.959 16.582 4.959 24.838 0 29.936-20.999 56.436-49.931 63.008-27.18 6.175-34.811 28.822-35.092 40.252-.467 4.249-4.12 7.547-8.408 7.547h-10.879V389.7a7.604 7.604 0 00-15.208 0v4.217H289.46V389.7a7.604 7.604 0 00-15.208 0v4.217h-10.648V389.7a7.604 7.604 0 00-15.208 0v4.217H237.75V389.7a7.604 7.604 0 00-15.208 0v4.217h-10.646V389.7a7.604 7.604 0 00-15.208 0v4.217h-10.881c-4.3 0-7.963-3.318-8.412-7.587-.401-11.098-8.15-33.383-34.904-40.169-29.975-7.602-50.115-32.941-50.115-63.053a64.28 64.28 0 014.959-24.838 23.296 23.296 0 009.292 13.886 23.48 23.48 0 00-1.325 7.81c0 12.002 9.059 21.929 20.697 23.305 1.616 11.377 11.419 20.152 23.234 20.152 5.231 0 10.241-1.786 14.277-4.885 4.036 3.098 9.047 4.885 14.277 4.885 7.22 0 17.211-3.886 21.405-12.794 1.895.487 3.866.738 5.88.738 12.092 0 22.078-9.195 23.335-20.96 10.893-2.026 19.168-11.601 19.168-23.072 0-4.432-1.219-8.645-3.443-12.263a23.431 23.431 0 006.589-16.3c0-10.68-6.349-19.047-15.926-22.093.042-.566 1.263-25.17-23.405-25.17-3.162 0-6.232.628-9.062 1.812-4.291-5.933-11.268-9.743-19.017-9.743-5.856 0-11.313 2.138-15.498 5.826-3.552-2.404-25.875-8.935-34.635 13.241-.828-.088-24.866-1.392-25.974 23.335-.105 2.351.345 4.655 1.01 6.846a23.42 23.42 0 00-11.278 17.104c-8.074-20.2-12.177-41.545-12.177-63.481a172.09 172.09 0 014.769-40.307 7.605 7.605 0 00-14.784-3.566 187.331 187.331 0 00-5.193 43.874c0 23.526 4.326 46.436 12.863 68.148-3.483 9.1-5.246 18.676-5.246 28.514 0 25.025 11.218 47.355 29.773 62.14v44.308c0 67.516 54.929 122.444 122.445 122.444h53.223c30.21 0 59.274-11.205 81.839-31.551a7.605 7.605 0 00-10.184-11.294 107.46 107.46 0 01-35.783 21.386c.368-1.16 6.208-22.137-16.335-32.501-3.051-1.402-10.876-3.04-20.086 1.211-.926-10.102-6.422-15.842-8.994-18-9.573-8.031-24.566-8.03-34.138 0-2.572 2.159-8.068 7.897-8.994 17.999-9.212-4.251-16.988-2.506-20.086-1.211-23.553 9.857-16.692 31.389-16.308 32.583-41.556-14.782-71.392-54.503-71.392-101.068v-34.714c4.803 2.339 9.916 4.248 15.287 5.699v29.159c-.015 2.168.328 31.958 29.622 42.962.867.325 10.279 2.791 10.279-7.118v-7.95c0-4.67 3.8-8.47 8.47-8.47h10.884v8.587a7.604 7.604 0 0015.208 0v-8.586h10.646v8.586a7.604 7.604 0 0015.208 0v-8.586h10.646v8.586a7.604 7.604 0 0015.208 0v-8.586h10.648v8.586a7.604 7.604 0 0015.208 0v-8.586h10.646v8.586a7.604 7.604 0 0015.208 0v-8.586h10.877c4.67 0 8.47 3.8 8.47 8.47v7.95c0 9.909 9.411 7.444 10.279 7.118 29.299-11.006 29.637-40.806 29.623-42.963v-29.126a78.19 78.19 0 0015.287-5.545v34.527c0 23.109-7.322 45.161-21.175 63.773-2.507 3.369-1.869 8.214 1.559 10.639 5.912 4.182 9.147.446 10.64-1.559 15.82-21.256 24.184-46.448 24.184-72.853v-44.159a79.68 79.68 0 0012.195-12.196c11.338-14.132 17.581-31.921 17.581-50.093 0-9.838-1.763-19.413-5.246-28.514 8.533-21.714 12.858-44.623 12.858-68.15zM190.26 37.531c-2.365-1.735-3.956-4.412-4.563-7.424a169.697 169.697 0 0134.961-11.277 36.339 36.339 0 00-1.037 8.575c0 3.852.606 7.564 1.722 11.051a7.603 7.603 0 00-8.173-1.541c-9.788 4.054-17.924 4.272-22.91.616zm42.18 26.885c-4.785 11.551-11.698 17.626-18.965 16.672-5.621-.74-10.417-5.537-11.158-11.157-.956-7.267 5.12-14.18 16.672-18.965a7.603 7.603 0 004.691-6.892 36.609 36.609 0 0015.651 15.652 7.6 7.6 0 00-6.891 4.69zm31.451 31.018c-4.5 3.451-11.281 3.451-15.78 0-5.815-4.462-6.406-13.647-1.622-25.199.394-.951 2.077-5.179-1.563-8.18a36.249 36.249 0 0011.075 1.73c3.862 0 7.581-.61 11.075-1.73-3.64 3-1.957 7.229-1.563 8.18 4.785 11.551 4.193 20.737-1.622 25.199zm-7.89-46.857c-11.675 0-21.172-9.498-21.172-21.172 0-4.006 1.161-7.914 3.277-11.273A175.562 175.562 0 01256 15.208c6.046 0 12.018.319 17.905.934a21.18 21.18 0 013.27 11.262c-.002 11.675-9.499 21.173-21.174 21.173zm53.684 21.353c-.739 5.62-5.536 10.416-11.156 11.157-7.272.955-14.18-5.119-18.966-16.671a7.605 7.605 0 00-6.889-4.692 36.608 36.608 0 0015.648-15.65 7.604 7.604 0 004.691 6.892l.027.011c11.535 4.784 17.602 11.692 16.645 18.953zm12.056-32.398c-4.981 3.651-13.105 3.436-22.875-.603l-.033-.014a7.606 7.606 0 00-8.173 1.542 36.258 36.258 0 001.721-11.052c0-2.885-.354-5.744-1.023-8.516a169.835 169.835 0 0134.905 11.408c-.635 2.933-2.206 5.536-4.522 7.235zm67.846 188.447a8.212 8.212 0 01-.626 3.16 51.193 51.193 0 00-8.894-11.322c5.539-.851 9.52 3.606 9.52 8.162zm-33.175-25.103c2.157.229 6.522 1.377 7.99 6.711-1.325-.553-6.17-2.787-13.675-3.731 1.311-1.645 3.345-3.162 5.685-2.98zm-27.725-2.091a8.206 8.206 0 017.17 4.191 93.251 93.251 0 00-15.051 1.646c1.042-3.407 4.214-5.837 7.881-5.837zm-52.2 39.986c-.001-3.662 1.848-5.674 3.962-6.776-.96 3.671-2.259 8.442-2.313 11.704a8.216 8.216 0 01-1.649-4.928zm13.532 36.527c-.744.199-10.192 1.317-10.386-7.965-.046-2.199.843-4.246 2.365-5.771 2.06 4.745 4.851 9.361 8.158 13.709-.046.012-.091.015-.137.027zm10.59-68.582c2.074-.025 4.033.774 5.546 2.162-4.816 1.936-9.292 4.361-13.192 7.299-.162-3.705 1.001-9.381 7.646-9.461zm6.319 89.441c-4.53 0-9.133-3.646-7.798-10.871a91.651 91.651 0 0012.011 9.699 8.14 8.14 0 01-4.213 1.172zm27.285 12.057c-2.092 0-6.453-2.006-7.912-5.245 4.726 2.203 9.709 2.767 13.413 3.121a8.162 8.162 0 01-5.501 2.124zm28.555 0c-2.605.089-4.97-1.182-6.514-3.224a51.149 51.149 0 0014.599-5.873c.196 3.067-.544 8.837-8.085 9.097zm16.197-42.144c-4.842 14.985-18.666 25.125-34.398 25.054-32.297-.145-55.886-35.371-50.372-52.44 4.357-13.483 25.542-20.538 44.221-20.538 6.427 0 12.393.83 17.257 2.402 9.191 2.97 16.675 9.339 21.074 17.937 4.399 8.598 5.187 18.394 2.218 27.585zm4.984 21.881a51.287 51.287 0 006.97-10.889c.339.918.531 1.895.57 2.905.243 6.215-4.189 7.757-7.54 7.984zm11.703-27.665a50.74 50.74 0 00-.606-14.861 8.225 8.225 0 015.01 7.572 8.192 8.192 0 01-4.404 7.289zm-246.418 47.928c-7.541-.26-8.282-6.027-8.083-9.096a51.131 51.131 0 0014.598 5.873c-1.545 2.041-3.909 3.312-6.515 3.223zm28.555 0a8.158 8.158 0 01-5.501-2.124c6.491-.242 12.586-2.81 13.413-3.121-1.459 3.238-5.821 5.245-7.912 5.245zm27.286-12.057a8.146 8.146 0 01-4.214-1.172 91.438 91.438 0 0012.011-9.699c1.335 7.225-3.268 10.871-7.797 10.871zm30.441-57.387a8.21 8.21 0 01-1.65 4.928c-.055-3.262-.34-7.976-2.313-11.704 2.114 1.104 3.963 3.115 3.963 6.776zm-5.512 22.793c1.523 1.524 2.411 3.571 2.365 5.771-.194 9.281-9.642 8.163-10.386 7.965-.046-.012-.091-.015-.137-.026 3.306-4.349 6.097-8.965 8.158-13.71zm-18.611-54.847c6.645.08 7.808 5.756 7.647 9.46-3.9-2.938-8.377-5.362-13.192-7.299 1.512-1.387 3.47-2.185 5.545-2.161zm-28.078-7.931c3.667 0 6.839 2.43 7.881 5.838a93.364 93.364 0 00-15.051-1.646 8.203 8.203 0 017.17-4.192zm-27.725 2.091c2.34-.182 4.374 1.334 5.684 2.98-3.416.524-6.655 1.262-9.62 2.22-1.382.446-2.73.958-4.055 1.511 1.469-5.334 5.834-6.482 7.991-6.711zm-20.335 37.609c4.399-8.598 11.883-14.969 21.074-17.937 4.863-1.571 10.83-2.402 17.257-2.402 18.678 0 39.864 7.054 44.221 20.538 5.513 17.068-20.103 52.295-50.373 52.44-15.731.075-29.555-10.069-34.397-25.054-2.97-9.191-2.181-18.988 2.218-27.585zm-3.321-20.668a51.251 51.251 0 00-8.894 11.322c-.411-.99-.682-2.06-.626-3.16.434-8.336 9.105-8.226 9.52-8.162zm-10.853 59.246a51.362 51.362 0 006.969 10.889c-3.35-.229-7.78-1.771-7.539-7.985a9.506 9.506 0 01.57-2.904zm-4.125-31.639a50.674 50.674 0 00-.606 14.861 8.196 8.196 0 01-4.404-7.29 8.225 8.225 0 015.01-7.571zm179.99 226.907c4.933 1.796 8.205 7.462 7.294 12.632-1.271 7.211-10.436 11.579-24.577 11.804a24.897 24.897 0 00-5.233-9.046c7.266-12.14 15.639-17.893 22.516-15.39zm-46.883 24.461a9.595 9.595 0 0111.872 0h-11.872zm-1.357-43.891c4.023-3.374 10.566-3.373 14.587 0 5.608 4.706 4.81 14.826-2.065 27.186a24.824 24.824 0 00-10.457 0c-6.874-12.36-7.673-22.48-2.065-27.186zm-33.653 19.43c6.883-2.502 15.249 3.251 22.516 15.39a24.868 24.868 0 00-5.234 9.046c-14.141-.225-23.305-4.594-24.576-11.804-.91-5.17 2.361-10.837 7.294-12.632zm-52.385-59.767c-9.924-9.013-10.025-22.063-10.023-22.716l.001-21.892c8.952 7.896 9.532 18.475 9.556 19.039.004.15.862 10.608 6.287 14.498-2.843 3.056-4.903 6.849-5.821 11.071zm186.661 0c-.917-4.221-2.977-8.014-5.819-11.068 3.492-3.759 5.805-8.64 6.264-14.05.015-.184-.836-11.808 9.577-19.978v22.337h.001c.003.688-.099 13.744-10.023 22.759z"></path>
    <path d="M366.548 75.422a157.544 157.544 0 00-22.951-18.726 7.604 7.604 0 00-8.458 12.639 142.318 142.318 0 0120.728 16.913c1.481 1.462 5.913 4.83 10.753-.073a7.603 7.603 0 00-.072-10.753zm17.19 20.081c-.714-.99-1.437-1.972-2.172-2.944a7.605 7.605 0 00-12.133 9.171c.664.877 1.316 1.761 1.958 2.654 1.485 2.065 5.14 4.945 10.613 1.733 3.623-2.127 4.186-7.205 1.734-10.614z"></path>
  </symbol>
  <symbol xmlns="http://www.w3.org/2000/svg" viewBox="0 0 512 512" id="skull_second">
    <path d="M495.891 486.685l-16-96A8 8 0 00472 384h-9.754l-38.485-153.94A8 8 0 00416 224h-32.938l-6-48H384a8 8 0 008-8v-32a8 8 0 00-8-8h-8V96h8a8 8 0 008-8V56a8 8 0 00-8-8h-8V24a8 8 0 00-8-8H144a8 8 0 00-8 8v24h-8a8 8 0 00-8 8v32a8 8 0 008 8h8v32h-8a8 8 0 00-8 8v32a8 8 0 008 8h6.938l-6 48H96a8 8 0 00-7.761 6.06L49.754 384H40a8 8 0 00-7.891 6.685l-16 96A8 8 0 0024 496h464a8 8 0 007.891-9.315zM445.754 384h-95.195l-28.8-144h88zm-287.2 16l-13.333 80h-15.777l13.333-80zM264 96v16h-16V96zm40 32v96h-16v-56a8 8 0 00-8-8h-48a8 8 0 00-8 8v56h-16v-96zm16 16h56v16h-56zM169.444 432h173.112l2.667 16H166.777zm170.446-16H172.11l2.667-16h162.446zm-56.848-128h-54.084l3.2-16h47.684zM272 224h-32v-48h32zm1.441 16l3.2 16h-41.282l3.2-16zm-47.683 64h60.484l3.2 16h-66.883zm-6.4 32h73.282l3.2 16h-79.682zm-6.4 32h86.084l3.2 16h-92.484zm105.6 16l-28.8-144h15.683l28.8 144zm-96.316-144l-28.8 144h-15.684l28.8-144zM164.11 464h183.78l2.666 16H161.444zm189.334-64h15.779l13.333 80h-15.779zm13.494-176H320v-48h40.938zM360 128h-40v-8a8 8 0 00-8-8h-32V96h80zm0-80h-16V32h16zm-176 0V32h16v16zm32-16h16v16h-16zm32 0h16v16h-16zm32 0h16v16h-16zm32 0h16v16h-16zm-160 0h16v16h-16zm-16 32h240v16H136zm16 32h80v16h-32a8 8 0 00-8 8v8h-40zm-16 48h56v16h-56zm15.062 32H192v48h-46.938zm-48.816 64h88l-28.8 144h-95.2zM46.777 400h79.779l-13.333 80H33.444zm352 80l-13.333-80h79.779l13.333 80z"></path>
  </symbol>
  <symbol xmlns="http://www.w3.org/2000/svg" viewBox="0 0 512.001 512.001" id="sombrero">
    <path d="M256.001 293.616h-.008c-5.523 0-9.996 4.477-9.996 10s4.481 10 10.004 10 10-4.477 10-10-4.477-10-10-10z"></path>
    <path d="M504.59 286.342a960.617 960.617 0 00-142.478-26.837c-14.882-80.147-57.023-133.504-106.111-133.504-49.073 0-91.228 53.366-106.111 133.504A960.537 960.537 0 007.412 286.342 9.997 9.997 0 000 296c0 49.626 40.374 90 90 90h332.002c49.626 0 90-40.374 90-90a10.001 10.001 0 00-7.412-9.658zm-307.869-98.134c19.693-.556 39.61-.849 59.28-.849 19.672 0 39.591.293 59.286.849 3.818 6.209 7.382 13.003 10.642 20.331-23.274-.767-46.726-1.178-69.928-1.178-23.207 0-46.658.411-69.925 1.177 3.261-7.327 6.826-14.121 10.645-20.33zm59.28-42.207c15.603 0 30.638 7.863 43.864 21.824a2130.382 2130.382 0 00-43.864-.466c-14.545 0-29.226.164-43.855.466 13.226-13.96 28.259-21.824 43.855-21.824zm-77.718 82.819a2109.775 2109.775 0 0177.718-1.459c25.795 0 51.905.504 77.721 1.459 2.964 8.993 5.515 18.554 7.598 28.597-28.347-2.529-56.817-3.803-85.318-3.803s-56.971 1.274-85.318 3.803c2.082-10.043 4.634-19.604 7.599-28.597zm243.719 137.181H90c-21.803 0-41.298-10.031-54.146-25.709 57.514-14.135 116.541-22.742 175.64-25.6 5.517-.267 9.772-4.955 9.505-10.471-.267-5.517-4.972-9.794-10.471-9.505-62.414 3.018-124.744 12.33-185.373 27.651a69.475 69.475 0 01-4.745-18.766c76.908-19.899 156.127-29.985 235.591-29.985s158.683 10.086 235.591 29.986a69.402 69.402 0 01-4.745 18.766c-60.63-15.321-122.962-24.633-185.381-27.651-5.514-.286-10.205 3.989-10.471 9.505s3.989 10.205 9.505 10.471c59.104 2.858 118.133 11.464 175.647 25.6-12.847 15.676-32.342 25.708-54.145 25.708z"></path>
  </symbol>
  <symbol xmlns="http://www.w3.org/2000/svg" viewBox="0 0 512 512" id="taco">
    <path d="M432 272h8a8 8 0 000-16h-8a8 8 0 000 16z"></path>
    <path d="M64 408h392a40.045 40.045 0 0040-40v-8a205.881 205.881 0 00-21.937-93.073c-.05-.1-.1-.2-.157-.3l-1.926-3.469a63.982 63.982 0 00-55.088-62.545 17.927 17.927 0 00-3.235-4.414l-42.427-42.424a17.938 17.938 0 00-13.715-5.217 60.185 60.185 0 00-3.178-13.63 8 8 0 00-10.24-4.811l-29.085 10.491A39.74 39.74 0 00280 120a40.16 40.16 0 00-14.882 2.879 55.971 55.971 0 00-10.963-6.3c.167-.235.341-.464.5-.7A8 8 0 10241.344 107a11.063 11.063 0 01-5.844 4.437h-7a11.063 11.063 0 01-5.844-4.437 8 8 0 10-13.312 8.875c.158.237.33.463.494.694a55.9 55.9 0 00-10.988 6.3 39.457 39.457 0 00-2.633-.955 27.212 27.212 0 001.558-3.892 8 8 0 10-15.279-4.747 11.053 11.053 0 01-4.35 5.909l-6.714 1.98a11.064 11.064 0 01-6.86-2.6 7.99 7.99 0 00-13.114 5.795 42.654 42.654 0 00-39.112 5.109l-.279.2A42.648 42.648 0 0055.805 169l-.283.195a42.651 42.651 0 00-17.246 44.1 42.677 42.677 0 00-6.791 56.491 43.069 43.069 0 003.224 4.047A206.792 206.792 0 0016 360a48.054 48.054 0 0048 48zm371.725-27.182A23.845 23.845 0 01432 368v-8a209.518 209.518 0 00-1.181-22.155 28.877 28.877 0 0012.423-4.748 39.952 39.952 0 01-7.517 47.721zm-7.214-58.81A206.185 206.185 0 00422.2 296.9a13.049 13.049 0 116.307 25.111zM480 360v8a23.985 23.985 0 01-31.609 22.756 55.946 55.946 0 005.5-70.847A28.879 28.879 0 00456 309.056c0-.872-.046-1.733-.121-2.585a63.766 63.766 0 0010.805-16.908A190.226 190.226 0 01480 360zm-24-96a47.708 47.708 0 01-7.438 25.667 29.02 29.02 0 00-31.815-7.819 207.806 207.806 0 00-22.326-40.955l5.579-5.579V240a8 8 0 0016 0v-8a8 8 0 00-5.2-7.486l2.857-2.857a17.885 17.885 0 003.417-4.807A47.72 47.72 0 01456 264zm-96.084-98.912l42.427 42.427a2 2 0 010 2.828l-17.688 17.688a209.792 209.792 0 00-38.709-36.425 60.743 60.743 0 0011.188-26.554 2 2 0 012.782.036zm-27.293 17.6a207.257 207.257 0 00-37.133-18.028l45.825-16.53a44.72 44.72 0 01-8.692 34.556zm-172.531-20.63A24.66 24.66 0 01160 160a24 24 0 0146.865-7.289 206.563 206.563 0 00-46.773 9.347zm63.1-10.048a39.923 39.923 0 00-10-19.311 39.987 39.987 0 0157.172 24.013l-.869.314A207.922 207.922 0 00224 152c-.269 0-.535.009-.8.01zm76.4-5.841l-14.151 5.1a55.851 55.851 0 00-7.465-15.181 24.973 24.973 0 012.018-.092 24.2 24.2 0 0119.606 10.173zM40.2 240.68a26.491 26.491 0 0110.98-17.208c.15-.105.3-.2.457-.3l.235-.153a8 8 0 003.115-9.509 26.615 26.615 0 0112.668-33 8 8 0 004.256-7.85 26.66 26.66 0 0138.068-26.615 8 8 0 008.834-1.3 26.99 26.99 0 012.7-2.171 26.649 26.649 0 0127.457-1.868 39.988 39.988 0 00-4.227 26.994 209.276 209.276 0 00-101.851 90.109A26.459 26.459 0 0140.2 240.68zM224 168a191.491 191.491 0 0153.463 7.582c.138.047.279.087.42.126C357.605 199.055 416 272.831 416 360v8a39.792 39.792 0 008.019 24H64a32.036 32.036 0 01-32-32c0-105.869 86.131-192 192-192z"></path>
    <circle cx="256" cy="232" r="8"></circle>
    <circle cx="288" cy="208" r="8"></circle>
    <circle cx="328" cy="239.243" r="8"></circle>
    <circle cx="224" cy="208" r="8"></circle>
    <circle cx="224" cy="264" r="8"></circle>
    <circle cx="160" cy="264" r="8"></circle>
    <circle cx="288" cy="264" r="8"></circle>
    <circle cx="192" cy="232" r="8"></circle>
    <circle cx="128" cy="240" r="8"></circle>
    <circle cx="160" cy="208" r="8"></circle>
    <path d="M72 376h16a8 8 0 000-16H72a8 8 0 000 16zm48 0h40a8 8 0 000-16h-40a8 8 0 000 16z"></path>
  </symbol>
  <symbol xmlns="http://www.w3.org/2000/svg" viewBox="0 0 512 512" id="tumi">
    <path d="M398.307 235.53a142.894 142.894 0 00-30.014-83.064l-13.127 10.49c15.026 11.558 24.779 28 28.326 47.965a98.19 98.19 0 011.187 24.609z"></path>
    <circle cx="343.63" cy="208.861" r="6.82"></circle>
    <path d="M168.708 292.424a15.679 15.679 0 1015.679 15.676 15.7 15.7 0 00-15.679-15.676zm78.264-258.742c5.3 10.656 6.1 23.357 6.064 30.531 1.091-.021 2.182-.042 3.278-.042 1.739 0 3.471.033 5.2.083.443-6.888 2.149-19.112 8.45-29.189-9.343-8.34-17.419-5.751-22.992-1.383zm-39.63 37.478l-11.9-47.177a224.964 224.964 0 00-77.8 38.312l30.458 39.448q6.185-4.875 12.805-9.19c-2.835-5.4-9.011-15.274-18.206-19.874a7.569 7.569 0 01-4-8.605c4.67-19.108 20.507-23.245 33.769-20.734a7.608 7.608 0 016.195 7.571c-.118 10.678 6.932 21.618 10.637 26.622a173.555 173.555 0 0118.042-6.373z"></path>
    <path d="M209.7 375.873a22.408 22.408 0 0112.124-19.95 9.916 9.916 0 005.34-8.852l-.027-101.541h-116.2v105.376a145.133 145.133 0 0068.891 123.427l44.063-77.585a22.511 22.511 0 01-14.191-20.875zm-40.987-42.091a25.679 25.679 0 1125.674-25.682 25.707 25.707 0 01-25.679 25.682zm35.787-44.067a40.277 40.277 0 00-71.576 0 5 5 0 01-8.882-4.594 50.277 50.277 0 0189.34 0 5 5 0 11-8.882 4.594zm-8.181-54.185h18.1a41.3 41.3 0 0182.015 0h19.347a58.184 58.184 0 00-17.319-36.963A60.194 60.194 0 00256 181.4c-30.8 0-56.568 23.85-59.681 54.13zM261 171.586a71.889 71.889 0 0110.366 1.469l18.564-72.005A140.884 140.884 0 00261 97.026z"></path>
    <path d="M226.427 364.8a12.475 12.475 0 001.53 22.817 16.675 16.675 0 0110.217 11.122c2.57 8.823 8.353 13.3 17.188 13.3 9.587 0 17.548-6.073 19.36-14.769a16.865 16.865 0 017.9-10.917c6.149-3.694 9.968-7.707 9.968-10.474a12.439 12.439 0 00-6.733-11.075 19.887 19.887 0 01-10.731-17.73l.026-101.538h-38.02l.027 101.538a19.883 19.883 0 01-10.732 17.726zm109.406-243.048l-38.223 63.024a69.873 69.873 0 016.958 5.812l57.324-45.808q-2.531-2.836-5.218-5.562a145.168 145.168 0 00-20.841-17.466zM53.207 215.557a92.828 92.828 0 0130.109-5.172q.864-5.023 2-9.95c-7.8-.35-20.886-1.913-30.861-8.048-8.43 9.442-5.698 17.59-1.248 23.17zM347.1 169.4l-35.775 28.587a68.042 68.042 0 0114.481 37.544h48.826a88.457 88.457 0 00-1.048-23.19c-3.347-18.422-12.251-32.85-26.484-42.941zm13.347 39.462a16.82 16.82 0 11-16.82-16.82 16.839 16.839 0 0116.823 16.819zM72.531 273.317h28.402v19.4H72.531zm0-27.787h28.402v17.787H72.531zm-4.67 106.421a1.69 1.69 0 101.689 1.69 1.692 1.692 0 00-1.689-1.69zm72.563-243.784l-30.6-39.63q-7.285 6.079-14.12 12.8a222.879 222.879 0 00-45.039 63.413l47.057 20.157a176.365 176.365 0 0110.636-19.235c-4.664-4.2-14.544-11.95-25.033-13.016a7.567 7.567 0 01-6.79-6.624c-2.414-19.526 10.926-29.007 24.216-31.368a7.6 7.6 0 018.478 4.882c3.649 9.946 13.488 17.588 18.54 20.994q6.017-6.498 12.655-12.373z"></path>
    <path d="M100.605 104.9c-12.2 2.88-14.7 10.989-14.312 18.062 11.776 1.869 22.115 9.467 27.738 14.365q3.4-4.719 7.1-9.2c-5.958-4.158-15.776-12.266-20.526-23.227zM81.888 220.413a83.535 83.535 0 00-26.411 4.952 8.956 8.956 0 01-3.072.561 7.394 7.394 0 01-5.569-2.427c-13.165-14.623-7.661-30.036 1.878-39.586a7.606 7.606 0 019.747-.855c9.035 6.3 22.994 7.336 29.482 7.455q2.48-8.408 5.755-16.452L46.6 153.886a223.663 223.663 0 00-17.2 81.644h51.414c.142-5.096.509-10.136 1.074-15.117zM57.31 358.641H34.992a33.024 33.024 0 0027.869 27.413v-21.863a11.746 11.746 0 01-5.551-5.55zm-1.17 13.869a4.985 4.985 0 111.47-3.54 5.03 5.03 0 01-1.47 3.54zm-21.209-23.869H57.31a11.748 11.748 0 015.551-5.551v-22.269a33.021 33.021 0 00-27.93 27.82zM47.5 333.75a5.008 5.008 0 11-1.46 3.54 5.032 5.032 0 011.46-3.54zm25.031-22.965a42.928 42.928 0 0128.4 15.688v-23.755h-28.4zM255.43 209.106a31.355 31.355 0 00-30.923 26.424h61.846a31.354 31.354 0 00-30.923-26.424zM148.913 64.666c10.374 5.911 17.164 16.342 20.54 22.643q5.162-2.962 10.535-5.583c-4.342-6.206-10.708-17.184-11.283-28.867-12.434-1.64-17.645 5.056-19.792 11.807zM72.861 364.191v21.762a33.028 33.028 0 0027.209-27.312H78.411a11.744 11.744 0 01-5.55 5.55zm7.3 1.249a5.01 5.01 0 11-1.46 3.53 5.046 5.046 0 011.459-3.53zm-7.3-44.518v22.168a11.746 11.746 0 015.55 5.551h21.72a33.023 33.023 0 00-27.27-27.719zm14.369 19.9a4.984 4.984 0 111.47-3.529 5.037 5.037 0 01-1.47 3.526zm193.738-164.954a69.565 69.565 0 018.15 3.626l38.282-63.125a139.925 139.925 0 00-27.852-12.569zM411.7 348.641h21.72a11.746 11.746 0 015.55-5.551v-22.168a33.025 33.025 0 00-27.27 27.719zm12.9-14.891a5.008 5.008 0 11-1.46 3.54 5.026 5.026 0 011.46-3.54zm36.744-188.981a222.876 222.876 0 00-45.053-63.431q-6.791-6.7-14.06-12.752l-29.784 39.8a177.557 177.557 0 0113.772 13.623c5.253-3.7 15.068-11.654 18.674-21.483a7.6 7.6 0 018.48-4.88c13.288 2.361 26.628 11.841 24.215 31.367a7.573 7.573 0 01-6.79 6.625c-10.6 1.076-20.784 9.357-25.482 13.717a176.8 176.8 0 019.582 17.535zm-50.277 181.489a42.927 42.927 0 0128.233-15.473v-8.067h-28.233zm22.353 32.383h-21.659a33.027 33.027 0 0027.209 27.312v-21.762a11.744 11.744 0 01-5.55-5.55zm-1.75 13.869a5.01 5.01 0 111.46-3.54 5.03 5.03 0 01-1.46 3.54z"></path>
    <path d="M413.517 105.881c-4.763 10.984-14.745 19.422-20.777 23.772q3.639 4.509 6.989 9.253c5.722-5.1 16.257-13.055 28.1-14.961.39-7.074-2.11-15.184-14.312-18.064zm-2.45 167.436h28.232v19.4h-28.232zm32.903 78.634a1.685 1.685 0 00-1.45.837 4.318 4.318 0 010 1.7 1.687 1.687 0 101.45-2.542zm-25.048-177.908a175.368 175.368 0 015.867 16.821c6.835-.222 21.737-1.459 30.834-7.806a7.608 7.608 0 019.747.856c9.539 9.549 15.043 24.962 1.879 39.583a7.556 7.556 0 01-5.628 2.517 7.651 7.651 0 01-3.735-.979c-8.886-4.957-20.66-5.095-27.156-4.7q.856 7.507 1.084 15.192H482.6a223.668 223.668 0 00-17.189-81.625zm30.048 146.778v22.269a11.746 11.746 0 015.55 5.551h22.38a33.022 33.022 0 00-27.93-27.82zm15.36 20a5.008 5.008 0 111.46-3.529 5.042 5.042 0 01-1.46 3.527zm-15.36 23.37v21.863a33.023 33.023 0 0027.868-27.413H454.52a11.744 11.744 0 01-5.55 5.55zm10.25-.221a5.019 5.019 0 11-3.53 1.47 5.046 5.046 0 013.53-1.47z"></path>
    <circle cx="167.23" cy="208.861" r="6.82"></circle>
    <path d="M256.314 74.171c-89.633 0-162.852 71.929-165.494 161.359h12.867a153.175 153.175 0 0144.528-103.345 150.981 150.981 0 01215.57 0 153.173 153.173 0 0144.528 103.345h13.494c-2.641-89.43-75.86-161.359-165.493-161.359zM411.067 245.53h28.232v17.787h-28.232zm49.944-30.143c4.37-5.575 6.964-13.653-1.388-23-10.193 6.252-24.135 7.946-32.234 8.384q1.1 4.77 1.927 9.639c7.122-.505 20.543-.503 31.695 4.977z"></path>
    <path d="M155.326 139.217c-.27.273-.531.552-.8.826l53.564 50.6a71.022 71.022 0 015.876-5l-37.849-63.86a145.166 145.166 0 00-20.791 17.434zm29.225-22.817l37.8 63.771a69.891 69.891 0 018.6-4.043L210.04 104.61a139.921 139.921 0 00-25.489 11.79zm-70.858 119.13h15.552c-.488-14.151 1.461-51.476 32.555-74.861l-14.007-13.231a142.99 142.99 0 00-34.1 88.092z"></path>
    <path d="M139.28 235.53h47a70.04 70.04 0 0115.05-37.522l-32.14-30.358c-28.72 20.602-30.307 55.635-29.91 67.88zm44.77-26.669a16.82 16.82 0 11-16.82-16.82 16.839 16.839 0 0116.82 16.82zm56.45-35.684A68.778 68.778 0 01251 171.6V97.026a140.717 140.717 0 00-31.4 4.661zm44.623 173.893a9.919 9.919 0 005.339 8.853 22.407 22.407 0 0112.125 19.95c0 5.587-3.645 11.137-10.578 16.227l48.123 76.942a145.022 145.022 0 0060.935-118.136V245.53H285.149zm59.985-13.288a25.679 25.679 0 1125.679-25.682 25.707 25.707 0 01-25.679 25.682zm-44.67-48.661a50.277 50.277 0 0189.34 0 5 5 0 11-8.883 4.594 40.277 40.277 0 00-71.575 0 5 5 0 01-8.882-4.594zM346.394 51.88c-.63 12.042-7.7 24.01-12.289 30.579q5.49 2.736 10.758 5.84c3.517-6.836 10.707-18.486 21.327-24.608-2.145-6.751-7.357-13.448-19.796-11.811z"></path>
    <path d="M394.416 62.339a224.986 224.986 0 00-77.953-38.38l-12.74 46.75a173.683 173.683 0 0121.144 7.465c3.951-5.412 11.69-17.413 11.571-28.242a7.606 7.606 0 016.2-7.572c13.262-2.507 29.1 1.627 33.768 20.735a7.568 7.568 0 01-4 8.6c-8.856 4.432-15.705 15.254-19.048 21.933q5.878 3.932 11.424 8.31zm-122.909 2.5a173.986 173.986 0 0122.514 3.44l12.729-46.712a234.083 234.083 0 00-101.6.023l11.864 47.038a173.971 173.971 0 0126-3.954c.071-6.364-.555-18.637-5.7-27.866a7.574 7.574 0 011.538-9.361c14.623-13.164 30.036-7.661 39.585 1.879a7.606 7.606 0 01.856 9.744c-5.821 8.352-7.379 19.617-7.786 25.769zm73.601 227.585a15.679 15.679 0 1015.679 15.676 15.7 15.7 0 00-15.679-15.676zm-60.596 106.881c-2.789 13.381-14.776 22.728-29.15 22.728-11.662 0-20.625-5.812-25.186-16.11L188.5 479.3a144.771 144.771 0 00143.3-4.729l-47.221-75.5c-.024.079-.051.155-.067.234zm4.514 52.664a5 5 0 01-5 5h-54.015a5 5 0 010-10h54.015a5 5 0 015 5z"></path>
  </symbol>
</svg>